<svg width="57" height="57" viewBox="0 0 57 57" fill="none" xmlns="http://www.w3.org/2000/svg">
<g id="package">
<path id="Icon" d="M39.3306 22.2731L18.3306 10.1631M8.46057 16.5798L28.8306 28.3631L49.2006 16.5798M28.8306 51.8598V28.3398M49.8306 37.6731V19.0064C49.8297 18.1881 49.6137 17.3843 49.2042 16.6758C48.7946 15.9673 48.2059 15.379 47.4972 14.9698L31.1639 5.63645C30.4545 5.22686 29.6497 5.01123 28.8306 5.01123C28.0114 5.01123 27.2067 5.22686 26.4972 5.63645L10.1639 14.9698C9.45518 15.379 8.86652 15.9673 8.45698 16.6758C8.04743 17.3843 7.83141 18.1881 7.83057 19.0064V37.6731C7.83141 38.4915 8.04743 39.2952 8.45698 40.0037C8.86652 40.7122 9.45518 41.3006 10.1639 41.7098L26.4972 51.0431C27.2067 51.4527 28.0114 51.6683 28.8306 51.6683C29.6497 51.6683 30.4545 51.4527 31.1639 51.0431L47.4972 41.7098C48.2059 41.3006 48.7946 40.7122 49.2042 40.0037C49.6137 39.2952 49.8297 38.4915 49.8306 37.6731Z" stroke="#034592" stroke-width="3" stroke-linecap="round" stroke-linejoin="round"/>
</g>
</svg>
