<svg width="56" height="57" viewBox="0 0 56 57" fill="none" xmlns="http://www.w3.org/2000/svg">
<g id="users">
<path id="Icon" d="M39.6666 49.019V44.3524C39.6666 41.877 38.6833 39.5031 36.9329 37.7527C35.1826 36.0024 32.8086 35.019 30.3333 35.019H11.6666C9.19123 35.019 6.81726 36.0024 5.06692 37.7527C3.31658 39.5031 2.33325 41.877 2.33325 44.3524V49.019M53.6666 49.019V44.3524C53.665 42.2844 52.9768 40.2755 51.7098 38.6411C50.4428 37.0067 48.6689 35.8394 46.6666 35.3224M37.3333 7.32238C39.3409 7.83641 41.1203 9.00401 42.3911 10.6411C43.6618 12.2782 44.3516 14.2916 44.3516 16.364C44.3516 18.4364 43.6618 20.4499 42.3911 22.087C41.1203 23.7241 39.3409 24.8917 37.3333 25.4057M30.3333 16.3524C30.3333 21.507 26.1546 25.6857 20.9999 25.6857C15.8453 25.6857 11.6666 21.507 11.6666 16.3524C11.6666 11.1977 15.8453 7.01904 20.9999 7.01904C26.1546 7.01904 30.3333 11.1977 30.3333 16.3524Z" stroke="#034592" stroke-width="3" stroke-linecap="round" stroke-linejoin="round"/>
</g>
</svg>
