<svg width="151" height="116" viewBox="0 0 151 116" fill="none" xmlns="http://www.w3.org/2000/svg">
<g filter="url(#filter0_dd_1115_5384)">
<rect x="13.4512" y="2.73071" width="124" height="86" rx="8" fill="#FDFDFF" shape-rendering="crispEdges"/>
<rect x="13.6428" y="2.92238" width="123.617" height="85.6167" rx="7.80833" stroke="#E9EBF8" stroke-width="0.383333" shape-rendering="crispEdges"/>
<path d="M20.3895 15.864V10.4973H22.4825C22.9527 10.4973 23.3539 10.5715 23.6861 10.7197C24.0184 10.8679 24.2739 11.0826 24.4528 11.3637C24.6317 11.6448 24.7211 11.9796 24.7211 12.368C24.7211 12.7565 24.6317 13.0912 24.4528 13.3723C24.2739 13.6483 24.0184 13.8605 23.6861 14.0087C23.3539 14.1569 22.9527 14.231 22.4825 14.231H20.8111L21.1561 13.8783V15.864H20.3895ZM23.9775 15.864L22.6128 13.9167H23.4331L24.8131 15.864H23.9775ZM21.1561 13.955L20.8111 13.5793H22.4595C22.9501 13.5793 23.3207 13.4746 23.5711 13.265C23.8267 13.0503 23.9545 12.7513 23.9545 12.368C23.9545 11.9847 23.8267 11.6882 23.5711 11.4787C23.3207 11.2691 22.9501 11.1643 22.4595 11.1643H20.8111L21.1561 10.781V13.955ZM27.2555 15.91C26.9079 15.91 26.6012 15.8461 26.3355 15.7183C26.0748 15.5906 25.8703 15.3963 25.7221 15.1357C25.579 14.8699 25.5075 14.5377 25.5075 14.139V11.8007H26.2435V14.0547C26.2435 14.4533 26.338 14.7523 26.5271 14.9517C26.7213 15.151 26.9922 15.2507 27.3398 15.2507C27.5953 15.2507 27.8177 15.1996 28.0068 15.0973C28.1959 14.99 28.3416 14.8367 28.4438 14.6373C28.546 14.4329 28.5971 14.1876 28.5971 13.9013V11.8007H29.3331V15.864H28.6355V14.7677L28.7505 15.059C28.6176 15.3299 28.4182 15.5395 28.1525 15.6877C27.8867 15.8359 27.5877 15.91 27.2555 15.91ZM32.5973 11.7623C32.9295 11.7623 33.2208 11.8262 33.4713 11.954C33.7268 12.0818 33.9262 12.276 34.0693 12.5367C34.2124 12.7973 34.2839 13.127 34.2839 13.5257V15.864H33.5479V13.61C33.5479 13.2165 33.4508 12.92 33.2566 12.7207C33.0675 12.5213 32.7992 12.4217 32.4516 12.4217C32.1909 12.4217 31.9635 12.4728 31.7693 12.575C31.575 12.6772 31.4243 12.828 31.3169 13.0273C31.2147 13.2267 31.1636 13.4746 31.1636 13.771V15.864H30.4276V11.8007H31.1329V12.897L31.0179 12.6057C31.1508 12.3399 31.3553 12.1329 31.6313 11.9847C31.9073 11.8365 32.2293 11.7623 32.5973 11.7623ZM37.509 11.7623C37.8412 11.7623 38.1326 11.8262 38.383 11.954C38.6386 12.0818 38.8379 12.276 38.981 12.5367C39.1241 12.7973 39.1957 13.127 39.1957 13.5257V15.864H38.4597V13.61C38.4597 13.2165 38.3626 12.92 38.1684 12.7207C37.9792 12.5213 37.7109 12.4217 37.3634 12.4217C37.1027 12.4217 36.8752 12.4728 36.681 12.575C36.4868 12.6772 36.336 12.828 36.2287 13.0273C36.1265 13.2267 36.0754 13.4746 36.0754 13.771V15.864H35.3394V11.8007H36.0447V12.897L35.9297 12.6057C36.0626 12.3399 36.267 12.1329 36.543 11.9847C36.819 11.8365 37.141 11.7623 37.509 11.7623ZM40.2511 15.864V11.8007H40.9871V15.864H40.2511ZM40.6191 11.0187C40.476 11.0187 40.3559 10.9727 40.2588 10.8807C40.1668 10.7887 40.1208 10.6762 40.1208 10.5433C40.1208 10.4053 40.1668 10.2903 40.2588 10.1983C40.3559 10.1063 40.476 10.0603 40.6191 10.0603C40.7622 10.0603 40.8798 10.1063 40.9718 10.1983C41.0689 10.2852 41.1174 10.3951 41.1174 10.528C41.1174 10.666 41.0714 10.7836 40.9794 10.8807C40.8874 10.9727 40.7673 11.0187 40.6191 11.0187ZM44.2554 11.7623C44.5876 11.7623 44.8789 11.8262 45.1294 11.954C45.3849 12.0818 45.5843 12.276 45.7274 12.5367C45.8705 12.7973 45.9421 13.127 45.9421 13.5257V15.864H45.2061V13.61C45.2061 13.2165 45.1089 12.92 44.9147 12.7207C44.7256 12.5213 44.4573 12.4217 44.1097 12.4217C43.8491 12.4217 43.6216 12.4728 43.4274 12.575C43.2332 12.6772 43.0824 12.828 42.9751 13.0273C42.8728 13.2267 42.8217 13.4746 42.8217 13.771V15.864H42.0857V11.8007H42.7911V12.897L42.6761 12.6057C42.8089 12.3399 43.0134 12.1329 43.2894 11.9847C43.5654 11.8365 43.8874 11.7623 44.2554 11.7623ZM48.7761 17.3973C48.403 17.3973 48.0401 17.3437 47.6875 17.2363C47.3399 17.1341 47.0563 16.9859 46.8365 16.7917L47.1891 16.2243C47.3783 16.3879 47.6108 16.5157 47.8868 16.6077C48.1628 16.7048 48.4516 16.7533 48.7531 16.7533C49.2336 16.7533 49.5863 16.6409 49.8111 16.416C50.036 16.1911 50.1485 15.8487 50.1485 15.3887V14.53L50.2251 13.725L50.1868 12.9123V11.8007H50.8845V15.312C50.8845 16.0276 50.7056 16.554 50.3478 16.8913C49.99 17.2287 49.4661 17.3973 48.7761 17.3973ZM48.6841 15.6953C48.2906 15.6953 47.9379 15.6136 47.6261 15.45C47.3195 15.2813 47.0741 15.0488 46.8901 14.7523C46.7113 14.4559 46.6218 14.1135 46.6218 13.725C46.6218 13.3315 46.7113 12.989 46.8901 12.6977C47.0741 12.4012 47.3195 12.1712 47.6261 12.0077C47.9379 11.8441 48.2906 11.7623 48.6841 11.7623C49.0317 11.7623 49.3486 11.8339 49.6348 11.977C49.921 12.115 50.1485 12.3297 50.3171 12.621C50.4909 12.9123 50.5778 13.2803 50.5778 13.725C50.5778 14.1646 50.4909 14.53 50.3171 14.8213C50.1485 15.1127 49.921 15.3325 49.6348 15.4807C49.3486 15.6238 49.0317 15.6953 48.6841 15.6953ZM48.7685 15.0513C49.0394 15.0513 49.2796 14.9951 49.4891 14.8827C49.6987 14.7702 49.8623 14.6143 49.9798 14.415C50.1025 14.2157 50.1638 13.9857 50.1638 13.725C50.1638 13.4643 50.1025 13.2343 49.9798 13.035C49.8623 12.8357 49.6987 12.6823 49.4891 12.575C49.2796 12.4626 49.0394 12.4063 48.7685 12.4063C48.4976 12.4063 48.2548 12.4626 48.0401 12.575C47.8306 12.6823 47.6645 12.8357 47.5418 13.035C47.4243 13.2343 47.3655 13.4643 47.3655 13.725C47.3655 13.9857 47.4243 14.2157 47.5418 14.415C47.6645 14.6143 47.8306 14.7702 48.0401 14.8827C48.2548 14.9951 48.4976 15.0513 48.7685 15.0513Z" fill="#034592"/>
<path d="M20.7115 28.9307V21.4173H23.8778C24.6792 21.4173 25.3841 21.5748 25.9923 21.8896C26.6077 22.2044 27.0835 22.6445 27.4198 23.2098C27.7633 23.7751 27.935 24.4298 27.935 25.174C27.935 25.9182 27.7633 26.5729 27.4198 27.1382C27.0835 27.7035 26.6077 28.1436 25.9923 28.4584C25.3841 28.7732 24.6792 28.9307 23.8778 28.9307H20.7115ZM21.7848 27.9969H23.8134C24.4359 27.9969 24.9726 27.8788 25.4234 27.6427C25.8814 27.4065 26.2356 27.0774 26.486 26.6552C26.7365 26.2259 26.8617 25.7321 26.8617 25.174C26.8617 24.6087 26.7365 24.115 26.486 23.6928C26.2356 23.2706 25.8814 22.9415 25.4234 22.7053C24.9726 22.4692 24.4359 22.3511 23.8134 22.3511H21.7848V27.9969ZM31.5325 28.9951C30.9243 28.9951 30.3876 28.8698 29.9225 28.6194C29.4646 28.369 29.1068 28.0255 28.8492 27.589C28.5987 27.1525 28.4735 26.6516 28.4735 26.0863C28.4735 25.521 28.5952 25.0202 28.8385 24.5837C29.0889 24.1472 29.4288 23.8073 29.8581 23.564C30.2946 23.3136 30.7848 23.1883 31.3286 23.1883C31.8796 23.1883 32.3661 23.31 32.7883 23.5533C33.2105 23.7966 33.5397 24.14 33.7758 24.5837C34.0191 25.0202 34.1407 25.5318 34.1407 26.1185C34.1407 26.1615 34.1371 26.2116 34.13 26.2688C34.13 26.326 34.1264 26.3797 34.1193 26.4298H29.2785V25.6892H33.5826L33.164 25.9468C33.1711 25.5819 33.096 25.2563 32.9386 24.9701C32.7812 24.6838 32.5629 24.462 32.2839 24.3046C32.0119 24.14 31.6935 24.0577 31.3286 24.0577C30.9708 24.0577 30.6524 24.14 30.3733 24.3046C30.0943 24.462 29.876 24.6874 29.7186 24.9808C29.5612 25.267 29.4825 25.5962 29.4825 25.9683V26.14C29.4825 26.5192 29.5683 26.8591 29.7401 27.1597C29.9189 27.453 30.1658 27.682 30.4807 27.8466C30.7955 28.0112 31.1569 28.0935 31.5647 28.0935C31.901 28.0935 32.2051 28.0362 32.4771 27.9217C32.7561 27.8072 32.9994 27.6355 33.2069 27.4065L33.7758 28.072C33.5182 28.3725 33.1962 28.6015 32.8098 28.7589C32.4305 28.9164 32.0048 28.9951 31.5325 28.9951ZM36.7737 28.9951C36.3014 28.9951 35.8506 28.9307 35.4213 28.8019C34.9991 28.6731 34.6663 28.5156 34.4231 28.3296L34.8524 27.5139C35.0957 27.6784 35.3962 27.818 35.754 27.9325C36.1118 28.047 36.4767 28.1042 36.8488 28.1042C37.3282 28.1042 37.6717 28.0362 37.8792 27.9003C38.0939 27.7643 38.2012 27.5747 38.2012 27.3314C38.2012 27.1525 38.1368 27.013 38.008 26.9128C37.8792 26.8126 37.7075 26.7375 37.4928 26.6874C37.2853 26.6373 37.0527 26.5944 36.7951 26.5586C36.5375 26.5157 36.2799 26.4656 36.0223 26.4083C35.7647 26.3439 35.5286 26.2581 35.3139 26.1507C35.0993 26.0362 34.9275 25.8824 34.7987 25.6892C34.6699 25.4888 34.6055 25.2241 34.6055 24.8949C34.6055 24.5515 34.7021 24.2509 34.8953 23.9933C35.0885 23.7357 35.3604 23.539 35.7111 23.403C36.0688 23.2599 36.491 23.1883 36.9776 23.1883C37.3497 23.1883 37.7253 23.2348 38.1046 23.3279C38.491 23.4137 38.8058 23.539 39.0491 23.7035L38.6091 24.5193C38.3515 24.3475 38.0831 24.2295 37.8041 24.1651C37.525 24.1007 37.2459 24.0685 36.9669 24.0685C36.5161 24.0685 36.1797 24.1436 35.9579 24.2939C35.7361 24.437 35.6252 24.623 35.6252 24.852C35.6252 25.0452 35.6896 25.1955 35.8184 25.3028C35.9543 25.403 36.1261 25.4817 36.3336 25.5389C36.5483 25.5962 36.7844 25.6463 37.042 25.6892C37.2996 25.725 37.5572 25.7751 37.8148 25.8395C38.0724 25.8967 38.3049 25.979 38.5125 26.0863C38.7271 26.1937 38.8989 26.3439 39.0277 26.5371C39.1636 26.7303 39.2316 26.9879 39.2316 27.3099C39.2316 27.6534 39.1314 27.9504 38.9311 28.2008C38.7307 28.4512 38.4481 28.648 38.0831 28.7911C37.7182 28.9271 37.2817 28.9951 36.7737 28.9951ZM40.09 28.9307V23.242H41.1204V28.9307H40.09ZM40.6052 22.1472C40.4048 22.1472 40.2367 22.0828 40.1007 21.954C39.9719 21.8252 39.9075 21.6678 39.9075 21.4817C39.9075 21.2885 39.9719 21.1275 40.1007 20.9987C40.2367 20.8699 40.4048 20.8055 40.6052 20.8055C40.8056 20.8055 40.9701 20.8699 41.0989 20.9987C41.2349 21.1204 41.3029 21.2742 41.3029 21.4603C41.3029 21.6535 41.2385 21.818 41.1097 21.954C40.9809 22.0828 40.8127 22.1472 40.6052 22.1472ZM45.1486 31.0773C44.6262 31.0773 44.1182 31.0022 43.6245 30.8519C43.1379 30.7088 42.7407 30.5013 42.4331 30.2294L42.9268 29.4351C43.1915 29.6641 43.5171 29.843 43.9035 29.9718C44.2899 30.1078 44.6942 30.1757 45.1164 30.1757C45.789 30.1757 46.2827 30.0183 46.5976 29.7035C46.9124 29.3886 47.0699 28.9092 47.0699 28.2652V27.0631L47.1772 25.9361L47.1235 24.7983V23.242H48.1003V28.1579C48.1003 29.1596 47.8498 29.8967 47.3489 30.3689C46.848 30.8412 46.1146 31.0773 45.1486 31.0773ZM45.0198 28.6945C44.4688 28.6945 43.9751 28.58 43.5386 28.3511C43.1093 28.1149 42.7658 27.7894 42.5082 27.3743C42.2577 26.9593 42.1325 26.4799 42.1325 25.9361C42.1325 25.3851 42.2577 24.9057 42.5082 24.4978C42.7658 24.0828 43.1093 23.7608 43.5386 23.5318C43.9751 23.3028 44.4688 23.1883 45.0198 23.1883C45.5064 23.1883 45.95 23.2885 46.3507 23.4889C46.7514 23.6821 47.0699 23.9826 47.306 24.3905C47.5493 24.7983 47.6709 25.3135 47.6709 25.9361C47.6709 26.5514 47.5493 27.0631 47.306 27.4709C47.0699 27.8788 46.7514 28.1865 46.3507 28.394C45.95 28.5944 45.5064 28.6945 45.0198 28.6945ZM45.1379 27.7929C45.5171 27.7929 45.8534 27.7142 46.1468 27.5568C46.4402 27.3994 46.6691 27.1811 46.8337 26.9021C47.0055 26.623 47.0913 26.301 47.0913 25.9361C47.0913 25.5711 47.0055 25.2491 46.8337 24.9701C46.6691 24.691 46.4402 24.4763 46.1468 24.3261C45.8534 24.1686 45.5171 24.0899 45.1379 24.0899C44.7586 24.0899 44.4187 24.1686 44.1182 24.3261C43.8248 24.4763 43.5923 24.691 43.4205 24.9701C43.2559 25.2491 43.1737 25.5711 43.1737 25.9361C43.1737 26.301 43.2559 26.623 43.4205 26.9021C43.5923 27.1811 43.8248 27.3994 44.1182 27.5568C44.4187 27.7142 44.7586 27.7929 45.1379 27.7929ZM52.6773 23.1883C53.1424 23.1883 53.5502 23.2778 53.9009 23.4567C54.2586 23.6356 54.5377 23.9075 54.7381 24.2724C54.9384 24.6373 55.0386 25.0989 55.0386 25.657V28.9307H54.0082V25.7751C54.0082 25.2241 53.8722 24.8091 53.6003 24.53C53.3356 24.2509 52.9599 24.1114 52.4733 24.1114C52.1084 24.1114 51.79 24.183 51.5181 24.3261C51.2462 24.4692 51.0351 24.6803 50.8848 24.9593C50.7417 25.2384 50.6701 25.5854 50.6701 26.0005V28.9307H49.6397V23.242H50.6272V24.7769L50.4662 24.369C50.6522 23.9969 50.9385 23.7071 51.3249 23.4996C51.7113 23.2921 52.1621 23.1883 52.6773 23.1883ZM60.9228 28.9951C60.3504 28.9951 59.9067 28.8412 59.5919 28.5335C59.277 28.2258 59.1196 27.7858 59.1196 27.2133V21.9969H60.15V27.1704C60.15 27.4781 60.2252 27.7142 60.3754 27.8788C60.5328 28.0434 60.7547 28.1257 61.0409 28.1257C61.3629 28.1257 61.6312 28.0362 61.8459 27.8573L62.1679 28.5979C62.0105 28.7339 61.8208 28.8341 61.599 28.8985C61.3844 28.9629 61.159 28.9951 60.9228 28.9951ZM58.1536 24.0899V23.242H61.7815V24.0899H58.1536ZM66.5156 28.9307V27.7285L66.4619 27.5031V25.4531C66.4619 25.0166 66.3331 24.6803 66.0755 24.4441C65.825 24.2008 65.4458 24.0792 64.9378 24.0792C64.6014 24.0792 64.2723 24.1364 63.9503 24.2509C63.6283 24.3583 63.3564 24.505 63.1346 24.691L62.7052 23.9182C62.9986 23.6821 63.3492 23.5032 63.7571 23.3815C64.1721 23.2527 64.605 23.1883 65.0558 23.1883C65.8358 23.1883 66.4368 23.378 66.859 23.7572C67.2812 24.1364 67.4923 24.716 67.4923 25.496V28.9307H66.5156ZM64.648 28.9951C64.2258 28.9951 63.8537 28.9235 63.5317 28.7804C63.2168 28.6373 62.9736 28.4405 62.8018 28.1901C62.6301 27.9325 62.5442 27.6427 62.5442 27.3207C62.5442 27.013 62.6158 26.7339 62.7589 26.4835C62.9092 26.233 63.1489 26.0327 63.478 25.8824C63.8143 25.7321 64.2651 25.657 64.8304 25.657H66.6336V26.3976H64.8734C64.3582 26.3976 64.0111 26.4835 63.8322 26.6552C63.6533 26.8269 63.5639 27.0344 63.5639 27.2777C63.5639 27.5568 63.6748 27.7822 63.8966 27.9539C64.1184 28.1185 64.4261 28.2008 64.8197 28.2008C65.2061 28.2008 65.5424 28.1149 65.8286 27.9432C66.122 27.7715 66.3331 27.521 66.4619 27.1919L66.6658 27.9003C66.5299 28.2366 66.2902 28.5049 65.9467 28.7053C65.6032 28.8985 65.1703 28.9951 64.648 28.9951ZM70.6013 28.9951C70.129 28.9951 69.6782 28.9307 69.2489 28.8019C68.8267 28.6731 68.494 28.5156 68.2507 28.3296L68.68 27.5139C68.9233 27.6784 69.2238 27.818 69.5816 27.9325C69.9394 28.047 70.3043 28.1042 70.6764 28.1042C71.1558 28.1042 71.4993 28.0362 71.7068 27.9003C71.9215 27.7643 72.0288 27.5747 72.0288 27.3314C72.0288 27.1525 71.9644 27.013 71.8356 26.9128C71.7068 26.8126 71.5351 26.7375 71.3204 26.6874C71.1129 26.6373 70.8803 26.5944 70.6227 26.5586C70.3651 26.5157 70.1075 26.4656 69.8499 26.4083C69.5923 26.3439 69.3562 26.2581 69.1415 26.1507C68.9269 26.0362 68.7551 25.8824 68.6263 25.6892C68.4975 25.4888 68.4331 25.2241 68.4331 24.8949C68.4331 24.5515 68.5297 24.2509 68.7229 23.9933C68.9161 23.7357 69.188 23.539 69.5387 23.403C69.8964 23.2599 70.3186 23.1883 70.8052 23.1883C71.1773 23.1883 71.553 23.2348 71.9322 23.3279C72.3186 23.4137 72.6334 23.539 72.8767 23.7035L72.4367 24.5193C72.1791 24.3475 71.9107 24.2295 71.6317 24.1651C71.3526 24.1007 71.0735 24.0685 70.7945 24.0685C70.3437 24.0685 70.0074 24.1436 69.7855 24.2939C69.5637 24.437 69.4528 24.623 69.4528 24.852C69.4528 25.0452 69.5172 25.1955 69.646 25.3028C69.782 25.403 69.9537 25.4817 70.1612 25.5389C70.3759 25.5962 70.612 25.6463 70.8696 25.6892C71.1272 25.725 71.3848 25.7751 71.6424 25.8395C71.9 25.8967 72.1326 25.979 72.3401 26.0863C72.5547 26.1937 72.7265 26.3439 72.8553 26.5371C72.9912 26.7303 73.0592 26.9879 73.0592 27.3099C73.0592 27.6534 72.959 27.9504 72.7587 28.2008C72.5583 28.4512 72.2757 28.648 71.9107 28.7911C71.5458 28.9271 71.1093 28.9951 70.6013 28.9951ZM74.7548 27.5568L74.7763 26.2366L78.0499 23.242H79.295L76.7834 25.7107L76.2253 26.1829L74.7548 27.5568ZM73.9176 28.9307V20.9665H74.948V28.9307H73.9176ZM78.2646 28.9307L76.0321 26.1615L76.6975 25.335L79.5311 28.9307H78.2646ZM85.0348 28.9951C84.4552 28.9951 83.9365 28.8698 83.4785 28.6194C83.0277 28.369 82.6735 28.0255 82.4159 27.589C82.1583 27.1525 82.0295 26.6516 82.0295 26.0863C82.0295 25.521 82.1583 25.0202 82.4159 24.5837C82.6735 24.1472 83.0277 23.8073 83.4785 23.564C83.9365 23.3136 84.4552 23.1883 85.0348 23.1883C85.55 23.1883 86.008 23.2921 86.4087 23.4996C86.8166 23.7 87.1314 24.0005 87.3532 24.4012L86.5697 24.9057C86.3837 24.6266 86.1547 24.4227 85.8828 24.2939C85.618 24.1579 85.3318 24.0899 85.0241 24.0899C84.652 24.0899 84.3193 24.1722 84.0259 24.3368C83.7325 24.5014 83.5 24.7339 83.3282 25.0345C83.1565 25.3278 83.0706 25.6785 83.0706 26.0863C83.0706 26.4942 83.1565 26.8484 83.3282 27.1489C83.5 27.4495 83.7325 27.682 84.0259 27.8466C84.3193 28.0112 84.652 28.0935 85.0241 28.0935C85.3318 28.0935 85.618 28.0291 85.8828 27.9003C86.1547 27.7643 86.3837 27.5568 86.5697 27.2777L87.3532 27.7715C87.1314 28.165 86.8166 28.4691 86.4087 28.6838C86.008 28.8913 85.55 28.9951 85.0348 28.9951ZM90.6105 28.9951C90.0381 28.9951 89.5301 28.8698 89.0864 28.6194C88.6428 28.369 88.2921 28.0255 88.0345 27.589C87.7769 27.1454 87.6481 26.6445 87.6481 26.0863C87.6481 25.521 87.7769 25.0202 88.0345 24.5837C88.2921 24.1472 88.6428 23.8073 89.0864 23.564C89.5301 23.3136 90.0381 23.1883 90.6105 23.1883C91.1758 23.1883 91.6803 23.3136 92.1239 23.564C92.5747 23.8073 92.9254 24.1472 93.1758 24.5837C93.4334 25.013 93.5622 25.5139 93.5622 26.0863C93.5622 26.6516 93.4334 27.1525 93.1758 27.589C92.9254 28.0255 92.5747 28.369 92.1239 28.6194C91.6803 28.8698 91.1758 28.9951 90.6105 28.9951ZM90.6105 28.0935C90.9755 28.0935 91.3011 28.0112 91.5873 27.8466C91.8807 27.682 92.1096 27.4495 92.2742 27.1489C92.4388 26.8412 92.5211 26.487 92.5211 26.0863C92.5211 25.6785 92.4388 25.3278 92.2742 25.0345C92.1096 24.7339 91.8807 24.5014 91.5873 24.3368C91.3011 24.1722 90.9755 24.0899 90.6105 24.0899C90.2456 24.0899 89.92 24.1722 89.6338 24.3368C89.3476 24.5014 89.1186 24.7339 88.9469 25.0345C88.7751 25.3278 88.6893 25.6785 88.6893 26.0863C88.6893 26.487 88.7751 26.8412 88.9469 27.1489C89.1186 27.4495 89.3476 27.682 89.6338 27.8466C89.92 28.0112 90.2456 28.0935 90.6105 28.0935ZM101.674 23.1883C102.132 23.1883 102.536 23.2778 102.887 23.4567C103.238 23.6356 103.509 23.9075 103.703 24.2724C103.903 24.6373 104.003 25.0989 104.003 25.657V28.9307H102.973V25.7751C102.973 25.2241 102.844 24.8091 102.586 24.53C102.329 24.2509 101.967 24.1114 101.502 24.1114C101.159 24.1114 100.858 24.183 100.601 24.3261C100.343 24.4692 100.143 24.6803 99.9997 24.9593C99.8637 25.2384 99.7958 25.5854 99.7958 26.0005V28.9307H98.7654V25.7751C98.7654 25.2241 98.6366 24.8091 98.379 24.53C98.1285 24.2509 97.7672 24.1114 97.2949 24.1114C96.9586 24.1114 96.6616 24.183 96.404 24.3261C96.1464 24.4692 95.9461 24.6803 95.803 24.9593C95.6599 25.2384 95.5883 25.5854 95.5883 26.0005V28.9307H94.5579V23.242H95.5454V24.7554L95.3844 24.369C95.5633 23.9969 95.8387 23.7071 96.2108 23.4996C96.5829 23.2921 97.0158 23.1883 97.5096 23.1883C98.0534 23.1883 98.5221 23.3243 98.9156 23.5962C99.3092 23.861 99.5668 24.2652 99.6884 24.8091L99.2698 24.6373C99.4416 24.2008 99.7421 23.8502 100.171 23.5855C100.601 23.3207 101.102 23.1883 101.674 23.1883ZM105.717 28.9951C105.516 28.9951 105.345 28.9271 105.202 28.7911C105.058 28.648 104.987 28.4691 104.987 28.2545C104.987 28.0398 105.058 27.8645 105.202 27.7285C105.345 27.5926 105.516 27.5246 105.717 27.5246C105.91 27.5246 106.074 27.5926 106.21 27.7285C106.354 27.8645 106.425 28.0398 106.425 28.2545C106.425 28.4691 106.354 28.648 106.21 28.7911C106.074 28.9271 105.91 28.9951 105.717 28.9951ZM108.207 28.9951C108.006 28.9951 107.835 28.9271 107.692 28.7911C107.549 28.648 107.477 28.4691 107.477 28.2545C107.477 28.0398 107.549 27.8645 107.692 27.7285C107.835 27.5926 108.006 27.5246 108.207 27.5246C108.4 27.5246 108.565 27.5926 108.701 27.7285C108.844 27.8645 108.915 28.0398 108.915 28.2545C108.915 28.4691 108.844 28.648 108.701 28.7911C108.565 28.9271 108.4 28.9951 108.207 28.9951ZM110.697 28.9951C110.497 28.9951 110.325 28.9271 110.182 28.7911C110.039 28.648 109.967 28.4691 109.967 28.2545C109.967 28.0398 110.039 27.8645 110.182 27.7285C110.325 27.5926 110.497 27.5246 110.697 27.5246C110.89 27.5246 111.055 27.5926 111.191 27.7285C111.334 27.8645 111.405 28.0398 111.405 28.2545C111.405 28.4691 111.334 28.648 111.191 28.7911C111.055 28.9271 110.89 28.9951 110.697 28.9951Z" fill="#1E1E1E"/>
<path d="M20.5071 51.1974V44.9598L20.7187 45.1806H18.9339V44.7574H20.9763V51.1974H20.5071ZM22.6464 47.1402C22.5422 47.1402 22.4502 47.1034 22.3704 47.0298C22.2968 46.9501 22.26 46.855 22.26 46.7446C22.26 46.6342 22.2968 46.5422 22.3704 46.4686C22.4502 46.395 22.5422 46.3582 22.6464 46.3582C22.7507 46.3582 22.8396 46.395 22.9132 46.4686C22.993 46.5422 23.0328 46.6342 23.0328 46.7446C23.0328 46.855 22.993 46.9501 22.9132 47.0298C22.8396 47.1034 22.7507 47.1402 22.6464 47.1402ZM22.6464 51.2342C22.5422 51.2342 22.4502 51.1974 22.3704 51.1238C22.2968 51.0441 22.26 50.949 22.26 50.8386C22.26 50.7282 22.2968 50.6362 22.3704 50.5626C22.4502 50.489 22.5422 50.4522 22.6464 50.4522C22.7507 50.4522 22.8396 50.489 22.9132 50.5626C22.993 50.6362 23.0328 50.7282 23.0328 50.8386C23.0328 50.949 22.993 51.0441 22.9132 51.1238C22.8396 51.1974 22.7507 51.2342 22.6464 51.2342ZM25.5922 51.2434C25.12 51.2434 24.6784 51.1637 24.2674 51.0042C23.8626 50.8447 23.5468 50.6362 23.3198 50.3786L23.559 50.0198C23.7553 50.2467 24.0313 50.4369 24.387 50.5902C24.7489 50.7374 25.1506 50.811 25.5922 50.811C26.1688 50.811 26.6073 50.6822 26.9078 50.4246C27.2145 50.167 27.3678 49.8205 27.3678 49.385C27.3678 48.9557 27.2145 48.6122 26.9078 48.3546C26.6073 48.0909 26.135 47.959 25.491 47.959H25.0862V47.6186L27.1378 44.9966L27.2022 45.1806H23.559V44.7574H27.5978V45.0886L25.5554 47.7106L25.353 47.5634H25.5554C26.3221 47.5634 26.8956 47.7321 27.2758 48.0694C27.6561 48.4067 27.8462 48.8453 27.8462 49.385C27.8462 49.7407 27.7604 50.0597 27.5886 50.3418C27.423 50.6239 27.1716 50.8447 26.8342 51.0042C26.503 51.1637 26.089 51.2434 25.5922 51.2434ZM30.9891 51.2434C30.4984 51.2434 30.063 51.1115 29.6827 50.8478C29.3024 50.5841 29.005 50.2099 28.7903 49.7254C28.5756 49.2347 28.4683 48.6521 28.4683 47.9774C28.4683 47.3027 28.5756 46.7231 28.7903 46.2386C29.005 45.7479 29.3024 45.3707 29.6827 45.107C30.063 44.8433 30.4984 44.7114 30.9891 44.7114C31.4859 44.7114 31.9214 44.8433 32.2955 45.107C32.6758 45.3707 32.9732 45.7479 33.1879 46.2386C33.4026 46.7231 33.5099 47.3027 33.5099 47.9774C33.5099 48.6521 33.4026 49.2347 33.1879 49.7254C32.9732 50.2099 32.6758 50.5841 32.2955 50.8478C31.9214 51.1115 31.4859 51.2434 30.9891 51.2434ZM30.9891 50.811C31.4 50.811 31.7588 50.7006 32.0655 50.4798C32.3722 50.2529 32.6114 49.9278 32.7831 49.5046C32.9548 49.0814 33.0407 48.5723 33.0407 47.9774C33.0407 47.3763 32.9548 46.8673 32.7831 46.4502C32.6114 46.027 32.3722 45.705 32.0655 45.4842C31.7588 45.2573 31.4 45.1438 30.9891 45.1438C30.5843 45.1438 30.2255 45.2573 29.9127 45.4842C29.606 45.705 29.3668 46.027 29.1951 46.4502C29.0234 46.8673 28.9375 47.3763 28.9375 47.9774C28.9375 48.5723 29.0234 49.0814 29.1951 49.5046C29.3668 49.9278 29.606 50.2529 29.9127 50.4798C30.2255 50.7006 30.5843 50.811 30.9891 50.811ZM35.9191 51.2281C35.6411 51.2281 35.3896 51.1647 35.1647 51.0379C34.9398 50.9071 34.7599 50.721 34.625 50.4798C34.4941 50.2345 34.4287 49.936 34.4287 49.5843C34.4287 49.2327 34.4941 48.9362 34.625 48.695C34.7558 48.4497 34.9337 48.2636 35.1586 48.1369C35.3835 48.0101 35.637 47.9467 35.9191 47.9467C36.2258 47.9467 36.4997 48.0162 36.741 48.1553C36.9863 48.2902 37.1785 48.4824 37.3175 48.7318C37.4565 48.9771 37.526 49.2613 37.526 49.5843C37.526 49.9114 37.4565 50.1977 37.3175 50.443C37.1785 50.6883 36.9863 50.8805 36.741 51.0195C36.4997 51.1585 36.2258 51.2281 35.9191 51.2281ZM34.257 52.3873V47.9774H34.674V48.9465L34.6311 49.5905L34.6924 50.2406V52.3873H34.257ZM35.8884 50.8417C36.1174 50.8417 36.3219 50.7905 36.5018 50.6883C36.6817 50.582 36.8248 50.4348 36.9311 50.2467C37.0374 50.0545 37.0906 49.8337 37.0906 49.5843C37.0906 49.3349 37.0374 49.1161 36.9311 48.9281C36.8248 48.74 36.6817 48.5928 36.5018 48.4865C36.3219 48.3801 36.1174 48.327 35.8884 48.327C35.6595 48.327 35.453 48.3801 35.269 48.4865C35.0891 48.5928 34.946 48.74 34.8396 48.9281C34.7374 49.1161 34.6863 49.3349 34.6863 49.5843C34.6863 49.8337 34.7374 50.0545 34.8396 50.2467C34.946 50.4348 35.0891 50.582 35.269 50.6883C35.453 50.7905 35.6595 50.8417 35.8884 50.8417ZM42.1919 47.9467C42.4536 47.9467 42.6805 47.9978 42.8727 48.1001C43.0689 48.1982 43.2202 48.3495 43.3265 48.5539C43.4369 48.7584 43.4921 49.016 43.4921 49.3267V51.1974H43.0567V49.3697C43.0567 49.0303 42.9749 48.7747 42.8113 48.603C42.6519 48.4272 42.4249 48.3393 42.1305 48.3393C41.9097 48.3393 41.7176 48.3863 41.554 48.4803C41.3945 48.5703 41.2698 48.7032 41.1799 48.879C41.094 49.0507 41.0511 49.2593 41.0511 49.5046V51.1974H40.6156V49.3697C40.6156 49.0303 40.5338 48.7747 40.3703 48.603C40.2067 48.4272 39.9777 48.3393 39.6833 48.3393C39.4666 48.3393 39.2765 48.3863 39.1129 48.4803C38.9494 48.5703 38.8226 48.7032 38.7327 48.879C38.6468 49.0507 38.6039 49.2593 38.6039 49.5046V51.1974H38.1684V47.9774H38.5855V48.8483L38.518 48.695C38.6161 48.4619 38.7736 48.28 38.9903 48.1491C39.2111 48.0142 39.4707 47.9467 39.7692 47.9467C40.0841 47.9467 40.3519 48.0265 40.5727 48.1859C40.7935 48.3413 40.9366 48.5764 41.002 48.8913L40.8303 48.8238C40.9243 48.5621 41.0899 48.3515 41.3271 48.1921C41.5683 48.0285 41.8566 47.9467 42.1919 47.9467Z" fill="#1E1E1E"/>
<path d="M24.7354 65.4074C24.3163 65.4074 23.9151 65.3486 23.5317 65.231C23.1484 65.1084 22.8443 64.9525 22.6194 64.7634L22.9644 63.989C23.1791 64.1577 23.4449 64.2982 23.7617 64.4107C24.0786 64.5231 24.4032 64.5794 24.7354 64.5794C25.0165 64.5794 25.244 64.5487 25.4177 64.4874C25.5915 64.426 25.7193 64.3442 25.8011 64.242C25.8829 64.1347 25.9237 64.0146 25.9237 63.8817C25.9237 63.7181 25.865 63.5878 25.7474 63.4907C25.6299 63.3885 25.4765 63.3092 25.2874 63.253C25.1034 63.1917 24.8964 63.1355 24.6664 63.0844C24.4415 63.0332 24.2141 62.9745 23.9841 62.908C23.7592 62.8365 23.5522 62.747 23.3631 62.6397C23.1791 62.5272 23.0283 62.379 22.9107 62.195C22.7932 62.011 22.7344 61.7759 22.7344 61.4897C22.7344 61.1984 22.8111 60.9326 22.9644 60.6924C23.1229 60.447 23.3605 60.2528 23.6774 60.1097C23.9994 59.9615 24.4057 59.8874 24.8964 59.8874C25.2184 59.8874 25.5379 59.9282 25.8547 60.01C26.1716 60.0918 26.4476 60.2094 26.6827 60.3627L26.3684 61.137C26.1282 60.9939 25.8803 60.8891 25.6247 60.8227C25.3692 60.7511 25.1239 60.7154 24.8887 60.7154C24.6127 60.7154 24.3879 60.7486 24.2141 60.815C24.0454 60.8815 23.9202 60.9684 23.8384 61.0757C23.7617 61.183 23.7234 61.3057 23.7234 61.4437C23.7234 61.6072 23.7796 61.7401 23.8921 61.8424C24.0096 61.9395 24.1604 62.0161 24.3444 62.0724C24.5335 62.1286 24.7431 62.1848 24.9731 62.241C25.2031 62.2921 25.4305 62.3509 25.6554 62.4174C25.8854 62.4838 26.0924 62.5707 26.2764 62.678C26.4655 62.7854 26.6163 62.931 26.7287 63.115C26.8463 63.299 26.9051 63.5316 26.9051 63.8127C26.9051 64.0989 26.8259 64.3647 26.6674 64.61C26.5141 64.8502 26.2764 65.0445 25.9544 65.1927C25.6324 65.3358 25.2261 65.4074 24.7354 65.4074ZM29.0357 65.3844C28.5859 65.3844 28.2384 65.2694 27.993 65.0394C27.7477 64.8042 27.625 64.4592 27.625 64.0044V60.332H28.5834V63.9814C28.5834 64.1756 28.6319 64.3264 28.729 64.4337C28.8312 64.541 28.9718 64.5947 29.1507 64.5947C29.3654 64.5947 29.5442 64.5385 29.6874 64.426L29.9557 65.1084C29.8432 65.2004 29.7052 65.2694 29.5417 65.3154C29.3781 65.3614 29.2095 65.3844 29.0357 65.3844ZM26.9504 62.034V61.2674H29.6797V62.034H26.9504ZM32.9597 65.3307V64.5027L32.906 64.3264V62.8774C32.906 62.5962 32.8217 62.379 32.653 62.2257C32.4844 62.0672 32.2288 61.988 31.8864 61.988C31.6564 61.988 31.4289 62.0238 31.204 62.0954C30.9843 62.1669 30.7977 62.2666 30.6444 62.3944L30.2687 61.6967C30.4885 61.528 30.7491 61.4028 31.0507 61.321C31.3574 61.2341 31.6743 61.1907 32.0014 61.1907C32.5943 61.1907 33.0517 61.3338 33.3737 61.62C33.7008 61.9011 33.8644 62.3381 33.8644 62.931V65.3307H32.9597ZM31.6717 65.3844C31.365 65.3844 31.0967 65.3332 30.8667 65.231C30.6367 65.1237 30.4578 64.978 30.33 64.794C30.2074 64.6049 30.146 64.3928 30.146 64.1577C30.146 63.9277 30.1997 63.7207 30.307 63.5367C30.4195 63.3527 30.6009 63.207 30.8514 63.0997C31.1018 62.9924 31.434 62.9387 31.848 62.9387H33.0364V63.575H31.917C31.5899 63.575 31.3701 63.6287 31.2577 63.736C31.1453 63.8382 31.089 63.966 31.089 64.1194C31.089 64.2931 31.158 64.4311 31.296 64.5334C31.434 64.6356 31.6257 64.6867 31.871 64.6867C32.1061 64.6867 32.3157 64.633 32.4997 64.5257C32.6888 64.4184 32.8243 64.2599 32.906 64.0504L33.067 64.6254C32.975 64.8656 32.8089 65.0521 32.5687 65.185C32.3336 65.3179 32.0346 65.3844 31.6717 65.3844ZM34.7876 65.3307V61.2367H35.6999V62.3637L35.5926 62.034C35.7153 61.758 35.9069 61.5485 36.1676 61.4054C36.4334 61.2622 36.763 61.1907 37.1566 61.1907V62.103C37.1157 62.0928 37.0774 62.0877 37.0416 62.0877C37.0058 62.0826 36.97 62.08 36.9343 62.08C36.5714 62.08 36.2826 62.1874 36.0679 62.402C35.8533 62.6116 35.7459 62.9259 35.7459 63.345V65.3307H34.7876ZM39.3536 65.3844C38.9039 65.3844 38.5563 65.2694 38.311 65.0394C38.0656 64.8042 37.943 64.4592 37.943 64.0044V60.332H38.9013V63.9814C38.9013 64.1756 38.9499 64.3264 39.047 64.4337C39.1492 64.541 39.2898 64.5947 39.4686 64.5947C39.6833 64.5947 39.8622 64.5385 40.0053 64.426L40.2736 65.1084C40.1612 65.2004 40.0232 65.2694 39.8596 65.3154C39.6961 65.3614 39.5274 65.3844 39.3536 65.3844ZM37.2683 62.034V61.2674H39.9976V62.034H37.2683Z" fill="#3D89DF"/>
<path d="M48.1314 51.1974L50.965 44.9782L51.1306 45.1806H47.0182L47.2574 44.9598V46.4134H46.7974V44.7574H51.4158V45.0886L48.6466 51.1974H48.1314ZM52.2026 47.1402C52.0984 47.1402 52.0064 47.1034 51.9266 47.0298C51.853 46.9501 51.8162 46.855 51.8162 46.7446C51.8162 46.6342 51.853 46.5422 51.9266 46.4686C52.0064 46.395 52.0984 46.3582 52.2026 46.3582C52.3069 46.3582 52.3958 46.395 52.4694 46.4686C52.5492 46.5422 52.589 46.6342 52.589 46.7446C52.589 46.855 52.5492 46.9501 52.4694 47.0298C52.3958 47.1034 52.3069 47.1402 52.2026 47.1402ZM52.2026 51.2342C52.0984 51.2342 52.0064 51.1974 51.9266 51.1238C51.853 51.0441 51.8162 50.949 51.8162 50.8386C51.8162 50.7282 51.853 50.6362 51.9266 50.5626C52.0064 50.489 52.0984 50.4522 52.2026 50.4522C52.3069 50.4522 52.3958 50.489 52.4694 50.5626C52.5492 50.6362 52.589 50.7282 52.589 50.8386C52.589 50.949 52.5492 51.0441 52.4694 51.1238C52.3958 51.1974 52.3069 51.2342 52.2026 51.2342ZM55.7832 51.2434C55.2926 51.2434 54.8571 51.1115 54.4768 50.8478C54.0966 50.5841 53.7991 50.2099 53.5844 49.7254C53.3698 49.2347 53.2624 48.6521 53.2624 47.9774C53.2624 47.3027 53.3698 46.7231 53.5844 46.2386C53.7991 45.7479 54.0966 45.3707 54.4768 45.107C54.8571 44.8433 55.2926 44.7114 55.7832 44.7114C56.28 44.7114 56.7155 44.8433 57.0896 45.107C57.4699 45.3707 57.7674 45.7479 57.982 46.2386C58.1967 46.7231 58.304 47.3027 58.304 47.9774C58.304 48.6521 58.1967 49.2347 57.982 49.7254C57.7674 50.2099 57.4699 50.5841 57.0896 50.8478C56.7155 51.1115 56.28 51.2434 55.7832 51.2434ZM55.7832 50.811C56.1942 50.811 56.553 50.7006 56.8596 50.4798C57.1663 50.2529 57.4055 49.9278 57.5772 49.5046C57.749 49.0814 57.8348 48.5723 57.8348 47.9774C57.8348 47.3763 57.749 46.8673 57.5772 46.4502C57.4055 46.027 57.1663 45.705 56.8596 45.4842C56.553 45.2573 56.1942 45.1438 55.7832 45.1438C55.3784 45.1438 55.0196 45.2573 54.7068 45.4842C54.4002 45.705 54.161 46.027 53.9892 46.4502C53.8175 46.8673 53.7316 47.3763 53.7316 47.9774C53.7316 48.5723 53.8175 49.0814 53.9892 49.5046C54.161 49.9278 54.4002 50.2529 54.7068 50.4798C55.0196 50.7006 55.3784 50.811 55.7832 50.811ZM61.4707 51.2434C60.98 51.2434 60.5446 51.1115 60.1643 50.8478C59.784 50.5841 59.4866 50.2099 59.2719 49.7254C59.0572 49.2347 58.9499 48.6521 58.9499 47.9774C58.9499 47.3027 59.0572 46.7231 59.2719 46.2386C59.4866 45.7479 59.784 45.3707 60.1643 45.107C60.5446 44.8433 60.98 44.7114 61.4707 44.7114C61.9675 44.7114 62.403 44.8433 62.7771 45.107C63.1574 45.3707 63.4548 45.7479 63.6695 46.2386C63.8842 46.7231 63.9915 47.3027 63.9915 47.9774C63.9915 48.6521 63.8842 49.2347 63.6695 49.7254C63.4548 50.2099 63.1574 50.5841 62.7771 50.8478C62.403 51.1115 61.9675 51.2434 61.4707 51.2434ZM61.4707 50.811C61.8816 50.811 62.2404 50.7006 62.5471 50.4798C62.8538 50.2529 63.093 49.9278 63.2647 49.5046C63.4364 49.0814 63.5223 48.5723 63.5223 47.9774C63.5223 47.3763 63.4364 46.8673 63.2647 46.4502C63.093 46.027 62.8538 45.705 62.5471 45.4842C62.2404 45.2573 61.8816 45.1438 61.4707 45.1438C61.0659 45.1438 60.7071 45.2573 60.3943 45.4842C60.0876 45.705 59.8484 46.027 59.6767 46.4502C59.505 46.8673 59.4191 47.3763 59.4191 47.9774C59.4191 48.5723 59.505 49.0814 59.6767 49.5046C59.8484 49.9278 60.0876 50.2529 60.3943 50.4798C60.7071 50.7006 61.0659 50.811 61.4707 50.811ZM66.4007 51.2281C66.1227 51.2281 65.8712 51.1647 65.6463 51.0379C65.4214 50.9071 65.2415 50.721 65.1066 50.4798C64.9757 50.2345 64.9103 49.936 64.9103 49.5843C64.9103 49.2327 64.9757 48.9362 65.1066 48.695C65.2374 48.4497 65.4153 48.2636 65.6402 48.1369C65.8651 48.0101 66.1186 47.9467 66.4007 47.9467C66.7074 47.9467 66.9813 48.0162 67.2226 48.1553C67.4679 48.2902 67.6601 48.4824 67.7991 48.7318C67.9381 48.9771 68.0076 49.2613 68.0076 49.5843C68.0076 49.9114 67.9381 50.1977 67.7991 50.443C67.6601 50.6883 67.4679 50.8805 67.2226 51.0195C66.9813 51.1585 66.7074 51.2281 66.4007 51.2281ZM64.7386 52.3873V47.9774H65.1556V48.9465L65.1127 49.5905L65.174 50.2406V52.3873H64.7386ZM66.37 50.8417C66.599 50.8417 66.8035 50.7905 66.9834 50.6883C67.1633 50.582 67.3064 50.4348 67.4127 50.2467C67.519 50.0545 67.5722 49.8337 67.5722 49.5843C67.5722 49.3349 67.519 49.1161 67.4127 48.9281C67.3064 48.74 67.1633 48.5928 66.9834 48.4865C66.8035 48.3801 66.599 48.327 66.37 48.327C66.1411 48.327 65.9346 48.3801 65.7506 48.4865C65.5707 48.5928 65.4275 48.74 65.3212 48.9281C65.219 49.1161 65.1679 49.3349 65.1679 49.5843C65.1679 49.8337 65.219 50.0545 65.3212 50.2467C65.4275 50.4348 65.5707 50.582 65.7506 50.6883C65.9346 50.7905 66.1411 50.8417 66.37 50.8417ZM72.6735 47.9467C72.9352 47.9467 73.1621 47.9978 73.3543 48.1001C73.5505 48.1982 73.7018 48.3495 73.8081 48.5539C73.9185 48.7584 73.9737 49.016 73.9737 49.3267V51.1974H73.5383V49.3697C73.5383 49.0303 73.4565 48.7747 73.2929 48.603C73.1335 48.4272 72.9065 48.3393 72.6121 48.3393C72.3913 48.3393 72.1992 48.3863 72.0356 48.4803C71.8761 48.5703 71.7514 48.7032 71.6615 48.879C71.5756 49.0507 71.5327 49.2593 71.5327 49.5046V51.1974H71.0972V49.3697C71.0972 49.0303 71.0154 48.7747 70.8519 48.603C70.6883 48.4272 70.4593 48.3393 70.1649 48.3393C69.9482 48.3393 69.7581 48.3863 69.5945 48.4803C69.431 48.5703 69.3042 48.7032 69.2143 48.879C69.1284 49.0507 69.0855 49.2593 69.0855 49.5046V51.1974H68.65V47.9774H69.0671V48.8483L68.9996 48.695C69.0977 48.4619 69.2552 48.28 69.4719 48.1491C69.6927 48.0142 69.9523 47.9467 70.2508 47.9467C70.5657 47.9467 70.8335 48.0265 71.0543 48.1859C71.2751 48.3413 71.4182 48.5764 71.4836 48.8913L71.3119 48.8238C71.4059 48.5621 71.5715 48.3515 71.8087 48.1921C72.0499 48.0285 72.3382 47.9467 72.6735 47.9467Z" fill="#1E1E1E"/>
<path d="M51.1176 62.4327H53.7933V63.276H51.1176V62.4327ZM51.202 65.3307H50.2053V59.964H54.123V60.7997H51.202V65.3307ZM54.6881 65.3307V61.2367H55.6465V65.3307H54.6881ZM55.1711 60.562C54.9922 60.562 54.844 60.5058 54.7265 60.3934C54.614 60.2809 54.5578 60.1455 54.5578 59.987C54.5578 59.8235 54.614 59.688 54.7265 59.5807C54.844 59.4682 54.9922 59.412 55.1711 59.412C55.35 59.412 55.4957 59.4657 55.6081 59.573C55.7257 59.6752 55.7845 59.8056 55.7845 59.964C55.7845 60.1327 55.7282 60.2758 55.6158 60.3934C55.5034 60.5058 55.3551 60.562 55.1711 60.562ZM58.9206 61.1907C59.2477 61.1907 59.5391 61.2546 59.7946 61.3824C60.0553 61.5101 60.2597 61.7069 60.4079 61.9727C60.5562 62.2334 60.6303 62.5707 60.6303 62.9847V65.3307H59.6719V63.1074C59.6719 62.7445 59.5851 62.4736 59.4113 62.2947C59.2426 62.1158 59.0049 62.0264 58.6983 62.0264C58.4734 62.0264 58.2741 62.0724 58.1003 62.1644C57.9265 62.2564 57.7911 62.3944 57.6939 62.5784C57.6019 62.7572 57.5559 62.9847 57.5559 63.2607V65.3307H56.5976V61.2367H57.5099V62.3407L57.3489 62.0034C57.4921 61.7427 57.6991 61.5434 57.9699 61.4054C58.2459 61.2622 58.5628 61.1907 58.9206 61.1907ZM61.5393 65.3307V61.2367H62.4976V65.3307H61.5393ZM62.0223 60.562C61.8434 60.562 61.6952 60.5058 61.5776 60.3934C61.4652 60.2809 61.409 60.1455 61.409 59.987C61.409 59.8235 61.4652 59.688 61.5776 59.5807C61.6952 59.4682 61.8434 59.412 62.0223 59.412C62.2012 59.412 62.3469 59.4657 62.4593 59.573C62.5769 59.6752 62.6356 59.8056 62.6356 59.964C62.6356 60.1327 62.5794 60.2758 62.467 60.3934C62.3545 60.5058 62.2063 60.562 62.0223 60.562ZM64.7138 65.3844C64.3713 65.3844 64.0417 65.3409 63.7248 65.254C63.413 65.162 63.1651 65.0521 62.9811 64.9244L63.3491 64.196C63.5331 64.3136 63.7529 64.4107 64.0085 64.4874C64.264 64.564 64.5196 64.6024 64.7751 64.6024C65.0767 64.6024 65.2939 64.5615 65.4268 64.4797C65.5648 64.3979 65.6338 64.288 65.6338 64.15C65.6338 64.0376 65.5878 63.9532 65.4958 63.897C65.4038 63.8357 65.2837 63.7897 65.1355 63.759C64.9872 63.7284 64.8211 63.7002 64.6371 63.6747C64.4582 63.6491 64.2768 63.6159 64.0928 63.575C63.9139 63.529 63.7503 63.4651 63.6021 63.3834C63.4539 63.2965 63.3338 63.1815 63.2418 63.0384C63.1498 62.8952 63.1038 62.7061 63.1038 62.471C63.1038 62.2104 63.1779 61.9855 63.3261 61.7964C63.4743 61.6021 63.6813 61.4539 63.9471 61.3517C64.218 61.2444 64.5375 61.1907 64.9055 61.1907C65.1815 61.1907 65.46 61.2214 65.7411 61.2827C66.0222 61.344 66.2548 61.4309 66.4388 61.5434L66.0708 62.2717C65.8766 62.1541 65.6798 62.0749 65.4805 62.034C65.2862 61.988 65.092 61.965 64.8978 61.965C64.6065 61.965 64.3892 62.0085 64.2461 62.0954C64.1081 62.1822 64.0391 62.2921 64.0391 62.425C64.0391 62.5477 64.0851 62.6397 64.1771 62.701C64.2691 62.7624 64.3892 62.8109 64.5375 62.8467C64.6857 62.8825 64.8492 62.9131 65.0281 62.9387C65.2121 62.9591 65.3936 62.9924 65.5725 63.0384C65.7513 63.0844 65.9149 63.1482 66.0631 63.23C66.2165 63.3067 66.3391 63.4166 66.4311 63.5597C66.5231 63.7028 66.5691 63.8894 66.5691 64.1194C66.5691 64.3749 66.4925 64.5972 66.3391 64.7864C66.1909 64.9755 65.9788 65.1237 65.7028 65.231C65.4268 65.3332 65.0971 65.3844 64.7138 65.3844ZM69.4108 61.1907C69.7379 61.1907 70.0292 61.2546 70.2848 61.3824C70.5454 61.5101 70.7499 61.7069 70.8981 61.9727C71.0463 62.2334 71.1204 62.5707 71.1204 62.9847V65.3307H70.1621V63.1074C70.1621 62.7445 70.0752 62.4736 69.9014 62.2947C69.7328 62.1158 69.4951 62.0264 69.1884 62.0264C68.9635 62.0264 68.7642 62.0724 68.5904 62.1644C68.4167 62.2564 68.2812 62.3944 68.1841 62.5784C68.0921 62.7572 68.0461 62.9847 68.0461 63.2607V65.3307H67.0878V59.642H68.0461V62.3407L67.8391 62.0034C67.9822 61.7427 68.1892 61.5434 68.4601 61.4054C68.7361 61.2622 69.053 61.1907 69.4108 61.1907Z" fill="#3D89DF"/>
<path d="M85.2262 51.2342C84.7416 51.2342 84.3092 51.1023 83.929 50.8386C83.5548 50.5687 83.2635 50.1915 83.055 49.707C82.8464 49.2163 82.7422 48.6398 82.7422 47.9774C82.7422 47.315 82.8464 46.7415 83.055 46.257C83.2635 45.7663 83.5548 45.3891 83.929 45.1254C84.3092 44.8555 84.7416 44.7206 85.2262 44.7206C85.723 44.7206 86.1554 44.8555 86.5234 45.1254C86.8975 45.3891 87.1888 45.7663 87.3974 46.257C87.6059 46.7415 87.7102 47.315 87.7102 47.9774C87.7102 48.6398 87.6059 49.2163 87.3974 49.707C87.1888 50.1915 86.8975 50.5687 86.5234 50.8386C86.1554 51.1023 85.723 51.2342 85.2262 51.2342ZM85.2262 50.949C85.6616 50.949 86.0419 50.8294 86.367 50.5902C86.692 50.351 86.9466 50.0106 87.1306 49.569C87.3146 49.1213 87.4066 48.5907 87.4066 47.9774C87.4066 47.3579 87.3146 46.8274 87.1306 46.3858C86.9466 45.9442 86.692 45.6038 86.367 45.3646C86.0419 45.1254 85.6616 45.0058 85.2262 45.0058C84.7968 45.0058 84.4166 45.1254 84.0854 45.3646C83.7603 45.6038 83.5058 45.9442 83.3218 46.3858C83.1439 46.8274 83.055 47.3579 83.055 47.9774C83.055 48.5907 83.1439 49.1213 83.3218 49.569C83.5058 50.0106 83.7603 50.351 84.0854 50.5902C84.4166 50.8294 84.7968 50.949 85.2262 50.949ZM88.6624 51.225C88.5827 51.225 88.5122 51.1974 88.4508 51.1422C88.3895 51.0809 88.3588 51.0073 88.3588 50.9214C88.3588 50.8355 88.3895 50.765 88.4508 50.7098C88.5122 50.6485 88.5827 50.6178 88.6624 50.6178C88.7483 50.6178 88.8188 50.6485 88.874 50.7098C88.9354 50.765 88.966 50.8355 88.966 50.9214C88.966 51.0073 88.9354 51.0809 88.874 51.1422C88.8188 51.1974 88.7483 51.225 88.6624 51.225ZM92.091 51.2342C91.6064 51.2342 91.174 51.1023 90.7938 50.8386C90.4196 50.5687 90.1283 50.1915 89.9198 49.707C89.7112 49.2163 89.607 48.6398 89.607 47.9774C89.607 47.315 89.7112 46.7415 89.9198 46.257C90.1283 45.7663 90.4196 45.3891 90.7938 45.1254C91.174 44.8555 91.6064 44.7206 92.091 44.7206C92.5878 44.7206 93.0202 44.8555 93.3882 45.1254C93.7623 45.3891 94.0536 45.7663 94.2622 46.257C94.4707 46.7415 94.575 47.315 94.575 47.9774C94.575 48.6398 94.4707 49.2163 94.2622 49.707C94.0536 50.1915 93.7623 50.5687 93.3882 50.8386C93.0202 51.1023 92.5878 51.2342 92.091 51.2342ZM92.091 50.949C92.5264 50.949 92.9067 50.8294 93.2318 50.5902C93.5568 50.351 93.8114 50.0106 93.9954 49.569C94.1794 49.1213 94.2714 48.5907 94.2714 47.9774C94.2714 47.3579 94.1794 46.8274 93.9954 46.3858C93.8114 45.9442 93.5568 45.6038 93.2318 45.3646C92.9067 45.1254 92.5264 45.0058 92.091 45.0058C91.6616 45.0058 91.2814 45.1254 90.9502 45.3646C90.6251 45.6038 90.3706 45.9442 90.1866 46.3858C90.0087 46.8274 89.9198 47.3579 89.9198 47.9774C89.9198 48.5907 90.0087 49.1213 90.1866 49.569C90.3706 50.0106 90.6251 50.351 90.9502 50.5902C91.2814 50.8294 91.6616 50.949 92.091 50.949ZM97.7515 51.2342C97.2669 51.2342 96.8345 51.1023 96.4543 50.8386C96.0801 50.5687 95.7888 50.1915 95.5803 49.707C95.3717 49.2163 95.2675 48.6398 95.2675 47.9774C95.2675 47.315 95.3717 46.7415 95.5803 46.257C95.7888 45.7663 96.0801 45.3891 96.4543 45.1254C96.8345 44.8555 97.2669 44.7206 97.7515 44.7206C98.2483 44.7206 98.6807 44.8555 99.0487 45.1254C99.4228 45.3891 99.7141 45.7663 99.9227 46.257C100.131 46.7415 100.235 47.315 100.235 47.9774C100.235 48.6398 100.131 49.2163 99.9227 49.707C99.7141 50.1915 99.4228 50.5687 99.0487 50.8386C98.6807 51.1023 98.2483 51.2342 97.7515 51.2342ZM97.7515 50.949C98.1869 50.949 98.5672 50.8294 98.8923 50.5902C99.2173 50.351 99.4719 50.0106 99.6559 49.569C99.8399 49.1213 99.9319 48.5907 99.9319 47.9774C99.9319 47.3579 99.8399 46.8274 99.6559 46.3858C99.4719 45.9442 99.2173 45.6038 98.8923 45.3646C98.5672 45.1254 98.1869 45.0058 97.7515 45.0058C97.3221 45.0058 96.9419 45.1254 96.6107 45.3646C96.2856 45.6038 96.0311 45.9442 95.8471 46.3858C95.6692 46.8274 95.5803 47.3579 95.5803 47.9774C95.5803 48.5907 95.6692 49.1213 95.8471 49.569C96.0311 50.0106 96.2856 50.351 96.6107 50.5902C96.9419 50.8294 97.3221 50.949 97.7515 50.949ZM105.034 47.9467C105.296 47.9467 105.523 47.9978 105.715 48.1001C105.911 48.1982 106.063 48.3495 106.169 48.5539C106.279 48.7584 106.335 49.016 106.335 49.3267V51.1974H105.899V49.3697C105.899 49.0303 105.817 48.7747 105.654 48.603C105.494 48.4272 105.267 48.3393 104.973 48.3393C104.752 48.3393 104.56 48.3863 104.396 48.4803C104.237 48.5703 104.112 48.7032 104.022 48.879C103.936 49.0507 103.893 49.2593 103.893 49.5046V51.1974H103.458V49.3697C103.458 49.0303 103.376 48.7747 103.213 48.603C103.049 48.4272 102.82 48.3393 102.526 48.3393C102.309 48.3393 102.119 48.3863 101.955 48.4803C101.792 48.5703 101.665 48.7032 101.575 48.879C101.489 49.0507 101.446 49.2593 101.446 49.5046V51.1974H101.011V47.9774H101.428V48.8483L101.36 48.695C101.459 48.4619 101.616 48.28 101.833 48.1491C102.053 48.0142 102.313 47.9467 102.612 47.9467C102.926 47.9467 103.194 48.0265 103.415 48.1859C103.636 48.3413 103.779 48.5764 103.844 48.8913L103.673 48.8238C103.767 48.5621 103.932 48.3515 104.169 48.1921C104.411 48.0285 104.699 47.9467 105.034 47.9467Z" fill="#DD524D"/>
<path d="M80.6558 65.3767C80.2469 65.3767 79.884 65.2872 79.5671 65.1084C79.2502 64.9295 78.9998 64.6841 78.8158 64.3724C78.6318 64.0555 78.5398 63.6977 78.5398 63.299C78.5398 62.8952 78.6318 62.5375 78.8158 62.2257C78.9998 61.9139 79.2502 61.6711 79.5671 61.4974C79.884 61.3185 80.2469 61.229 80.6558 61.229C81.0596 61.229 81.4199 61.3185 81.7368 61.4974C82.0588 61.6711 82.3092 61.9139 82.4881 62.2257C82.6721 62.5324 82.7641 62.8901 82.7641 63.299C82.7641 63.7028 82.6721 64.0606 82.4881 64.3724C82.3092 64.6841 82.0588 64.9295 81.7368 65.1084C81.4199 65.2872 81.0596 65.3767 80.6558 65.3767ZM80.6558 64.7327C80.9164 64.7327 81.149 64.6739 81.3534 64.5564C81.563 64.4388 81.7266 64.2727 81.8441 64.058C81.9617 63.8382 82.0204 63.5852 82.0204 63.299C82.0204 63.0077 81.9617 62.7572 81.8441 62.5477C81.7266 62.333 81.563 62.1669 81.3534 62.0494C81.149 61.9318 80.9164 61.873 80.6558 61.873C80.3951 61.873 80.1626 61.9318 79.9581 62.0494C79.7537 62.1669 79.5901 62.333 79.4674 62.5477C79.3448 62.7572 79.2834 63.0077 79.2834 63.299C79.2834 63.5852 79.3448 63.8382 79.4674 64.058C79.5901 64.2727 79.7537 64.4388 79.9581 64.5564C80.1626 64.6739 80.3951 64.7327 80.6558 64.7327ZM84.4287 65.3307L82.65 61.2674H83.4167L84.996 64.9474H84.628L86.238 61.2674H86.9587L85.18 65.3307H84.4287ZM89.0359 65.3767C88.6015 65.3767 88.2181 65.2872 87.8859 65.1084C87.5588 64.9295 87.3033 64.6841 87.1193 64.3724C86.9404 64.0606 86.8509 63.7028 86.8509 63.299C86.8509 62.8952 86.9378 62.5375 87.1116 62.2257C87.2905 61.9139 87.5333 61.6711 87.8399 61.4974C88.1517 61.3185 88.5018 61.229 88.8903 61.229C89.2838 61.229 89.6314 61.3159 89.9329 61.4897C90.2345 61.6635 90.4696 61.9088 90.6383 62.2257C90.812 62.5375 90.8989 62.9029 90.8989 63.322C90.8989 63.3527 90.8964 63.3885 90.8913 63.4294C90.8913 63.4702 90.8887 63.5086 90.8836 63.5444H87.4259V63.0154H90.5003L90.2013 63.1994C90.2064 62.9387 90.1527 62.7061 90.0403 62.5017C89.9278 62.2972 89.7719 62.1388 89.5726 62.0264C89.3784 61.9088 89.1509 61.85 88.8903 61.85C88.6347 61.85 88.4073 61.9088 88.2079 62.0264C88.0086 62.1388 87.8527 62.2998 87.7403 62.5094C87.6278 62.7138 87.5716 62.9489 87.5716 63.2147V63.3374C87.5716 63.6082 87.6329 63.851 87.7556 64.0657C87.8834 64.2752 88.0597 64.4388 88.2846 64.5564C88.5095 64.6739 88.7676 64.7327 89.0589 64.7327C89.2991 64.7327 89.5164 64.6918 89.7106 64.61C89.9099 64.5282 90.0837 64.4056 90.2319 64.242L90.6383 64.7174C90.4543 64.932 90.2243 65.0956 89.9483 65.208C89.6774 65.3205 89.3733 65.3767 89.0359 65.3767ZM91.6143 65.3307V61.2674H92.3196V62.3714L92.2506 62.0954C92.363 61.8142 92.5521 61.5996 92.8179 61.4514C93.0837 61.3031 93.4108 61.229 93.7993 61.229V61.942C93.7686 61.9369 93.7379 61.9344 93.7073 61.9344C93.6817 61.9344 93.6561 61.9344 93.6306 61.9344C93.237 61.9344 92.9253 62.0519 92.6953 62.287C92.4653 62.5221 92.3503 62.862 92.3503 63.3067V65.3307H91.6143ZM95.9598 65.3767C95.5509 65.3767 95.234 65.2668 95.0091 65.047C94.7842 64.8272 94.6718 64.5129 94.6718 64.104V60.378H95.4078V64.0734C95.4078 64.2931 95.4614 64.4618 95.5688 64.5794C95.6812 64.6969 95.8396 64.7557 96.0441 64.7557C96.2741 64.7557 96.4658 64.6918 96.6191 64.564L96.8491 65.093C96.7366 65.1901 96.6012 65.2617 96.4428 65.3077C96.2894 65.3537 96.1284 65.3767 95.9598 65.3767ZM93.9818 61.873V61.2674H96.5731V61.873H93.9818ZM97.4322 65.3307V61.2674H98.1682V65.3307H97.4322ZM97.8002 60.4854C97.6571 60.4854 97.537 60.4394 97.4399 60.3474C97.3479 60.2554 97.3019 60.1429 97.3019 60.01C97.3019 59.872 97.3479 59.757 97.4399 59.665C97.537 59.573 97.6571 59.527 97.8002 59.527C97.9433 59.527 98.0609 59.573 98.1529 59.665C98.25 59.7519 98.2986 59.8618 98.2986 59.9947C98.2986 60.1327 98.2526 60.2502 98.1606 60.3474C98.0686 60.4394 97.9485 60.4854 97.8002 60.4854ZM104.35 61.229C104.677 61.229 104.966 61.2929 105.216 61.4207C105.467 61.5485 105.661 61.7427 105.799 62.0034C105.942 62.264 106.014 62.5937 106.014 62.9924V65.3307H105.278V63.0767C105.278 62.6831 105.186 62.3867 105.002 62.1874C104.818 61.988 104.559 61.8884 104.227 61.8884C103.982 61.8884 103.767 61.9395 103.583 62.0417C103.399 62.1439 103.256 62.2947 103.154 62.494C103.057 62.6934 103.008 62.9412 103.008 63.2377V65.3307H102.272V63.0767C102.272 62.6831 102.18 62.3867 101.996 62.1874C101.817 61.988 101.559 61.8884 101.222 61.8884C100.982 61.8884 100.77 61.9395 100.586 62.0417C100.402 62.1439 100.258 62.2947 100.156 62.494C100.054 62.6934 100.003 62.9412 100.003 63.2377V65.3307H99.2668V61.2674H99.9722V62.3484L99.8572 62.0724C99.985 61.8066 100.182 61.5996 100.448 61.4514C100.713 61.3031 101.023 61.229 101.375 61.229C101.764 61.229 102.098 61.3261 102.38 61.5204C102.661 61.7095 102.845 61.9982 102.932 62.3867L102.633 62.264C102.755 61.9522 102.97 61.7018 103.277 61.5127C103.583 61.3236 103.941 61.229 104.35 61.229ZM108.87 65.3767C108.436 65.3767 108.053 65.2872 107.72 65.1084C107.393 64.9295 107.138 64.6841 106.954 64.3724C106.775 64.0606 106.685 63.7028 106.685 63.299C106.685 62.8952 106.772 62.5375 106.946 62.2257C107.125 61.9139 107.368 61.6711 107.674 61.4974C107.986 61.3185 108.336 61.229 108.725 61.229C109.118 61.229 109.466 61.3159 109.767 61.4897C110.069 61.6635 110.304 61.9088 110.473 62.2257C110.647 62.5375 110.733 62.9029 110.733 63.322C110.733 63.3527 110.731 63.3885 110.726 63.4294C110.726 63.4702 110.723 63.5086 110.718 63.5444H107.26V63.0154H110.335L110.036 63.1994C110.041 62.9387 109.987 62.7061 109.875 62.5017C109.762 62.2972 109.606 62.1388 109.407 62.0264C109.213 61.9088 108.985 61.85 108.725 61.85C108.469 61.85 108.242 61.9088 108.042 62.0264C107.843 62.1388 107.687 62.2998 107.575 62.5094C107.462 62.7138 107.406 62.9489 107.406 63.2147V63.3374C107.406 63.6082 107.467 63.851 107.59 64.0657C107.718 64.2752 107.894 64.4388 108.119 64.5564C108.344 64.6739 108.602 64.7327 108.893 64.7327C109.134 64.7327 109.351 64.6918 109.545 64.61C109.744 64.5282 109.918 64.4056 110.066 64.242L110.473 64.7174C110.289 64.932 110.059 65.0956 109.783 65.208C109.512 65.3205 109.208 65.3767 108.87 65.3767Z" fill="#DD524D"/>
</g>
<defs>
<filter id="filter0_dd_1115_5384" x="0.451172" y="0.730713" width="150" height="115" filterUnits="userSpaceOnUse" color-interpolation-filters="sRGB">
<feFlood flood-opacity="0" result="BackgroundImageFix"/>
<feColorMatrix in="SourceAlpha" type="matrix" values="0 0 0 0 0 0 0 0 0 0 0 0 0 0 0 0 0 0 127 0" result="hardAlpha"/>
<feMorphology radius="1" operator="erode" in="SourceAlpha" result="effect1_dropShadow_1115_5384"/>
<feOffset/>
<feGaussianBlur stdDeviation="1.5"/>
<feComposite in2="hardAlpha" operator="out"/>
<feColorMatrix type="matrix" values="0 0 0 0 0.0627451 0 0 0 0 0.0980392 0 0 0 0 0.156863 0 0 0 0.04 0"/>
<feBlend mode="normal" in2="BackgroundImageFix" result="effect1_dropShadow_1115_5384"/>
<feColorMatrix in="SourceAlpha" type="matrix" values="0 0 0 0 0 0 0 0 0 0 0 0 0 0 0 0 0 0 127 0" result="hardAlpha"/>
<feMorphology radius="9" operator="erode" in="SourceAlpha" result="effect2_dropShadow_1115_5384"/>
<feOffset dy="14"/>
<feGaussianBlur stdDeviation="11"/>
<feComposite in2="hardAlpha" operator="out"/>
<feColorMatrix type="matrix" values="0 0 0 0 0.0627451 0 0 0 0 0.0980392 0 0 0 0 0.156863 0 0 0 0.14 0"/>
<feBlend mode="normal" in2="effect1_dropShadow_1115_5384" result="effect2_dropShadow_1115_5384"/>
<feBlend mode="normal" in="SourceGraphic" in2="effect2_dropShadow_1115_5384" result="shape"/>
</filter>
</defs>
</svg>
