<svg xmlns="http://www.w3.org/2000/svg" width="20" height="21" viewBox="0 0 20 21" fill="none">
<path d="M10 11.3333V12.9999H12.5" fill="#636363"/>
<path d="M10 11.3333V12.9999H12.5" stroke="#98A2B3" stroke-width="1.25" stroke-linecap="round" stroke-linejoin="round"/>
<path d="M2.5 8V17.1667C2.5 17.3877 2.5878 17.5996 2.74408 17.7559C2.90036 17.9122 3.11232 18 3.33333 18H16.6667C16.8877 18 17.0996 17.9122 17.2559 17.7559C17.4122 17.5996 17.5 17.3877 17.5 17.1667V8M2.5 8H17.5M2.5 8V4.66667C2.5 4.44565 2.5878 4.23369 2.74408 4.07741C2.90036 3.92113 3.11232 3.83333 3.33333 3.83333H16.6667C16.8877 3.83333 17.0996 3.92113 17.2559 4.07741C17.4122 4.23369 17.5 4.44565 17.5 4.66667V8M13.3333 3V5.5M6.66667 3V5.5M7.5 14.6667V11.3333M12.5 11.3333V14.6667" stroke="#98A2B3" stroke-width="1.25" stroke-linecap="round" stroke-linejoin="round"/>
</svg>