<svg xmlns="http://www.w3.org/2000/svg" width="21" height="20" viewBox="0 0 21 20" fill="none">
<path d="M10.5 10.8333V12.4999H13" fill="#9A9A9A"/>
<path d="M10.5 10.8333V12.4999H13" stroke="#9A9A9A" stroke-width="1.5" stroke-linecap="round" stroke-linejoin="round"/>
<path d="M3 7.5V16.6667C3 16.8877 3.0878 17.0996 3.24408 17.2559C3.40036 17.4122 3.61232 17.5 3.83333 17.5H17.1667C17.3877 17.5 17.5996 17.4122 17.7559 17.2559C17.9122 17.0996 18 16.8877 18 16.6667V7.5M3 7.5H18M3 7.5V4.16667C3 3.94565 3.0878 3.73369 3.24408 3.57741C3.40036 3.42113 3.61232 3.33333 3.83333 3.33333H17.1667C17.3877 3.33333 17.5996 3.42113 17.7559 3.57741C17.9122 3.73369 18 3.94565 18 4.16667V7.5M13.8333 2.5V5M7.16667 2.5V5M8 14.1667V10.8333M13 10.8333V14.1667" stroke="#9A9A9A" stroke-width="1.5" stroke-linecap="round" stroke-linejoin="round"/>
</svg>