<svg width="75" height="111" viewBox="0 0 75 111" fill="none" xmlns="http://www.w3.org/2000/svg">
<g opacity="0.16">
<circle cx="5.92105" cy="5.92105" r="5.92105" fill="#F7F9FC"/>
<circle cx="25.6579" cy="5.92105" r="5.92105" fill="#F7F9FC"/>
<circle cx="45.3947" cy="5.92105" r="5.92105" fill="#F7F9FC"/>
<circle cx="65.1316" cy="5.92105" r="5.92105" fill="#F7F9FC"/>
<circle cx="5.92105" cy="25.6579" r="5.92105" fill="#F7F9FC"/>
<circle cx="25.6579" cy="25.6579" r="5.92105" fill="#F7F9FC"/>
<circle cx="45.3947" cy="25.6579" r="5.92105" fill="#F7F9FC"/>
<circle cx="65.1316" cy="25.6579" r="5.92105" fill="#F7F9FC"/>
<circle cx="5.92105" cy="45.3947" r="5.92105" fill="#F7F9FC"/>
<circle cx="25.6579" cy="45.3947" r="5.92105" fill="#F7F9FC"/>
<circle cx="45.3947" cy="45.3947" r="5.92105" fill="#F7F9FC"/>
<circle cx="65.1316" cy="45.3947" r="5.92105" fill="#F7F9FC"/>
<circle cx="5.92105" cy="65.1315" r="5.92105" fill="#F7F9FC"/>
<circle cx="25.6579" cy="65.1315" r="5.92105" fill="#F7F9FC"/>
<circle cx="45.3947" cy="65.1315" r="5.92105" fill="#F7F9FC"/>
<circle cx="65.1316" cy="65.1315" r="5.92105" fill="#F7F9FC"/>
<circle cx="5.92105" cy="84.8683" r="5.92105" fill="#F7F9FC"/>
<circle cx="25.6579" cy="84.8683" r="5.92105" fill="#F7F9FC"/>
<circle cx="45.3947" cy="84.8683" r="5.92105" fill="#F7F9FC"/>
<circle cx="65.1316" cy="84.8683" r="5.92105" fill="#F7F9FC"/>
<circle cx="5.92105" cy="104.605" r="5.92105" fill="#F7F9FC"/>
<circle cx="25.6579" cy="104.605" r="5.92105" fill="#F7F9FC"/>
<circle cx="45.3947" cy="104.605" r="5.92105" fill="#F7F9FC"/>
<circle cx="65.1316" cy="104.605" r="5.92105" fill="#F7F9FC"/>
</g>
</svg>
