<svg width="41" height="41" viewBox="0 0 41 41" fill="none" xmlns="http://www.w3.org/2000/svg">
<path d="M20.5 12.0704C23.1506 12.0704 23.5121 12.0704 24.5964 12.0704C25.5602 12.0704 26.0422 12.3114 26.4036 12.4319C26.8855 12.6728 27.247 12.7933 27.6084 13.1548C27.9699 13.5162 28.2108 13.8776 28.3313 14.3596C28.4518 14.721 28.5723 15.2029 28.6928 16.1668C28.6928 17.2511 28.6928 17.4921 28.6928 20.2632C28.6928 23.0343 28.6928 23.2752 28.6928 24.3596C28.6928 25.3234 28.4518 25.8054 28.3313 26.1668C28.0904 26.6487 27.9699 27.0102 27.6084 27.3716C27.247 27.7331 26.8855 27.974 26.4036 28.0945C26.0422 28.215 25.5602 28.3355 24.5964 28.456C23.5121 28.456 23.2711 28.456 20.5 28.456C17.7289 28.456 17.488 28.456 16.4036 28.456C15.4398 28.456 14.9578 28.215 14.5964 28.0945C14.1145 27.8535 13.753 27.7331 13.3916 27.3716C13.0301 27.0102 12.7892 26.6487 12.6687 26.1668C12.5482 25.8054 12.4277 25.3234 12.3072 24.3596C12.3072 23.2752 12.3072 23.0343 12.3072 20.2632C12.3072 17.4921 12.3072 17.2511 12.3072 16.1668C12.3072 15.2029 12.5482 14.721 12.6687 14.3596C12.9096 13.8776 13.0301 13.5162 13.3916 13.1548C13.753 12.7933 14.1145 12.5523 14.5964 12.4319C14.9578 12.3114 15.4398 12.1909 16.4036 12.0704C17.488 12.0704 17.8494 12.0704 20.5 12.0704ZM20.5 10.2632C17.7289 10.2632 17.488 10.2632 16.4036 10.2632C15.3193 10.2632 14.5964 10.5041 13.994 10.7451C13.3916 10.9861 12.7892 11.3475 12.1867 11.9499C11.5843 12.5523 11.3434 13.0343 10.9819 13.7572C10.741 14.3596 10.6205 15.0825 10.5 16.1668C10.5 17.2511 10.5 17.6126 10.5 20.2632C10.5 23.0343 10.5 23.2752 10.5 24.3596C10.5 25.4439 10.741 26.1668 10.9819 26.7692C11.2229 27.3716 11.5843 27.974 12.1867 28.5764C12.7892 29.1788 13.2711 29.4198 13.994 29.7813C14.5964 30.0222 15.3193 30.1427 16.4036 30.2632C17.488 30.2632 17.8494 30.2632 20.5 30.2632C23.1506 30.2632 23.5121 30.2632 24.5964 30.2632C25.6807 30.2632 26.4036 30.0222 27.006 29.7813C27.6084 29.5403 28.2108 29.1788 28.8133 28.5764C29.4157 27.974 29.6566 27.4921 30.0181 26.7692C30.259 26.1668 30.3795 25.4439 30.5 24.3596C30.5 23.2752 30.5 22.9138 30.5 20.2632C30.5 17.6126 30.5 17.2511 30.5 16.1668C30.5 15.0825 30.259 14.3596 30.0181 13.7572C29.7771 13.1548 29.4157 12.5523 28.8133 11.9499C28.2108 11.3475 27.7289 11.1066 27.006 10.7451C26.4036 10.5041 25.6807 10.3837 24.5964 10.2632C23.5121 10.2632 23.2711 10.2632 20.5 10.2632Z" fill="#3A4F39"/>
<path d="M20.5 15.0825C17.6084 15.0825 15.3193 17.3716 15.3193 20.2632C15.3193 23.1548 17.6084 25.4439 20.5 25.4439C23.3916 25.4439 25.6807 23.1548 25.6807 20.2632C25.6807 17.3716 23.3916 15.0825 20.5 15.0825ZM20.5 23.6367C18.6928 23.6367 17.1265 22.1909 17.1265 20.2632C17.1265 18.456 18.5723 16.8897 20.5 16.8897C22.3072 16.8897 23.8735 18.3355 23.8735 20.2632C23.8735 22.0704 22.3072 23.6367 20.5 23.6367Z" fill="#3A4F39"/>
<path d="M25.8012 16.1668C26.4666 16.1668 27.006 15.6274 27.006 14.962C27.006 14.2966 26.4666 13.7572 25.8012 13.7572C25.1358 13.7572 24.5964 14.2966 24.5964 14.962C24.5964 15.6274 25.1358 16.1668 25.8012 16.1668Z" fill="#3A4F39"/>
</svg>
