<svg width="26" height="26" viewBox="0 0 26 26" fill="none" xmlns="http://www.w3.org/2000/svg">
<path d="M12.6316 0.368896C10.9728 0.368896 9.33022 0.695622 7.79768 1.33042C6.26515 1.96521 4.87265 2.89565 3.6997 4.0686C2.52675 5.24155 1.59632 6.63405 0.961522 8.16658C0.326725 9.69911 -5.27275e-08 11.3417 0 13.0005C5.27276e-08 14.6593 0.326726 16.3018 0.961522 17.8344C1.59632 19.3669 2.52675 20.7594 3.6997 21.9324C4.87265 23.1053 6.26515 24.0357 7.79768 24.6705C9.33022 25.3053 10.9728 25.6321 12.6316 25.6321L12.6316 13.0005V0.368896Z" fill="#034592"/>
<path d="M3.67358 6.79938L12.4009 15.0673L8.95588 18.5123" stroke="white" stroke-width="1.26316"/>
<path d="M12.8611 14.6087L18.8324 8.63739" stroke="#F56630" stroke-width="1.26316"/>
</svg>
