<svg width="209" height="81" viewBox="0 0 209 81" fill="none" xmlns="http://www.w3.org/2000/svg">
<g filter="url(#filter0_dd_1115_5385)">
<rect x="6.45117" y="1.73071" width="196" height="67" rx="7.55556" fill="white"/>
<path d="M13.8832 12.2692V9.21788H15.0732C15.3406 9.21788 15.5687 9.26002 15.7576 9.34429C15.9465 9.42857 16.0918 9.55062 16.1935 9.71045C16.2952 9.87028 16.3461 10.0606 16.3461 10.2815C16.3461 10.5023 16.2952 10.6927 16.1935 10.8525C16.0918 11.0094 15.9465 11.13 15.7576 11.2143C15.5687 11.2986 15.3406 11.3407 15.0732 11.3407H14.123L14.3191 11.1402V12.2692H13.8832ZM15.9232 12.2692L15.1473 11.162H15.6137L16.3984 12.2692H15.9232ZM14.3191 11.1838L14.123 10.9702H15.0602C15.3391 10.9702 15.5498 10.9106 15.6922 10.7915C15.8375 10.6694 15.9102 10.4994 15.9102 10.2815C15.9102 10.0635 15.8375 9.89498 15.6922 9.77583C15.5498 9.65669 15.3391 9.59711 15.0602 9.59711H14.123L14.3191 9.37916V11.1838ZM17.787 12.2953C17.5894 12.2953 17.415 12.259 17.2639 12.1863C17.1157 12.1137 16.9994 12.0033 16.9152 11.8551C16.8338 11.704 16.7931 11.5151 16.7931 11.2884V9.95891H17.2116V11.2404C17.2116 11.4671 17.2653 11.6371 17.3729 11.7504C17.4833 11.8638 17.6373 11.9204 17.8349 11.9204C17.9802 11.9204 18.1066 11.8914 18.2141 11.8333C18.3217 11.7722 18.4045 11.6851 18.4626 11.5717C18.5207 11.4555 18.5498 11.316 18.5498 11.1533V9.95891H18.9682V12.2692H18.5716V11.6458L18.637 11.8115C18.5614 11.9655 18.4481 12.0846 18.297 12.1689C18.1459 12.2532 17.9759 12.2953 17.787 12.2953ZM20.8241 9.93711C21.013 9.93711 21.1786 9.97344 21.321 10.0461C21.4663 10.1187 21.5797 10.2292 21.661 10.3774C21.7424 10.5256 21.7831 10.713 21.7831 10.9397V12.2692H21.3646V10.9876C21.3646 10.7639 21.3094 10.5953 21.199 10.482C21.0915 10.3687 20.9389 10.312 20.7413 10.312C20.5931 10.312 20.4638 10.341 20.3533 10.3992C20.2429 10.4573 20.1572 10.543 20.0962 10.6563C20.038 10.7697 20.009 10.9106 20.009 11.0792V12.2692H19.5905V9.95891H19.9915V10.5822L19.9262 10.4166C20.0017 10.2655 20.118 10.1478 20.2749 10.0635C20.4318 9.97925 20.6149 9.93711 20.8241 9.93711ZM23.6168 9.93711C23.8056 9.93711 23.9713 9.97344 24.1137 10.0461C24.259 10.1187 24.3723 10.2292 24.4537 10.3774C24.535 10.5256 24.5757 10.713 24.5757 10.9397V12.2692H24.1573V10.9876C24.1573 10.7639 24.1021 10.5953 23.9916 10.482C23.8841 10.3687 23.7315 10.312 23.5339 10.312C23.3857 10.312 23.2564 10.341 23.146 10.3992C23.0356 10.4573 22.9498 10.543 22.8888 10.6563C22.8307 10.7697 22.8016 10.9106 22.8016 11.0792V12.2692H22.3832V9.95891H22.7842V10.5822L22.7188 10.4166C22.7944 10.2655 22.9106 10.1478 23.0675 10.0635C23.2244 9.97925 23.4075 9.93711 23.6168 9.93711ZM25.1758 12.2692V9.95891H25.5943V12.2692H25.1758ZM25.385 9.51429C25.3037 9.51429 25.2354 9.48814 25.1802 9.43583C25.1279 9.38352 25.1017 9.31959 25.1017 9.24404C25.1017 9.16558 25.1279 9.10019 25.1802 9.04788C25.2354 8.99558 25.3037 8.96942 25.385 8.96942C25.4664 8.96942 25.5332 8.99558 25.5855 9.04788C25.6408 9.09728 25.6684 9.15976 25.6684 9.23532C25.6684 9.31378 25.6422 9.38062 25.5899 9.43583C25.5376 9.48814 25.4693 9.51429 25.385 9.51429ZM27.4525 9.93711C27.6414 9.93711 27.807 9.97344 27.9494 10.0461C28.0947 10.1187 28.208 10.2292 28.2894 10.3774C28.3708 10.5256 28.4115 10.713 28.4115 10.9397V12.2692H27.993V10.9876C27.993 10.7639 27.9378 10.5953 27.8274 10.482C27.7198 10.3687 27.5673 10.312 27.3697 10.312C27.2215 10.312 27.0921 10.341 26.9817 10.3992C26.8713 10.4573 26.7856 10.543 26.7245 10.6563C26.6664 10.7697 26.6374 10.9106 26.6374 11.0792V12.2692H26.2189V9.95891H26.6199V10.5822L26.5545 10.4166C26.6301 10.2655 26.7463 10.1478 26.9032 10.0635C27.0602 9.97925 27.2432 9.93711 27.4525 9.93711ZM30.0228 13.141C29.8107 13.141 29.6043 13.1104 29.4038 13.0494C29.2062 12.9913 29.0449 12.907 28.92 12.7966L29.1205 12.474C29.228 12.567 29.3602 12.6397 29.5172 12.692C29.6741 12.7472 29.8383 12.7748 30.0097 12.7748C30.2829 12.7748 30.4834 12.7109 30.6113 12.583C30.7391 12.4551 30.8031 12.2604 30.8031 11.9989V11.5107L30.8467 11.053L30.8249 10.591V9.95891H31.2215V11.9553C31.2215 12.3622 31.1198 12.6615 30.9164 12.8533C30.713 13.0451 30.4151 13.141 30.0228 13.141ZM29.9705 12.1733C29.7467 12.1733 29.5462 12.1268 29.369 12.0338C29.1946 11.9379 29.0551 11.8057 28.9505 11.6371C28.8488 11.4686 28.7979 11.2739 28.7979 11.053C28.7979 10.8293 28.8488 10.6345 28.9505 10.4689C29.0551 10.3004 29.1946 10.1696 29.369 10.0766C29.5462 9.98361 29.7467 9.93711 29.9705 9.93711C30.1681 9.93711 30.3483 9.9778 30.511 10.0592C30.6737 10.1376 30.8031 10.2597 30.899 10.4253C30.9978 10.591 31.0472 10.8002 31.0472 11.053C31.0472 11.3029 30.9978 11.5107 30.899 11.6763C30.8031 11.842 30.6737 11.9669 30.511 12.0512C30.3483 12.1326 30.1681 12.1733 29.9705 12.1733ZM30.0184 11.8071C30.1725 11.8071 30.309 11.7751 30.4282 11.7112C30.5473 11.6473 30.6403 11.5587 30.7072 11.4453C30.7769 11.332 30.8118 11.2012 30.8118 11.053C30.8118 10.9048 30.7769 10.774 30.7072 10.6607C30.6403 10.5474 30.5473 10.4602 30.4282 10.3992C30.309 10.3352 30.1725 10.3033 30.0184 10.3033C29.8644 10.3033 29.7264 10.3352 29.6043 10.3992C29.4852 10.4602 29.3908 10.5474 29.321 10.6607C29.2542 10.774 29.2208 10.9048 29.2208 11.053C29.2208 11.2012 29.2542 11.332 29.321 11.4453C29.3908 11.5587 29.4852 11.6473 29.6043 11.7112C29.7264 11.7751 29.8644 11.8071 30.0184 11.8071Z" fill="#034592"/>
<path d="M26.286 25.1666V20.2846H28.3435C28.8642 20.2846 29.3222 20.3869 29.7174 20.5914C30.1173 20.796 30.4265 21.082 30.645 21.4493C30.8682 21.8166 30.9798 22.242 30.9798 22.7256C30.9798 23.2092 30.8682 23.6346 30.645 24.0019C30.4265 24.3692 30.1173 24.6552 29.7174 24.8598C29.3222 25.0643 28.8642 25.1666 28.3435 25.1666H26.286ZM26.9835 24.5599H28.3016C28.7061 24.5599 29.0548 24.4831 29.3478 24.3297C29.6453 24.1763 29.8755 23.9624 30.0382 23.6881C30.201 23.4091 30.2823 23.0883 30.2823 22.7256C30.2823 22.3583 30.201 22.0375 30.0382 21.7631C29.8755 21.4888 29.6453 21.2749 29.3478 21.1215C29.0548 20.9681 28.7061 20.8913 28.3016 20.8913H26.9835V24.5599ZM33.3174 25.2085C32.9222 25.2085 32.5734 25.1271 32.2712 24.9644C31.9736 24.8016 31.7412 24.5785 31.5738 24.2948C31.411 24.0112 31.3297 23.6857 31.3297 23.3184C31.3297 22.9511 31.4087 22.6256 31.5668 22.342C31.7295 22.0584 31.9504 21.8375 32.2294 21.6794C32.513 21.5167 32.8315 21.4353 33.1849 21.4353C33.5429 21.4353 33.859 21.5144 34.1334 21.6725C34.4077 21.8306 34.6216 22.0537 34.775 22.342C34.9331 22.6256 35.0121 22.9581 35.0121 23.3393C35.0121 23.3672 35.0098 23.3998 35.0052 23.437C35.0052 23.4742 35.0028 23.5091 34.9982 23.5416H31.8528V23.0604H34.6495L34.3775 23.2278C34.3821 22.9906 34.3333 22.7791 34.231 22.5931C34.1287 22.4071 33.9869 22.263 33.8056 22.1607C33.6289 22.0537 33.422 22.0003 33.1849 22.0003C32.9524 22.0003 32.7455 22.0537 32.5641 22.1607C32.3828 22.263 32.241 22.4094 32.1387 22.6001C32.0364 22.786 31.9853 22.9999 31.9853 23.2417V23.3533C31.9853 23.5997 32.0411 23.8206 32.1527 24.0159C32.2689 24.2065 32.4293 24.3553 32.6339 24.4622C32.8385 24.5692 33.0733 24.6226 33.3383 24.6226C33.5568 24.6226 33.7544 24.5854 33.9311 24.511C34.1124 24.4366 34.2705 24.3251 34.4054 24.1763L34.775 24.6087C34.6076 24.804 34.3984 24.9527 34.1473 25.055C33.9009 25.1573 33.6242 25.2085 33.3174 25.2085ZM36.723 25.2085C36.4161 25.2085 36.1232 25.1666 35.8442 25.0829C35.5699 24.9992 35.3537 24.897 35.1956 24.7761L35.4746 24.246C35.6327 24.353 35.8279 24.4436 36.0604 24.518C36.2929 24.5924 36.53 24.6296 36.7718 24.6296C37.0833 24.6296 37.3065 24.5854 37.4413 24.4971C37.5808 24.4087 37.6506 24.2855 37.6506 24.1274C37.6506 24.0112 37.6087 23.9205 37.525 23.8554C37.4413 23.7904 37.3298 23.7415 37.1903 23.709C37.0554 23.6764 36.9043 23.6485 36.7369 23.6253C36.5695 23.5974 36.4022 23.5648 36.2348 23.5277C36.0674 23.4858 35.914 23.43 35.7745 23.3603C35.635 23.2859 35.5234 23.1859 35.4397 23.0604C35.356 22.9302 35.3142 22.7581 35.3142 22.5443C35.3142 22.3211 35.3769 22.1258 35.5025 21.9584C35.628 21.791 35.8047 21.6632 36.0325 21.5748C36.265 21.4818 36.5393 21.4353 36.8555 21.4353C37.0973 21.4353 37.3414 21.4656 37.5878 21.526C37.8389 21.5818 38.0435 21.6632 38.2015 21.7701L37.9156 22.3002C37.7482 22.1886 37.5739 22.1119 37.3925 22.07C37.2112 22.0282 37.0299 22.0072 36.8485 22.0072C36.5556 22.0072 36.3371 22.0561 36.1929 22.1537C36.0488 22.2467 35.9767 22.3676 35.9767 22.5164C35.9767 22.6419 36.0186 22.7395 36.1023 22.8093C36.1906 22.8744 36.3022 22.9255 36.437 22.9627C36.5765 22.9999 36.73 23.0325 36.8973 23.0604C37.0647 23.0836 37.2321 23.1162 37.3995 23.158C37.5669 23.1952 37.718 23.2487 37.8528 23.3184C37.9923 23.3882 38.1039 23.4858 38.1876 23.6113C38.2759 23.7369 38.3201 23.9043 38.3201 24.1135C38.3201 24.3367 38.255 24.5296 38.1248 24.6924C37.9946 24.8551 37.811 24.983 37.5739 25.076C37.3367 25.1643 37.0531 25.2085 36.723 25.2085ZM38.8779 25.1666V21.4702H39.5474V25.1666H38.8779ZM39.2127 20.7588C39.0825 20.7588 38.9732 20.717 38.8849 20.6333C38.8012 20.5496 38.7593 20.4473 38.7593 20.3264C38.7593 20.2009 38.8012 20.0963 38.8849 20.0126C38.9732 19.9289 39.0825 19.887 39.2127 19.887C39.3429 19.887 39.4498 19.9289 39.5335 20.0126C39.6218 20.0916 39.666 20.1916 39.666 20.3125C39.666 20.438 39.6242 20.545 39.5405 20.6333C39.4568 20.717 39.3475 20.7588 39.2127 20.7588ZM42.1649 26.5615C41.8255 26.5615 41.4954 26.5127 41.1745 26.415C40.8584 26.322 40.6003 26.1872 40.4004 26.0105L40.7212 25.4944C40.8932 25.6432 41.1048 25.7594 41.3559 25.8431C41.6069 25.9315 41.8696 25.9757 42.144 25.9757C42.581 25.9757 42.9018 25.8734 43.1064 25.6688C43.311 25.4642 43.4133 25.1527 43.4133 24.7342V23.9531L43.483 23.2208L43.4482 22.4815V21.4702H44.0828V24.6645C44.0828 25.3154 43.9201 25.7943 43.5946 26.1012C43.2692 26.4081 42.7926 26.5615 42.1649 26.5615ZM42.0812 25.0132C41.7232 25.0132 41.4024 24.9388 41.1187 24.79C40.8398 24.6366 40.6166 24.425 40.4492 24.1553C40.2865 23.8857 40.2051 23.5741 40.2051 23.2208C40.2051 22.8628 40.2865 22.5512 40.4492 22.2862C40.6166 22.0165 40.8398 21.8073 41.1187 21.6585C41.4024 21.5097 41.7232 21.4353 42.0812 21.4353C42.3974 21.4353 42.6856 21.5004 42.946 21.6306C43.2064 21.7562 43.4133 21.9514 43.5667 22.2165C43.7248 22.4815 43.8039 22.8163 43.8039 23.2208C43.8039 23.6206 43.7248 23.9531 43.5667 24.2181C43.4133 24.4831 43.2064 24.6831 42.946 24.8179C42.6856 24.9481 42.3974 25.0132 42.0812 25.0132ZM42.1579 24.4273C42.4043 24.4273 42.6229 24.3762 42.8135 24.2739C43.0041 24.1716 43.1529 24.0298 43.2599 23.8485C43.3715 23.6671 43.4272 23.4579 43.4272 23.2208C43.4272 22.9837 43.3715 22.7744 43.2599 22.5931C43.1529 22.4118 43.0041 22.2723 42.8135 22.1746C42.6229 22.0723 42.4043 22.0212 42.1579 22.0212C41.9115 22.0212 41.6906 22.0723 41.4954 22.1746C41.3047 22.2723 41.1536 22.4118 41.042 22.5931C40.9351 22.7744 40.8816 22.9837 40.8816 23.2208C40.8816 23.4579 40.9351 23.6671 41.042 23.8485C41.1536 24.0298 41.3047 24.1716 41.4954 24.2739C41.6906 24.3762 41.9115 24.4273 42.1579 24.4273ZM47.0569 21.4353C47.3591 21.4353 47.6242 21.4935 47.852 21.6097C48.0845 21.7259 48.2658 21.9026 48.396 22.1398C48.5262 22.3769 48.5913 22.6768 48.5913 23.0394V25.1666H47.9217V23.1162C47.9217 22.7581 47.8334 22.4885 47.6567 22.3071C47.4847 22.1258 47.2406 22.0351 46.9244 22.0351C46.6873 22.0351 46.4804 22.0816 46.3037 22.1746C46.127 22.2676 45.9898 22.4048 45.8922 22.5861C45.7992 22.7674 45.7527 22.993 45.7527 23.2626V25.1666H45.0832V21.4702H45.7248V22.4675L45.6202 22.2025C45.7411 21.9607 45.9271 21.7724 46.1781 21.6376C46.4292 21.5028 46.7221 21.4353 47.0569 21.4353ZM52.4147 25.2085C52.0428 25.2085 51.7545 25.1085 51.5499 24.9086C51.3453 24.7086 51.2431 24.4227 51.2431 24.0507V20.6612H51.9126V24.0228C51.9126 24.2228 51.9614 24.3762 52.0591 24.4831C52.1613 24.5901 52.3055 24.6435 52.4915 24.6435C52.7007 24.6435 52.8751 24.5854 53.0145 24.4692L53.2238 24.9504C53.1215 25.0388 52.9983 25.1039 52.8541 25.1457C52.7146 25.1875 52.5682 25.2085 52.4147 25.2085ZM50.6154 22.0212V21.4702H52.9727V22.0212H50.6154ZM56.0488 25.1666V24.3855L56.014 24.239V22.9069C56.014 22.6233 55.9303 22.4048 55.7629 22.2513C55.6001 22.0933 55.3537 22.0142 55.0236 22.0142C54.8051 22.0142 54.5912 22.0514 54.382 22.1258C54.1727 22.1955 53.996 22.2909 53.8519 22.4118L53.5729 21.9096C53.7636 21.7562 53.9914 21.6399 54.2564 21.5609C54.5261 21.4772 54.8074 21.4353 55.1003 21.4353C55.6071 21.4353 55.9977 21.5586 56.272 21.805C56.5463 22.0514 56.6835 22.428 56.6835 22.9348V25.1666H56.0488ZM54.8353 25.2085C54.561 25.2085 54.3192 25.162 54.11 25.069C53.9054 24.976 53.7473 24.8481 53.6357 24.6854C53.5241 24.518 53.4683 24.3297 53.4683 24.1205C53.4683 23.9205 53.5148 23.7392 53.6078 23.5765C53.7054 23.4137 53.8612 23.2835 54.0751 23.1859C54.2936 23.0883 54.5865 23.0394 54.9538 23.0394H56.1255V23.5207H54.9817C54.647 23.5207 54.4215 23.5765 54.3052 23.6881C54.189 23.7997 54.1309 23.9345 54.1309 24.0926C54.1309 24.2739 54.2029 24.4204 54.3471 24.532C54.4912 24.6389 54.6911 24.6924 54.9469 24.6924C55.198 24.6924 55.4165 24.6366 55.6025 24.525C55.7931 24.4134 55.9303 24.2507 56.014 24.0368L56.1465 24.4971C56.0581 24.7156 55.9024 24.89 55.6792 25.0202C55.456 25.1457 55.1747 25.2085 54.8353 25.2085ZM58.7037 25.2085C58.3968 25.2085 58.1039 25.1666 57.8249 25.0829C57.5506 24.9992 57.3344 24.897 57.1763 24.7761L57.4552 24.246C57.6133 24.353 57.8086 24.4436 58.0411 24.518C58.2736 24.5924 58.5107 24.6296 58.7525 24.6296C59.064 24.6296 59.2872 24.5854 59.422 24.4971C59.5615 24.4087 59.6312 24.2855 59.6312 24.1274C59.6312 24.0112 59.5894 23.9205 59.5057 23.8554C59.422 23.7904 59.3104 23.7415 59.1709 23.709C59.0361 23.6764 58.885 23.6485 58.7176 23.6253C58.5502 23.5974 58.3828 23.5648 58.2155 23.5277C58.0481 23.4858 57.8946 23.43 57.7551 23.3603C57.6157 23.2859 57.5041 23.1859 57.4204 23.0604C57.3367 22.9302 57.2948 22.7581 57.2948 22.5443C57.2948 22.3211 57.3576 22.1258 57.4831 21.9584C57.6087 21.791 57.7854 21.6632 58.0132 21.5748C58.2457 21.4818 58.52 21.4353 58.8362 21.4353C59.0779 21.4353 59.3221 21.4656 59.5685 21.526C59.8196 21.5818 60.0241 21.6632 60.1822 21.7701L59.8963 22.3002C59.7289 22.1886 59.5545 22.1119 59.3732 22.07C59.1919 22.0282 59.0105 22.0072 58.8292 22.0072C58.5363 22.0072 58.3177 22.0561 58.1736 22.1537C58.0295 22.2467 57.9574 22.3676 57.9574 22.5164C57.9574 22.6419 57.9992 22.7395 58.0829 22.8093C58.1713 22.8744 58.2829 22.9255 58.4177 22.9627C58.5572 22.9999 58.7106 23.0325 58.878 23.0604C59.0454 23.0836 59.2128 23.1162 59.3802 23.158C59.5476 23.1952 59.6987 23.2487 59.8335 23.3184C59.973 23.3882 60.0846 23.4858 60.1683 23.6113C60.2566 23.7369 60.3008 23.9043 60.3008 24.1135C60.3008 24.3367 60.2357 24.5296 60.1055 24.6924C59.9753 24.8551 59.7917 24.983 59.5545 25.076C59.3174 25.1643 59.0338 25.2085 58.7037 25.2085ZM61.4026 24.2739L61.4165 23.4161L63.5437 21.4702H64.3527L62.7207 23.0743L62.3581 23.3812L61.4026 24.2739ZM60.8586 25.1666V19.9917H61.5281V25.1666H60.8586ZM63.6832 25.1666L62.2325 23.3672L62.6649 22.8302L64.5062 25.1666H63.6832ZM68.0824 25.2085C67.7058 25.2085 67.3687 25.1271 67.0711 24.9644C66.7782 24.8016 66.548 24.5785 66.3806 24.2948C66.2132 24.0112 66.1296 23.6857 66.1296 23.3184C66.1296 22.9511 66.2132 22.6256 66.3806 22.342C66.548 22.0584 66.7782 21.8375 67.0711 21.6794C67.3687 21.5167 67.7058 21.4353 68.0824 21.4353C68.4171 21.4353 68.7147 21.5028 68.9751 21.6376C69.2401 21.7678 69.4447 21.9631 69.5888 22.2234L69.0797 22.5512C68.9588 22.3699 68.81 22.2374 68.6333 22.1537C68.4613 22.0654 68.2753 22.0212 68.0754 22.0212C67.8336 22.0212 67.6174 22.0747 67.4268 22.1816C67.2361 22.2885 67.085 22.4397 66.9734 22.6349C66.8619 22.8256 66.8061 23.0534 66.8061 23.3184C66.8061 23.5834 66.8619 23.8136 66.9734 24.0089C67.085 24.2042 67.2361 24.3553 67.4268 24.4622C67.6174 24.5692 67.8336 24.6226 68.0754 24.6226C68.2753 24.6226 68.4613 24.5808 68.6333 24.4971C68.81 24.4087 68.9588 24.2739 69.0797 24.0926L69.5888 24.4134C69.4447 24.6691 69.2401 24.8667 68.9751 25.0062C68.7147 25.1411 68.4171 25.2085 68.0824 25.2085ZM71.7054 25.2085C71.3334 25.2085 71.0033 25.1271 70.715 24.9644C70.4268 24.8016 70.1989 24.5785 70.0315 24.2948C69.8642 24.0066 69.7805 23.6811 69.7805 23.3184C69.7805 22.9511 69.8642 22.6256 70.0315 22.342C70.1989 22.0584 70.4268 21.8375 70.715 21.6794C71.0033 21.5167 71.3334 21.4353 71.7054 21.4353C72.0727 21.4353 72.4005 21.5167 72.6888 21.6794C72.9817 21.8375 73.2095 22.0584 73.3723 22.342C73.5396 22.621 73.6233 22.9465 73.6233 23.3184C73.6233 23.6857 73.5396 24.0112 73.3723 24.2948C73.2095 24.5785 72.9817 24.8016 72.6888 24.9644C72.4005 25.1271 72.0727 25.2085 71.7054 25.2085ZM71.7054 24.6226C71.9425 24.6226 72.1541 24.5692 72.3401 24.4622C72.5307 24.3553 72.6795 24.2042 72.7864 24.0089C72.8934 23.809 72.9468 23.5788 72.9468 23.3184C72.9468 23.0534 72.8934 22.8256 72.7864 22.6349C72.6795 22.4397 72.5307 22.2885 72.3401 22.1816C72.1541 22.0747 71.9425 22.0212 71.7054 22.0212C71.4683 22.0212 71.2567 22.0747 71.0707 22.1816C70.8847 22.2885 70.736 22.4397 70.6244 22.6349C70.5128 22.8256 70.457 23.0534 70.457 23.3184C70.457 23.5788 70.5128 23.809 70.6244 24.0089C70.736 24.2042 70.8847 24.3553 71.0707 24.4622C71.2567 24.5692 71.4683 24.6226 71.7054 24.6226ZM78.8943 21.4353C79.1919 21.4353 79.4546 21.4935 79.6824 21.6097C79.9102 21.7259 80.0869 21.9026 80.2125 22.1398C80.3427 22.3769 80.4078 22.6768 80.4078 23.0394V25.1666H79.7382V23.1162C79.7382 22.7581 79.6545 22.4885 79.4871 22.3071C79.3198 22.1258 79.085 22.0351 78.7827 22.0351C78.5595 22.0351 78.3643 22.0816 78.1969 22.1746C78.0295 22.2676 77.8993 22.4048 77.8063 22.5861C77.718 22.7674 77.6738 22.993 77.6738 23.2626V25.1666H77.0043V23.1162C77.0043 22.7581 76.9206 22.4885 76.7532 22.3071C76.5905 22.1258 76.3557 22.0351 76.0488 22.0351C75.8302 22.0351 75.6373 22.0816 75.4699 22.1746C75.3025 22.2676 75.1723 22.4048 75.0793 22.5861C74.9864 22.7674 74.9399 22.993 74.9399 23.2626V25.1666H74.2703V21.4702H74.912V22.4536L74.8073 22.2025C74.9236 21.9607 75.1026 21.7724 75.3444 21.6376C75.5861 21.5028 75.8674 21.4353 76.1883 21.4353C76.5416 21.4353 76.8462 21.5237 77.1019 21.7004C77.3576 21.8724 77.525 22.1351 77.6041 22.4885L77.3321 22.3769C77.4437 22.0933 77.6389 21.8654 77.9179 21.6934C78.1969 21.5214 78.5224 21.4353 78.8943 21.4353ZM83.3205 25.2085C83.0137 25.2085 82.7324 25.1387 82.4766 24.9992C82.2256 24.8551 82.0233 24.6435 81.8699 24.3646C81.7211 24.0856 81.6467 23.7369 81.6467 23.3184C81.6467 22.9 81.7188 22.5512 81.8629 22.2723C82.0117 21.9933 82.2116 21.7841 82.4627 21.6446C82.7184 21.5051 83.0044 21.4353 83.3205 21.4353C83.6832 21.4353 84.004 21.5144 84.283 21.6725C84.562 21.8306 84.7828 22.0514 84.9456 22.335C85.1083 22.614 85.1897 22.9418 85.1897 23.3184C85.1897 23.695 85.1083 24.0252 84.9456 24.3088C84.7828 24.5924 84.562 24.8133 84.283 24.9713C84.004 25.1294 83.6832 25.2085 83.3205 25.2085ZM81.3607 26.5197V21.4702H82.0024V22.4675L81.9605 23.3254L82.0303 24.1832V26.5197H81.3607ZM83.2647 24.6226C83.5019 24.6226 83.7134 24.5692 83.8994 24.4622C84.09 24.3553 84.2388 24.2042 84.3458 24.0089C84.4573 23.809 84.5131 23.5788 84.5131 23.3184C84.5131 23.0534 84.4573 22.8256 84.3458 22.6349C84.2388 22.4397 84.09 22.2885 83.8994 22.1816C83.7134 22.0747 83.5019 22.0212 83.2647 22.0212C83.0323 22.0212 82.8207 22.0747 82.6301 22.1816C82.4441 22.2885 82.2953 22.4397 82.1837 22.6349C82.0768 22.8256 82.0233 23.0534 82.0233 23.3184C82.0233 23.5788 82.0768 23.809 82.1837 24.0089C82.2953 24.2042 82.4441 24.3553 82.6301 24.4622C82.8207 24.5692 83.0323 24.6226 83.2647 24.6226ZM85.8358 25.1666V19.9917H86.5053V25.1666H85.8358ZM89.1507 25.2085C88.7554 25.2085 88.4067 25.1271 88.1045 24.9644C87.8069 24.8016 87.5745 24.5785 87.4071 24.2948C87.2443 24.0112 87.163 23.6857 87.163 23.3184C87.163 22.9511 87.242 22.6256 87.4001 22.342C87.5628 22.0584 87.7837 21.8375 88.0627 21.6794C88.3463 21.5167 88.6648 21.4353 89.0181 21.4353C89.3762 21.4353 89.6923 21.5144 89.9667 21.6725C90.241 21.8306 90.4549 22.0537 90.6083 22.342C90.7664 22.6256 90.8454 22.9581 90.8454 23.3393C90.8454 23.3672 90.8431 23.3998 90.8385 23.437C90.8385 23.4742 90.8361 23.5091 90.8315 23.5416H87.686V23.0604H90.4828L90.2108 23.2278C90.2154 22.9906 90.1666 22.7791 90.0643 22.5931C89.962 22.4071 89.8202 22.263 89.6389 22.1607C89.4622 22.0537 89.2553 22.0003 89.0181 22.0003C88.7857 22.0003 88.5788 22.0537 88.3974 22.1607C88.2161 22.263 88.0743 22.4094 87.972 22.6001C87.8697 22.786 87.8186 22.9999 87.8186 23.2417V23.3533C87.8186 23.5997 87.8743 23.8206 87.9859 24.0159C88.1022 24.2065 88.2626 24.3553 88.4672 24.4622C88.6718 24.5692 88.9066 24.6226 89.1716 24.6226C89.3901 24.6226 89.5877 24.5854 89.7644 24.511C89.9457 24.4366 90.1038 24.3251 90.2387 24.1763L90.6083 24.6087C90.4409 24.804 90.2317 24.9527 89.9806 25.055C89.7342 25.1573 89.4575 25.2085 89.1507 25.2085ZM92.7655 25.2085C92.3935 25.2085 92.1053 25.1085 91.9007 24.9086C91.6961 24.7086 91.5938 24.4227 91.5938 24.0507V20.6612H92.2633V24.0228C92.2633 24.2228 92.3122 24.3762 92.4098 24.4831C92.5121 24.5901 92.6562 24.6435 92.8422 24.6435C93.0515 24.6435 93.2258 24.5854 93.3653 24.4692L93.5745 24.9504C93.4722 25.0388 93.349 25.1039 93.2049 25.1457C93.0654 25.1875 92.9189 25.2085 92.7655 25.2085ZM90.9661 22.0212V21.4702H93.3235V22.0212H90.9661ZM94.105 25.1666V21.4702H94.7745V25.1666H94.105ZM94.4398 20.7588C94.3096 20.7588 94.2003 20.717 94.112 20.6333C94.0283 20.5496 93.9864 20.4473 93.9864 20.3264C93.9864 20.2009 94.0283 20.0963 94.112 20.0126C94.2003 19.9289 94.3096 19.887 94.4398 19.887C94.57 19.887 94.6769 19.9289 94.7606 20.0126C94.8489 20.0916 94.8931 20.1916 94.8931 20.3125C94.8931 20.438 94.8513 20.545 94.7676 20.6333C94.6839 20.717 94.5746 20.7588 94.4398 20.7588ZM97.3571 25.2085C96.9852 25.2085 96.6551 25.1271 96.3668 24.9644C96.0785 24.8016 95.8507 24.5785 95.6833 24.2948C95.5159 24.0066 95.4322 23.6811 95.4322 23.3184C95.4322 22.9511 95.5159 22.6256 95.6833 22.342C95.8507 22.0584 96.0785 21.8375 96.3668 21.6794C96.6551 21.5167 96.9852 21.4353 97.3571 21.4353C97.7245 21.4353 98.0522 21.5167 98.3405 21.6794C98.6334 21.8375 98.8613 22.0584 99.024 22.342C99.1914 22.621 99.2751 22.9465 99.2751 23.3184C99.2751 23.6857 99.1914 24.0112 99.024 24.2948C98.8613 24.5785 98.6334 24.8016 98.3405 24.9644C98.0522 25.1271 97.7245 25.2085 97.3571 25.2085ZM97.3571 24.6226C97.5943 24.6226 97.8058 24.5692 97.9918 24.4622C98.1824 24.3553 98.3312 24.2042 98.4382 24.0089C98.5451 23.809 98.5986 23.5788 98.5986 23.3184C98.5986 23.0534 98.5451 22.8256 98.4382 22.6349C98.3312 22.4397 98.1824 22.2885 97.9918 22.1816C97.8058 22.0747 97.5943 22.0212 97.3571 22.0212C97.12 22.0212 96.9085 22.0747 96.7225 22.1816C96.5365 22.2885 96.3877 22.4397 96.2761 22.6349C96.1645 22.8256 96.1087 23.0534 96.1087 23.3184C96.1087 23.5788 96.1645 23.809 96.2761 24.0089C96.3877 24.2042 96.5365 24.3553 96.7225 24.4622C96.9085 24.5692 97.12 24.6226 97.3571 24.6226ZM101.896 21.4353C102.198 21.4353 102.463 21.4935 102.691 21.6097C102.923 21.7259 103.105 21.9026 103.235 22.1398C103.365 22.3769 103.43 22.6768 103.43 23.0394V25.1666H102.761V23.1162C102.761 22.7581 102.672 22.4885 102.496 22.3071C102.324 22.1258 102.079 22.0351 101.763 22.0351C101.526 22.0351 101.319 22.0816 101.143 22.1746C100.966 22.2676 100.829 22.4048 100.731 22.5861C100.638 22.7674 100.592 22.993 100.592 23.2626V25.1666H99.9221V21.4702H100.564V22.4675L100.459 22.2025C100.58 21.9607 100.766 21.7724 101.017 21.6376C101.268 21.5028 101.561 21.4353 101.896 21.4353Z" fill="#1E1E1E"/>
<rect x="144.118" y="45.3076" width="38.359" height="13.9744" rx="6.97436" fill="#D42620"/>
<path d="M153.53 54.7948V49.9127H155.434C155.861 49.9127 156.226 49.9802 156.529 50.115C156.831 50.2498 157.063 50.4451 157.226 50.7009C157.389 50.9566 157.47 51.2611 157.47 51.6145C157.47 51.9679 157.389 52.2724 157.226 52.5281C157.063 52.7792 156.831 52.9745 156.529 53.114C156.226 53.2488 155.861 53.3162 155.434 53.3162H153.913L154.227 52.9884V54.7948H153.53ZM154.227 53.0582L153.913 52.7095H155.413C155.859 52.7095 156.196 52.6142 156.424 52.4235C156.657 52.2329 156.773 51.9632 156.773 51.6145C156.773 51.2658 156.657 50.9961 156.424 50.8055C156.196 50.6148 155.859 50.5195 155.413 50.5195H153.913L154.227 50.1708V53.0582ZM160.379 54.7948V54.0137L160.344 53.8672V52.5351C160.344 52.2515 160.26 52.033 160.093 51.8795C159.93 51.7214 159.684 51.6424 159.353 51.6424C159.135 51.6424 158.921 51.6796 158.712 51.754C158.503 51.8237 158.326 51.919 158.182 52.0399L157.903 51.5378C158.093 51.3843 158.321 51.2681 158.586 51.1891C158.856 51.1054 159.137 51.0635 159.43 51.0635C159.937 51.0635 160.328 51.1867 160.602 51.4332C160.876 51.6796 161.013 52.0562 161.013 52.563V54.7948H160.379ZM159.165 54.8366C158.891 54.8366 158.649 54.7902 158.44 54.6972C158.235 54.6042 158.077 54.4763 157.966 54.3136C157.854 54.1462 157.798 53.9579 157.798 53.7486C157.798 53.5487 157.845 53.3674 157.938 53.2046C158.035 53.0419 158.191 52.9117 158.405 52.8141C158.623 52.7164 158.916 52.6676 159.284 52.6676H160.455V53.1489H159.312C158.977 53.1489 158.751 53.2046 158.635 53.3162C158.519 53.4278 158.461 53.5627 158.461 53.7207C158.461 53.9021 158.533 54.0485 158.677 54.1601C158.821 54.2671 159.021 54.3205 159.277 54.3205C159.528 54.3205 159.746 54.2647 159.932 54.1532C160.123 54.0416 160.26 53.8788 160.344 53.665L160.476 54.1253C160.388 54.3438 160.232 54.5182 160.009 54.6483C159.786 54.7739 159.505 54.8366 159.165 54.8366ZM163.529 54.8366C163.213 54.8366 162.934 54.7785 162.692 54.6623C162.455 54.546 162.269 54.3694 162.134 54.1322C162.004 53.8905 161.939 53.5882 161.939 53.2256V51.0984H162.608V53.1489C162.608 53.5115 162.694 53.7835 162.866 53.9649C163.043 54.1462 163.289 54.2369 163.605 54.2369C163.838 54.2369 164.04 54.1904 164.212 54.0974C164.384 53.9997 164.517 53.8602 164.61 53.6789C164.703 53.4929 164.749 53.2697 164.749 53.0094V51.0984H165.419V54.7948H164.784V53.7975L164.889 54.0625C164.768 54.3089 164.587 54.4996 164.345 54.6344C164.103 54.7692 163.831 54.8366 163.529 54.8366ZM167.475 54.8366C167.168 54.8366 166.875 54.7948 166.596 54.7111C166.321 54.6274 166.105 54.5251 165.947 54.4042L166.226 53.8742C166.384 53.9811 166.579 54.0718 166.812 54.1462C167.044 54.2206 167.282 54.2578 167.523 54.2578C167.835 54.2578 168.058 54.2136 168.193 54.1253C168.332 54.0369 168.402 53.9137 168.402 53.7556C168.402 53.6394 168.36 53.5487 168.277 53.4836C168.193 53.4185 168.081 53.3697 167.942 53.3372C167.807 53.3046 167.656 53.2767 167.488 53.2535C167.321 53.2256 167.154 53.193 166.986 53.1558C166.819 53.114 166.665 53.0582 166.526 52.9884C166.387 52.914 166.275 52.8141 166.191 52.6885C166.108 52.5584 166.066 52.3863 166.066 52.1724C166.066 51.9493 166.128 51.754 166.254 51.5866C166.38 51.4192 166.556 51.2913 166.784 51.203C167.017 51.11 167.291 51.0635 167.607 51.0635C167.849 51.0635 168.093 51.0937 168.339 51.1542C168.59 51.21 168.795 51.2913 168.953 51.3983L168.667 51.9283C168.5 51.8167 168.325 51.74 168.144 51.6982C167.963 51.6563 167.781 51.6354 167.6 51.6354C167.307 51.6354 167.089 51.6842 166.944 51.7819C166.8 51.8749 166.728 51.9958 166.728 52.1445C166.728 52.2701 166.77 52.3677 166.854 52.4375C166.942 52.5026 167.054 52.5537 167.189 52.5909C167.328 52.6281 167.481 52.6606 167.649 52.6885C167.816 52.7118 167.984 52.7443 168.151 52.7862C168.318 52.8234 168.47 52.8769 168.604 52.9466C168.744 53.0163 168.855 53.114 168.939 53.2395C169.027 53.3651 169.072 53.5324 169.072 53.7417C169.072 53.9649 169.007 54.1578 168.876 54.3205C168.746 54.4833 168.563 54.6111 168.325 54.7041C168.088 54.7925 167.805 54.8366 167.475 54.8366ZM171.275 54.8366C170.88 54.8366 170.531 54.7553 170.229 54.5925C169.932 54.4298 169.699 54.2066 169.532 53.923C169.369 53.6394 169.288 53.3139 169.288 52.9466C169.288 52.5793 169.367 52.2538 169.525 51.9702C169.688 51.6866 169.908 51.4657 170.187 51.3076C170.471 51.1449 170.79 51.0635 171.143 51.0635C171.501 51.0635 171.817 51.1426 172.091 51.3006C172.366 51.4587 172.58 51.6819 172.733 51.9702C172.891 52.2538 172.97 52.5863 172.97 52.9675C172.97 52.9954 172.968 53.028 172.963 53.0652C172.963 53.1024 172.961 53.1372 172.956 53.1698H169.811V52.6885H172.607L172.335 52.8559C172.34 52.6188 172.291 52.4072 172.189 52.2213C172.087 52.0353 171.945 51.8911 171.764 51.7889C171.587 51.6819 171.38 51.6284 171.143 51.6284C170.91 51.6284 170.703 51.6819 170.522 51.7889C170.341 51.8911 170.199 52.0376 170.097 52.2282C169.994 52.4142 169.943 52.6281 169.943 52.8699V52.9815C169.943 53.2279 169.999 53.4487 170.111 53.644C170.227 53.8347 170.387 53.9834 170.592 54.0904C170.796 54.1973 171.031 54.2508 171.296 54.2508C171.515 54.2508 171.712 54.2136 171.889 54.1392C172.07 54.0648 172.229 53.9532 172.363 53.8044L172.733 54.2369C172.566 54.4321 172.356 54.5809 172.105 54.6832C171.859 54.7855 171.582 54.8366 171.275 54.8366Z" fill="white"/>
<g clip-path="url(#clip0_1115_5385)">
<path d="M163.81 14.3717H165.99M162.502 14.3717H162.506M164.682 16.1153H162.502M165.99 16.1153H165.986" stroke="#1E1E1E" stroke-width="0.653846" stroke-linecap="round" stroke-linejoin="round"/>
<path d="M166.861 9.5769V10.4487M161.631 9.5769V10.4487" stroke="#1E1E1E" stroke-width="0.653846" stroke-linecap="round" stroke-linejoin="round"/>
<path d="M160.105 14.0419C160.105 12.1426 160.105 11.1929 160.651 10.6029C161.197 10.0128 162.075 10.0128 163.832 10.0128H164.66C166.417 10.0128 167.295 10.0128 167.841 10.6029C168.387 11.1929 168.387 12.1426 168.387 14.0419V14.2658C168.387 16.1651 168.387 17.1148 167.841 17.7048C167.295 18.2949 166.417 18.2949 164.66 18.2949H163.832C162.075 18.2949 161.197 18.2949 160.651 17.7048C160.105 17.1148 160.105 16.1651 160.105 14.2658V14.0419Z" stroke="#1E1E1E" stroke-width="0.653846" stroke-linecap="round" stroke-linejoin="round"/>
<path d="M160.323 12.1923H168.169" stroke="#1E1E1E" stroke-width="0.653846" stroke-linecap="round" stroke-linejoin="round"/>
</g>
<path d="M14.9948 46.3461V40.4353L15.1953 40.6445H13.504V40.2435H15.4394V46.3461H14.9948ZM17.022 42.5015C16.9232 42.5015 16.836 42.4666 16.7605 42.3968C16.6907 42.3213 16.6559 42.2312 16.6559 42.1266C16.6559 42.022 16.6907 41.9348 16.7605 41.865C16.836 41.7953 16.9232 41.7604 17.022 41.7604C17.1208 41.7604 17.2051 41.7953 17.2749 41.865C17.3504 41.9348 17.3882 42.022 17.3882 42.1266C17.3882 42.2312 17.3504 42.3213 17.2749 42.3968C17.2051 42.4666 17.1208 42.5015 17.022 42.5015ZM17.022 46.3809C16.9232 46.3809 16.836 46.3461 16.7605 46.2763C16.6907 46.2008 16.6559 46.1107 16.6559 46.0061C16.6559 45.9015 16.6907 45.8143 16.7605 45.7445C16.836 45.6748 16.9232 45.6399 17.022 45.6399C17.1208 45.6399 17.2051 45.6748 17.2749 45.7445C17.3504 45.8143 17.3882 45.9015 17.3882 46.0061C17.3882 46.1107 17.3504 46.2008 17.2749 46.2763C17.2051 46.3461 17.1208 46.3809 17.022 46.3809ZM19.8135 46.3897C19.366 46.3897 18.9475 46.3141 18.5581 46.163C18.1745 46.0119 17.8752 45.8143 17.6601 45.5702L17.8868 45.2302C18.0728 45.4452 18.3343 45.6254 18.6714 45.7707C19.0143 45.9102 19.395 45.9799 19.8135 45.9799C20.3598 45.9799 20.7754 45.8579 21.0601 45.6138C21.3507 45.3697 21.496 45.0413 21.496 44.6286C21.496 44.2218 21.3507 43.8963 21.0601 43.6522C20.7754 43.4023 20.3278 43.2774 19.7176 43.2774H19.334V42.9548L21.2781 40.4702L21.3391 40.6445H17.8868V40.2435H21.714V40.5574L19.7786 43.042L19.5868 42.9025H19.7786C20.5051 42.9025 21.0485 43.0623 21.4089 43.382C21.7692 43.7016 21.9494 44.1172 21.9494 44.6286C21.9494 44.9657 21.868 45.2679 21.7053 45.5353C21.5483 45.8027 21.3101 46.0119 20.9904 46.163C20.6766 46.3141 20.2842 46.3897 19.8135 46.3897ZM24.9276 46.3897C24.4626 46.3897 24.05 46.2647 23.6896 46.0148C23.3293 45.7649 23.0474 45.4103 22.844 44.9512C22.6406 44.4862 22.5389 43.9341 22.5389 43.2948C22.5389 42.6555 22.6406 42.1062 22.844 41.6471C23.0474 41.1821 23.3293 40.8247 23.6896 40.5748C24.05 40.3249 24.4626 40.1999 24.9276 40.1999C25.3983 40.1999 25.811 40.3249 26.1655 40.5748C26.5259 40.8247 26.8077 41.1821 27.0112 41.6471C27.2146 42.1062 27.3163 42.6555 27.3163 43.2948C27.3163 43.9341 27.2146 44.4862 27.0112 44.9512C26.8077 45.4103 26.5259 45.7649 26.1655 46.0148C25.811 46.2647 25.3983 46.3897 24.9276 46.3897ZM24.9276 45.9799C25.317 45.9799 25.657 45.8753 25.9476 45.6661C26.2382 45.451 26.4648 45.143 26.6276 44.742C26.7903 44.3409 26.8717 43.8585 26.8717 43.2948C26.8717 42.7252 26.7903 42.2428 26.6276 41.8476C26.4648 41.4466 26.2382 41.1415 25.9476 40.9322C25.657 40.7172 25.317 40.6097 24.9276 40.6097C24.544 40.6097 24.204 40.7172 23.9076 40.9322C23.617 41.1415 23.3903 41.4466 23.2276 41.8476C23.0648 42.2428 22.9835 42.7252 22.9835 43.2948C22.9835 43.8585 23.0648 44.3409 23.2276 44.742C23.3903 45.143 23.617 45.451 23.9076 45.6661C24.204 45.8753 24.544 45.9799 24.9276 45.9799Z" fill="#1E1E1E"/>
<path d="M29.3947 46.3775C29.1645 46.3775 28.9536 46.3251 28.7618 46.2205C28.5734 46.1124 28.4218 45.9538 28.3067 45.7445C28.1951 45.5353 28.1393 45.2738 28.1393 44.9599C28.1393 44.6461 28.1933 44.3845 28.3014 44.1753C28.413 43.9661 28.563 43.8091 28.7513 43.7045C28.9431 43.5999 29.1576 43.5476 29.3947 43.5476C29.6667 43.5476 29.9073 43.6069 30.1165 43.7255C30.3258 43.844 30.4914 44.0097 30.6134 44.2224C30.7355 44.4316 30.7965 44.6775 30.7965 44.9599C30.7965 45.2424 30.7355 45.49 30.6134 45.7027C30.4914 45.9154 30.3258 46.081 30.1165 46.1996C29.9073 46.3182 29.6667 46.3775 29.3947 46.3775ZM27.9248 47.3608V43.5738H28.4061V44.3218L28.3747 44.9651L28.427 45.6085V47.3608H27.9248ZM29.3528 45.9381C29.5307 45.9381 29.6893 45.898 29.8288 45.8178C29.9718 45.7376 30.0834 45.6242 30.1636 45.4778C30.2473 45.3278 30.2891 45.1552 30.2891 44.9599C30.2891 44.7611 30.2473 44.5903 30.1636 44.4473C30.0834 44.3008 29.9718 44.1875 29.8288 44.1073C29.6893 44.0271 29.5307 43.987 29.3528 43.987C29.1785 43.987 29.0198 44.0271 28.8768 44.1073C28.7373 44.1875 28.6258 44.3008 28.5421 44.4473C28.4619 44.5903 28.4218 44.7611 28.4218 44.9599C28.4218 45.1552 28.4619 45.3278 28.5421 45.4778C28.6258 45.6242 28.7373 45.7376 28.8768 45.8178C29.0198 45.898 29.1785 45.9381 29.3528 45.9381ZM34.7491 43.5476C34.9723 43.5476 35.1693 43.5912 35.3402 43.6784C35.5111 43.7656 35.6436 43.8981 35.7377 44.0759C35.8354 44.2538 35.8842 44.4787 35.8842 44.7507V46.3461H35.382V44.8082C35.382 44.5397 35.3193 44.3375 35.1937 44.2015C35.0682 44.0655 34.8921 43.9975 34.6654 43.9975C34.498 43.9975 34.3516 44.0323 34.226 44.1021C34.1005 44.1718 34.0029 44.2747 33.9331 44.4107C33.8669 44.5467 33.8337 44.7158 33.8337 44.9181V46.3461H33.3316V44.8082C33.3316 44.5397 33.2688 44.3375 33.1433 44.2015C33.0212 44.0655 32.8451 43.9975 32.615 43.9975C32.4511 43.9975 32.3063 44.0323 32.1808 44.1021C32.0553 44.1718 31.9576 44.2747 31.8879 44.4107C31.8181 44.5467 31.7833 44.7158 31.7833 44.9181V46.3461H31.2811V43.5738H31.7623V44.3113L31.6839 44.123C31.7711 43.9417 31.9053 43.8004 32.0866 43.6993C32.268 43.5982 32.479 43.5476 32.7196 43.5476C32.9846 43.5476 33.213 43.6139 33.4048 43.7464C33.5966 43.8754 33.7221 44.0724 33.7814 44.3375L33.5774 44.2538C33.6611 44.041 33.8076 43.8702 34.0168 43.7411C34.226 43.6121 34.4701 43.5476 34.7491 43.5476Z" fill="#1E1E1E"/>
<path d="M29.3947 46.3775C29.1645 46.3775 28.9536 46.3251 28.7618 46.2205C28.5734 46.1124 28.4218 45.9538 28.3067 45.7445C28.1951 45.5353 28.1393 45.2738 28.1393 44.9599C28.1393 44.6461 28.1933 44.3845 28.3014 44.1753C28.413 43.9661 28.563 43.8091 28.7513 43.7045C28.9431 43.5999 29.1576 43.5476 29.3947 43.5476C29.6667 43.5476 29.9073 43.6069 30.1165 43.7255C30.3258 43.844 30.4914 44.0097 30.6134 44.2224C30.7355 44.4316 30.7965 44.6775 30.7965 44.9599C30.7965 45.2424 30.7355 45.49 30.6134 45.7027C30.4914 45.9154 30.3258 46.081 30.1165 46.1996C29.9073 46.3182 29.6667 46.3775 29.3947 46.3775ZM27.9248 47.3608V43.5738H28.4061V44.3218L28.3747 44.9651L28.427 45.6085V47.3608H27.9248ZM29.3528 45.9381C29.5307 45.9381 29.6893 45.898 29.8288 45.8178C29.9718 45.7376 30.0834 45.6242 30.1636 45.4778C30.2473 45.3278 30.2891 45.1552 30.2891 44.9599C30.2891 44.7611 30.2473 44.5903 30.1636 44.4473C30.0834 44.3008 29.9718 44.1875 29.8288 44.1073C29.6893 44.0271 29.5307 43.987 29.3528 43.987C29.1785 43.987 29.0198 44.0271 28.8768 44.1073C28.7373 44.1875 28.6258 44.3008 28.5421 44.4473C28.4619 44.5903 28.4218 44.7611 28.4218 44.9599C28.4218 45.1552 28.4619 45.3278 28.5421 45.4778C28.6258 45.6242 28.7373 45.7376 28.8768 45.8178C29.0198 45.898 29.1785 45.9381 29.3528 45.9381ZM34.7491 43.5476C34.9723 43.5476 35.1693 43.5912 35.3402 43.6784C35.5111 43.7656 35.6436 43.8981 35.7377 44.0759C35.8354 44.2538 35.8842 44.4787 35.8842 44.7507V46.3461H35.382V44.8082C35.382 44.5397 35.3193 44.3375 35.1937 44.2015C35.0682 44.0655 34.8921 43.9975 34.6654 43.9975C34.498 43.9975 34.3516 44.0323 34.226 44.1021C34.1005 44.1718 34.0029 44.2747 33.9331 44.4107C33.8669 44.5467 33.8337 44.7158 33.8337 44.9181V46.3461H33.3316V44.8082C33.3316 44.5397 33.2688 44.3375 33.1433 44.2015C33.0212 44.0655 32.8451 43.9975 32.615 43.9975C32.4511 43.9975 32.3063 44.0323 32.1808 44.1021C32.0553 44.1718 31.9576 44.2747 31.8879 44.4107C31.8181 44.5467 31.7833 44.7158 31.7833 44.9181V46.3461H31.2811V43.5738H31.7623V44.3113L31.6839 44.123C31.7711 43.9417 31.9053 43.8004 32.0866 43.6993C32.268 43.5982 32.479 43.5476 32.7196 43.5476C32.9846 43.5476 33.213 43.6139 33.4048 43.7464C33.5966 43.8754 33.7221 44.0724 33.7814 44.3375L33.5774 44.2538C33.6611 44.041 33.8076 43.8702 34.0168 43.7411C34.226 43.6121 34.4701 43.5476 34.7491 43.5476Z" fill="black" fill-opacity="0.2"/>
<path d="M20.0523 54.8856C19.7664 54.8856 19.4926 54.8455 19.2311 54.7653C18.9695 54.6816 18.762 54.5752 18.6086 54.4462L18.844 53.9179C18.9905 54.0329 19.1718 54.1288 19.388 54.2056C19.6042 54.2823 19.8256 54.3206 20.0523 54.3206C20.2441 54.3206 20.3993 54.2997 20.5178 54.2579C20.6364 54.216 20.7236 54.1602 20.7794 54.0905C20.8352 54.0173 20.8631 53.9353 20.8631 53.8446C20.8631 53.733 20.823 53.6441 20.7428 53.5779C20.6626 53.5081 20.5579 53.4541 20.4289 53.4157C20.3034 53.3739 20.1622 53.3355 20.0052 53.3006C19.8518 53.2658 19.6966 53.2257 19.5397 53.1803C19.3863 53.1315 19.245 53.0705 19.116 52.9973C18.9905 52.9205 18.8876 52.8194 18.8074 52.6939C18.7272 52.5683 18.6871 52.4079 18.6871 52.2126C18.6871 52.0139 18.7394 51.8325 18.844 51.6686C18.9521 51.5013 19.1143 51.3687 19.3305 51.2711C19.5502 51.17 19.8274 51.1194 20.1622 51.1194C20.3818 51.1194 20.5998 51.1473 20.816 51.2031C21.0322 51.2589 21.2205 51.3391 21.3809 51.4437L21.1665 51.972C21.0026 51.8744 20.8334 51.8029 20.6591 51.7576C20.4847 51.7087 20.3173 51.6843 20.1569 51.6843C19.9686 51.6843 19.8152 51.707 19.6966 51.7523C19.5815 51.7977 19.4961 51.8569 19.4403 51.9302C19.388 52.0034 19.3618 52.0871 19.3618 52.1813C19.3618 52.2928 19.4002 52.3835 19.4769 52.4533C19.5571 52.5195 19.66 52.5718 19.7855 52.6102C19.9146 52.6485 20.0575 52.6869 20.2145 52.7253C20.3714 52.7601 20.5266 52.8002 20.68 52.8456C20.8369 52.8909 20.9782 52.9502 21.1037 53.0234C21.2327 53.0966 21.3356 53.196 21.4123 53.3216C21.4925 53.4471 21.5326 53.6058 21.5326 53.7976C21.5326 53.9928 21.4786 54.1742 21.3705 54.3416C21.2658 54.5055 21.1037 54.638 20.884 54.7391C20.6643 54.8367 20.3871 54.8856 20.0523 54.8856ZM22.9863 54.8699C22.6794 54.8699 22.4423 54.7914 22.2749 54.6345C22.1075 54.4741 22.0238 54.2387 22.0238 53.9283V51.4228H22.6777V53.9126C22.6777 54.0451 22.7108 54.148 22.777 54.2213C22.8468 54.2945 22.9427 54.3311 23.0647 54.3311C23.2112 54.3311 23.3333 54.2927 23.4309 54.216L23.614 54.6816C23.5373 54.7443 23.4431 54.7914 23.3315 54.8228C23.2199 54.8542 23.1048 54.8699 22.9863 54.8699ZM21.5635 52.584V52.0609H23.4257V52.584H21.5635ZM25.6635 54.8333V54.2683L25.6269 54.148V53.1594C25.6269 52.9676 25.5694 52.8194 25.4543 52.7148C25.3392 52.6067 25.1649 52.5526 24.9312 52.5526C24.7743 52.5526 24.6191 52.577 24.4657 52.6259C24.3157 52.6747 24.1885 52.7427 24.0838 52.8299L23.8275 52.3539C23.9775 52.2388 24.1553 52.1534 24.3611 52.0976C24.5703 52.0383 24.7865 52.0086 25.0097 52.0086C25.4142 52.0086 25.7263 52.1063 25.946 52.3016C26.1692 52.4934 26.2808 52.7915 26.2808 53.196V54.8333H25.6635ZM24.7848 54.8699C24.5755 54.8699 24.3925 54.835 24.2355 54.7653C24.0786 54.692 23.9566 54.5926 23.8694 54.4671C23.7857 54.3381 23.7438 54.1934 23.7438 54.0329C23.7438 53.876 23.7805 53.7348 23.8537 53.6093C23.9304 53.4837 24.0542 53.3843 24.2251 53.3111C24.3959 53.2379 24.6226 53.2013 24.9051 53.2013H25.7158V53.6354H24.9521C24.729 53.6354 24.579 53.672 24.5023 53.7453C24.4256 53.815 24.3872 53.9022 24.3872 54.0068C24.3872 54.1254 24.4343 54.2195 24.5285 54.2893C24.6226 54.359 24.7534 54.3939 24.9208 54.3939C25.0812 54.3939 25.2241 54.3573 25.3497 54.284C25.4787 54.2108 25.5711 54.1027 25.6269 53.9597L25.7368 54.352C25.674 54.5159 25.5607 54.6432 25.3968 54.7339C25.2364 54.8245 25.0324 54.8699 24.7848 54.8699ZM26.9107 54.8333V52.04H27.5331V52.8089L27.4599 52.584C27.5436 52.3957 27.6744 52.2527 27.8522 52.1551C28.0335 52.0575 28.2585 52.0086 28.527 52.0086V52.6311C28.4991 52.6241 28.4729 52.6206 28.4485 52.6206C28.4241 52.6171 28.3997 52.6154 28.3753 52.6154C28.1277 52.6154 27.9307 52.6886 27.7842 52.8351C27.6377 52.9781 27.5645 53.1925 27.5645 53.4785V54.8333H26.9107ZM30.026 54.8699C29.7191 54.8699 29.482 54.7914 29.3146 54.6345C29.1472 54.4741 29.0635 54.2387 29.0635 53.9283V51.4228H29.7173V53.9126C29.7173 54.0451 29.7505 54.148 29.8167 54.2213C29.8865 54.2945 29.9824 54.3311 30.1044 54.3311C30.2509 54.3311 30.3729 54.2927 30.4706 54.216L30.6536 54.6816C30.5769 54.7443 30.4828 54.7914 30.3712 54.8228C30.2596 54.8542 30.1445 54.8699 30.026 54.8699ZM28.6032 52.584V52.0609H30.4653V52.584H28.6032Z" fill="#1E1E1E"/>
<path d="M46.7041 46.3461L49.3892 40.4527L49.5461 40.6445H45.6492L45.8759 40.4353V41.8127H45.44V40.2435H49.8164V40.5574L47.1923 46.3461H46.7041ZM50.562 42.5015C50.4632 42.5015 50.376 42.4666 50.3004 42.3968C50.2307 42.3213 50.1958 42.2312 50.1958 42.1266C50.1958 42.022 50.2307 41.9348 50.3004 41.865C50.376 41.7953 50.4632 41.7604 50.562 41.7604C50.6608 41.7604 50.745 41.7953 50.8148 41.865C50.8903 41.9348 50.9281 42.022 50.9281 42.1266C50.9281 42.2312 50.8903 42.3213 50.8148 42.3968C50.745 42.4666 50.6608 42.5015 50.562 42.5015ZM50.562 46.3809C50.4632 46.3809 50.376 46.3461 50.3004 46.2763C50.2307 46.2008 50.1958 46.1107 50.1958 46.0061C50.1958 45.9015 50.2307 45.8143 50.3004 45.7445C50.376 45.6748 50.4632 45.6399 50.562 45.6399C50.6608 45.6399 50.745 45.6748 50.8148 45.7445C50.8903 45.8143 50.9281 45.9015 50.9281 46.0061C50.9281 46.1107 50.8903 46.2008 50.8148 46.2763C50.745 46.3461 50.6608 46.3809 50.562 46.3809ZM53.9549 46.3897C53.49 46.3897 53.0773 46.2647 52.717 46.0148C52.3567 45.7649 52.0748 45.4103 51.8714 44.9512C51.6679 44.4862 51.5662 43.9341 51.5662 43.2948C51.5662 42.6555 51.6679 42.1062 51.8714 41.6471C52.0748 41.1821 52.3567 40.8247 52.717 40.5748C53.0773 40.3249 53.49 40.1999 53.9549 40.1999C54.4257 40.1999 54.8384 40.3249 55.1929 40.5748C55.5532 40.8247 55.8351 41.1821 56.0385 41.6471C56.242 42.1062 56.3437 42.6555 56.3437 43.2948C56.3437 43.9341 56.242 44.4862 56.0385 44.9512C55.8351 45.4103 55.5532 45.7649 55.1929 46.0148C54.8384 46.2647 54.4257 46.3897 53.9549 46.3897ZM53.9549 45.9799C54.3444 45.9799 54.6844 45.8753 54.9749 45.6661C55.2655 45.451 55.4922 45.143 55.6549 44.742C55.8177 44.3409 55.8991 43.8585 55.8991 43.2948C55.8991 42.7252 55.8177 42.2428 55.6549 41.8476C55.4922 41.4466 55.2655 41.1415 54.9749 40.9322C54.6844 40.7172 54.3444 40.6097 53.9549 40.6097C53.5714 40.6097 53.2314 40.7172 52.9349 40.9322C52.6444 41.1415 52.4177 41.4466 52.2549 41.8476C52.0922 42.2428 52.0108 42.7252 52.0108 43.2948C52.0108 43.8585 52.0922 44.3409 52.2549 44.742C52.4177 45.143 52.6444 45.451 52.9349 45.6661C53.2314 45.8753 53.5714 45.9799 53.9549 45.9799ZM59.3444 46.3897C58.8795 46.3897 58.4668 46.2647 58.1065 46.0148C57.7461 45.7649 57.4642 45.4103 57.2608 44.9512C57.0574 44.4862 56.9557 43.9341 56.9557 43.2948C56.9557 42.6555 57.0574 42.1062 57.2608 41.6471C57.4642 41.1821 57.7461 40.8247 58.1065 40.5748C58.4668 40.3249 58.8795 40.1999 59.3444 40.1999C59.8152 40.1999 60.2278 40.3249 60.5824 40.5748C60.9427 40.8247 61.2246 41.1821 61.428 41.6471C61.6314 42.1062 61.7331 42.6555 61.7331 43.2948C61.7331 43.9341 61.6314 44.4862 61.428 44.9512C61.2246 45.4103 60.9427 45.7649 60.5824 46.0148C60.2278 46.2647 59.8152 46.3897 59.3444 46.3897ZM59.3444 45.9799C59.7338 45.9799 60.0738 45.8753 60.3644 45.6661C60.655 45.451 60.8817 45.143 61.0444 44.742C61.2071 44.3409 61.2885 43.8585 61.2885 43.2948C61.2885 42.7252 61.2071 42.2428 61.0444 41.8476C60.8817 41.4466 60.655 41.1415 60.3644 40.9322C60.0738 40.7172 59.7338 40.6097 59.3444 40.6097C58.9608 40.6097 58.6208 40.7172 58.3244 40.9322C58.0338 41.1415 57.8071 41.4466 57.6444 41.8476C57.4817 42.2428 57.4003 42.7252 57.4003 43.2948C57.4003 43.8585 57.4817 44.3409 57.6444 44.742C57.8071 45.143 58.0338 45.451 58.3244 45.6661C58.6208 45.8753 58.9608 45.9799 59.3444 45.9799ZM63.8115 46.3775C63.5814 46.3775 63.3704 46.3251 63.1786 46.2205C62.9903 46.1124 62.8386 45.9538 62.7235 45.7445C62.6119 45.5353 62.5561 45.2738 62.5561 44.9599C62.5561 44.6461 62.6102 44.3845 62.7183 44.1753C62.8299 43.9661 62.9798 43.8091 63.1681 43.7045C63.3599 43.5999 63.5744 43.5476 63.8115 43.5476C64.0835 43.5476 64.3241 43.6069 64.5334 43.7255C64.7426 43.844 64.9082 44.0097 65.0303 44.2224C65.1523 44.4316 65.2134 44.6775 65.2134 44.9599C65.2134 45.2424 65.1523 45.49 65.0303 45.7027C64.9082 45.9154 64.7426 46.081 64.5334 46.1996C64.3241 46.3182 64.0835 46.3775 63.8115 46.3775ZM62.3417 47.3608V43.5738H62.8229V44.3218L62.7915 44.9651L62.8438 45.6085V47.3608H62.3417ZM63.7697 45.9381C63.9475 45.9381 64.1062 45.898 64.2457 45.8178C64.3886 45.7376 64.5002 45.6242 64.5804 45.4778C64.6641 45.3278 64.706 45.1552 64.706 44.9599C64.706 44.7611 64.6641 44.5903 64.5804 44.4473C64.5002 44.3008 64.3886 44.1875 64.2457 44.1073C64.1062 44.0271 63.9475 43.987 63.7697 43.987C63.5953 43.987 63.4366 44.0271 63.2937 44.1073C63.1542 44.1875 63.0426 44.3008 62.9589 44.4473C62.8787 44.5903 62.8386 44.7611 62.8386 44.9599C62.8386 45.1552 62.8787 45.3278 62.9589 45.4778C63.0426 45.6242 63.1542 45.7376 63.2937 45.8178C63.4366 45.898 63.5953 45.9381 63.7697 45.9381ZM69.1659 43.5476C69.3891 43.5476 69.5862 43.5912 69.757 43.6784C69.9279 43.7656 70.0604 43.8981 70.1546 44.0759C70.2522 44.2538 70.301 44.4787 70.301 44.7507V46.3461H69.7989V44.8082C69.7989 44.5397 69.7361 44.3375 69.6106 44.2015C69.485 44.0655 69.3089 43.9975 69.0823 43.9975C68.9149 43.9975 68.7684 44.0323 68.6429 44.1021C68.5173 44.1718 68.4197 44.2747 68.3499 44.4107C68.2837 44.5467 68.2506 44.7158 68.2506 44.9181V46.3461H67.7484V44.8082C67.7484 44.5397 67.6856 44.3375 67.5601 44.2015C67.438 44.0655 67.2619 43.9975 67.0318 43.9975C66.8679 43.9975 66.7232 44.0323 66.5976 44.1021C66.4721 44.1718 66.3745 44.2747 66.3047 44.4107C66.235 44.5467 66.2001 44.7158 66.2001 44.9181V46.3461H65.6979V43.5738H66.1792V44.3113L66.1007 44.123C66.1879 43.9417 66.3221 43.8004 66.5035 43.6993C66.6848 43.5982 66.8958 43.5476 67.1364 43.5476C67.4014 43.5476 67.6298 43.6139 67.8216 43.7464C68.0134 43.8754 68.139 44.0724 68.1983 44.3375L67.9943 44.2538C68.0779 44.041 68.2244 43.8702 68.4336 43.7411C68.6429 43.6121 68.887 43.5476 69.1659 43.5476Z" fill="#1E1E1E"/>
<path d="M51.2577 52.856H53.0832V53.4314H51.2577V52.856ZM51.3152 54.8333H50.6352V51.1717H53.3082V51.7419H51.3152V54.8333ZM53.6938 54.8333V52.04H54.3476V54.8333H53.6938ZM54.0233 51.5797C53.9013 51.5797 53.8001 51.5414 53.7199 51.4646C53.6432 51.3879 53.6049 51.2955 53.6049 51.1874C53.6049 51.0758 53.6432 50.9834 53.7199 50.9102C53.8001 50.8335 53.9013 50.7951 54.0233 50.7951C54.1454 50.7951 54.2448 50.8317 54.3215 50.9049C54.4017 50.9747 54.4418 51.0636 54.4418 51.1717C54.4418 51.2868 54.4034 51.3844 54.3267 51.4646C54.25 51.5414 54.1489 51.5797 54.0233 51.5797ZM56.5815 52.0086C56.8047 52.0086 57.0034 52.0522 57.1778 52.1394C57.3556 52.2266 57.4951 52.3608 57.5963 52.5422C57.6974 52.72 57.7479 52.9502 57.7479 53.2326V54.8333H57.0941V53.3163C57.0941 53.0687 57.0348 52.8839 56.9163 52.7619C56.8012 52.6398 56.639 52.5788 56.4298 52.5788C56.2764 52.5788 56.1404 52.6102 56.0218 52.6729C55.9032 52.7357 55.8108 52.8299 55.7446 52.9554C55.6818 53.0775 55.6504 53.2326 55.6504 53.4209V54.8333H54.9966V52.04H55.619V52.7933L55.5092 52.5631C55.6068 52.3853 55.7481 52.2493 55.9329 52.1551C56.1212 52.0575 56.3374 52.0086 56.5815 52.0086ZM58.3682 54.8333V52.04H59.022V54.8333H58.3682ZM58.6977 51.5797C58.5756 51.5797 58.4745 51.5414 58.3943 51.4646C58.3176 51.3879 58.2792 51.2955 58.2792 51.1874C58.2792 51.0758 58.3176 50.9834 58.3943 50.9102C58.4745 50.8335 58.5756 50.7951 58.6977 50.7951C58.8198 50.7951 58.9191 50.8317 58.9959 50.9049C59.0761 50.9747 59.1162 51.0636 59.1162 51.1717C59.1162 51.2868 59.0778 51.3844 59.0011 51.4646C58.9244 51.5414 58.8232 51.5797 58.6977 51.5797ZM60.534 54.8699C60.3004 54.8699 60.0755 54.8402 59.8593 54.7809C59.6465 54.7182 59.4774 54.6432 59.3519 54.556L59.603 54.0591C59.7285 54.1393 59.8784 54.2056 60.0528 54.2579C60.2272 54.3102 60.4015 54.3363 60.5759 54.3363C60.7816 54.3363 60.9298 54.3084 61.0205 54.2526C61.1146 54.1968 61.1617 54.1219 61.1617 54.0277C61.1617 53.951 61.1303 53.8935 61.0676 53.8551C61.0048 53.8133 60.9228 53.7819 60.8217 53.7609C60.7206 53.74 60.6073 53.7208 60.4817 53.7034C60.3597 53.686 60.2359 53.6633 60.1103 53.6354C59.9883 53.604 59.8767 53.5604 59.7756 53.5046C59.6744 53.4454 59.5925 53.3669 59.5297 53.2693C59.467 53.1716 59.4356 53.0426 59.4356 52.8822C59.4356 52.7043 59.4861 52.5509 59.5873 52.4219C59.6884 52.2894 59.8296 52.1882 60.011 52.1185C60.1958 52.0453 60.4137 52.0086 60.6648 52.0086C60.8531 52.0086 61.0432 52.0296 61.235 52.0714C61.4267 52.1133 61.5854 52.1725 61.711 52.2493L61.4599 52.7462C61.3274 52.666 61.1931 52.6119 61.0571 52.584C60.9246 52.5526 60.7921 52.5369 60.6596 52.5369C60.4608 52.5369 60.3126 52.5666 60.215 52.6259C60.1208 52.6851 60.0737 52.7601 60.0737 52.8508C60.0737 52.9345 60.1051 52.9973 60.1679 53.0391C60.2306 53.0809 60.3126 53.1141 60.4137 53.1385C60.5148 53.1629 60.6264 53.1838 60.7485 53.2013C60.874 53.2152 60.9978 53.2379 61.1199 53.2693C61.2419 53.3006 61.3535 53.3442 61.4546 53.4C61.5593 53.4523 61.643 53.5273 61.7057 53.6249C61.7685 53.7226 61.7999 53.8499 61.7999 54.0068C61.7999 54.1811 61.7476 54.3328 61.643 54.4619C61.5418 54.5909 61.3971 54.692 61.2088 54.7653C61.0205 54.835 60.7956 54.8699 60.534 54.8699ZM63.7387 52.0086C63.9618 52.0086 64.1606 52.0522 64.335 52.1394C64.5128 52.2266 64.6523 52.3608 64.7534 52.5422C64.8545 52.72 64.9051 52.9502 64.9051 53.2326V54.8333H64.2513V53.3163C64.2513 53.0687 64.192 52.8839 64.0734 52.7619C63.9583 52.6398 63.7962 52.5788 63.587 52.5788C63.4335 52.5788 63.2975 52.6102 63.179 52.6729C63.0604 52.7357 62.968 52.8299 62.9017 52.9554C62.839 53.0775 62.8076 53.2326 62.8076 53.4209V54.8333H62.1537V50.952H62.8076V52.7933L62.6663 52.5631C62.764 52.3853 62.9052 52.2493 63.09 52.1551C63.2783 52.0575 63.4945 52.0086 63.7387 52.0086Z" fill="#1E1E1E"/>
<path d="M82.7121 46.3809C82.253 46.3809 81.8432 46.256 81.4829 46.0061C81.1283 45.7503 80.8523 45.3929 80.6547 44.9338C80.4571 44.4688 80.3583 43.9225 80.3583 43.2948C80.3583 42.6671 80.4571 42.1237 80.6547 41.6645C80.8523 41.1996 81.1283 40.8421 81.4829 40.5922C81.8432 40.3365 82.253 40.2086 82.7121 40.2086C83.1829 40.2086 83.5926 40.3365 83.9413 40.5922C84.2959 40.8421 84.5719 41.1996 84.7695 41.6645C84.9671 42.1237 85.0659 42.6671 85.0659 43.2948C85.0659 43.9225 84.9671 44.4688 84.7695 44.9338C84.5719 45.3929 84.2959 45.7503 83.9413 46.0061C83.5926 46.256 83.1829 46.3809 82.7121 46.3809ZM82.7121 46.1107C83.1247 46.1107 83.4851 45.9974 83.7931 45.7707C84.1012 45.544 84.3424 45.2215 84.5167 44.803C84.6911 44.3787 84.7783 43.876 84.7783 43.2948C84.7783 42.7078 84.6911 42.205 84.5167 41.7866C84.3424 41.3681 84.1012 41.0456 83.7931 40.8189C83.4851 40.5922 83.1247 40.4789 82.7121 40.4789C82.3053 40.4789 81.9449 40.5922 81.6311 40.8189C81.323 41.0456 81.0818 41.3681 80.9075 41.7866C80.7389 42.205 80.6547 42.7078 80.6547 43.2948C80.6547 43.876 80.7389 44.3787 80.9075 44.803C81.0818 45.2215 81.323 45.544 81.6311 45.7707C81.9449 45.9974 82.3053 46.1107 82.7121 46.1107ZM85.9683 46.3722C85.8928 46.3722 85.8259 46.3461 85.7678 46.2938C85.7097 46.2356 85.6806 46.1659 85.6806 46.0845C85.6806 46.0032 85.7097 45.9363 85.7678 45.884C85.8259 45.8259 85.8928 45.7968 85.9683 45.7968C86.0497 45.7968 86.1165 45.8259 86.1688 45.884C86.227 45.9363 86.256 46.0032 86.256 46.0845C86.256 46.1659 86.227 46.2356 86.1688 46.2938C86.1165 46.3461 86.0497 46.3722 85.9683 46.3722ZM89.2172 46.3809C88.758 46.3809 88.3483 46.256 87.988 46.0061C87.6334 45.7503 87.3574 45.3929 87.1597 44.9338C86.9621 44.4688 86.8633 43.9225 86.8633 43.2948C86.8633 42.6671 86.9621 42.1237 87.1597 41.6645C87.3574 41.1996 87.6334 40.8421 87.988 40.5922C88.3483 40.3365 88.758 40.2086 89.2172 40.2086C89.688 40.2086 90.0977 40.3365 90.4464 40.5922C90.8009 40.8421 91.077 41.1996 91.2746 41.6645C91.4722 42.1237 91.571 42.6671 91.571 43.2948C91.571 43.9225 91.4722 44.4688 91.2746 44.9338C91.077 45.3929 90.8009 45.7503 90.4464 46.0061C90.0977 46.256 89.688 46.3809 89.2172 46.3809ZM89.2172 46.1107C89.6298 46.1107 89.9902 45.9974 90.2982 45.7707C90.6062 45.544 90.8474 45.2215 91.0218 44.803C91.1962 44.3787 91.2833 43.876 91.2833 43.2948C91.2833 42.7078 91.1962 42.205 91.0218 41.7866C90.8474 41.3681 90.6062 41.0456 90.2982 40.8189C89.9902 40.5922 89.6298 40.4789 89.2172 40.4789C88.8103 40.4789 88.45 40.5922 88.1362 40.8189C87.8281 41.0456 87.5869 41.3681 87.4126 41.7866C87.244 42.205 87.1597 42.7078 87.1597 43.2948C87.1597 43.876 87.244 44.3787 87.4126 44.803C87.5869 45.2215 87.8281 45.544 88.1362 45.7707C88.45 45.9974 88.8103 46.1107 89.2172 46.1107ZM94.5811 46.3809C94.122 46.3809 93.7122 46.256 93.3519 46.0061C92.9973 45.7503 92.7213 45.3929 92.5237 44.9338C92.3261 44.4688 92.2273 43.9225 92.2273 43.2948C92.2273 42.6671 92.3261 42.1237 92.5237 41.6645C92.7213 41.1996 92.9973 40.8421 93.3519 40.5922C93.7122 40.3365 94.122 40.2086 94.5811 40.2086C95.0519 40.2086 95.4616 40.3365 95.8103 40.5922C96.1649 40.8421 96.4409 41.1996 96.6385 41.6645C96.8362 42.1237 96.935 42.6671 96.935 43.2948C96.935 43.9225 96.8362 44.4688 96.6385 44.9338C96.4409 45.3929 96.1649 45.7503 95.8103 46.0061C95.4616 46.256 95.0519 46.3809 94.5811 46.3809ZM94.5811 46.1107C94.9938 46.1107 95.3541 45.9974 95.6621 45.7707C95.9702 45.544 96.2114 45.2215 96.3857 44.803C96.5601 44.3787 96.6473 43.876 96.6473 43.2948C96.6473 42.7078 96.5601 42.205 96.3857 41.7866C96.2114 41.3681 95.9702 41.0456 95.6621 40.8189C95.3541 40.5922 94.9938 40.4789 94.5811 40.4789C94.1743 40.4789 93.8139 40.5922 93.5001 40.8189C93.192 41.0456 92.9509 41.3681 92.7765 41.7866C92.6079 42.205 92.5237 42.7078 92.5237 43.2948C92.5237 43.876 92.6079 44.3787 92.7765 44.803C92.9509 45.2215 93.192 45.544 93.5001 45.7707C93.8139 45.9974 94.1743 46.1107 94.5811 46.1107ZM101.038 43.5476C101.261 43.5476 101.458 43.5912 101.629 43.6784C101.8 43.7656 101.933 43.8981 102.027 44.0759C102.125 44.2538 102.173 44.4787 102.173 44.7507V46.3461H101.671V44.8082C101.671 44.5397 101.608 44.3375 101.483 44.2015C101.357 44.0655 101.181 43.9975 100.955 43.9975C100.787 43.9975 100.641 44.0323 100.515 44.1021C100.39 44.1718 100.292 44.2747 100.222 44.4107C100.156 44.5467 100.123 44.7158 100.123 44.9181V46.3461H99.6207V44.8082C99.6207 44.5397 99.558 44.3375 99.4324 44.2015C99.3104 44.0655 99.1343 43.9975 98.9041 43.9975C98.7402 43.9975 98.5955 44.0323 98.47 44.1021C98.3444 44.1718 98.2468 44.2747 98.177 44.4107C98.1073 44.5467 98.0724 44.7158 98.0724 44.9181V46.3461H97.5703V43.5738H98.0515V44.3113L97.973 44.123C98.0602 43.9417 98.1945 43.8004 98.3758 43.6993C98.5571 43.5982 98.7681 43.5476 99.0087 43.5476C99.2737 43.5476 99.5022 43.6139 99.694 43.7464C99.8857 43.8754 100.011 44.0724 100.071 44.3375L99.8666 44.2538C99.9503 44.041 100.097 43.8702 100.306 43.7411C100.515 43.6121 100.759 43.5476 101.038 43.5476Z" fill="#DD524D"/>
<path d="M81.5247 54.8646C81.2457 54.8646 80.9981 54.8036 80.7819 54.6816C80.5657 54.5595 80.3949 54.3921 80.2693 54.1794C80.1438 53.9632 80.081 53.7191 80.081 53.4471C80.081 53.1716 80.1438 52.9275 80.2693 52.7148C80.3949 52.5021 80.5657 52.3364 80.7819 52.2179C80.9981 52.0958 81.2457 52.0348 81.5247 52.0348C81.8002 52.0348 82.046 52.0958 82.2623 52.2179C82.4819 52.3364 82.6528 52.5021 82.7749 52.7148C82.9004 52.924 82.9632 53.1681 82.9632 53.4471C82.9632 53.7226 82.9004 53.9667 82.7749 54.1794C82.6528 54.3921 82.4819 54.5595 82.2623 54.6816C82.046 54.8036 81.8002 54.8646 81.5247 54.8646ZM81.5247 54.4253C81.7026 54.4253 81.8612 54.3851 82.0007 54.3049C82.1437 54.2247 82.2553 54.1114 82.3355 53.9649C82.4157 53.815 82.4558 53.6424 82.4558 53.4471C82.4558 53.2483 82.4157 53.0775 82.3355 52.9345C82.2553 52.788 82.1437 52.6747 82.0007 52.5945C81.8612 52.5143 81.7026 52.4742 81.5247 52.4742C81.3469 52.4742 81.1882 52.5143 81.0487 52.5945C80.9092 52.6747 80.7976 52.788 80.7139 52.9345C80.6303 53.0775 80.5884 53.2483 80.5884 53.4471C80.5884 53.6424 80.6303 53.815 80.7139 53.9649C80.7976 54.1114 80.9092 54.2247 81.0487 54.3049C81.1882 54.3851 81.3469 54.4253 81.5247 54.4253ZM84.0989 54.8333L82.8853 52.0609H83.4084L84.4859 54.5717H84.2349L85.3333 52.0609H85.825L84.6115 54.8333H84.0989ZM87.2423 54.8646C86.9459 54.8646 86.6843 54.8036 86.4577 54.6816C86.2345 54.5595 86.0601 54.3921 85.9346 54.1794C85.8125 53.9667 85.7515 53.7226 85.7515 53.4471C85.7515 53.1716 85.8108 52.9275 85.9293 52.7148C86.0514 52.5021 86.217 52.3364 86.4263 52.2179C86.639 52.0958 86.8779 52.0348 87.1429 52.0348C87.4114 52.0348 87.6485 52.0941 87.8543 52.2126C88.06 52.3312 88.2204 52.4986 88.3355 52.7148C88.4541 52.9275 88.5133 53.1768 88.5133 53.4628C88.5133 53.4837 88.5116 53.5081 88.5081 53.536C88.5081 53.5639 88.5064 53.5901 88.5029 53.6145H86.1438V53.2536H88.2413L88.0373 53.3791C88.0408 53.2013 88.0042 53.0426 87.9275 52.9031C87.8508 52.7636 87.7444 52.6555 87.6084 52.5788C87.4759 52.4986 87.3207 52.4585 87.1429 52.4585C86.9685 52.4585 86.8133 52.4986 86.6773 52.5788C86.5413 52.6555 86.435 52.7654 86.3583 52.9083C86.2816 53.0478 86.2432 53.2082 86.2432 53.3896V53.4733C86.2432 53.6581 86.285 53.8237 86.3687 53.9702C86.4559 54.1131 86.5762 54.2247 86.7297 54.3049C86.8831 54.3851 87.0592 54.4253 87.258 54.4253C87.4219 54.4253 87.5701 54.3974 87.7026 54.3416C87.8386 54.2858 87.9571 54.2021 88.0583 54.0905L88.3355 54.4148C88.21 54.5613 88.053 54.6728 87.8647 54.7496C87.6799 54.8263 87.4724 54.8646 87.2423 54.8646ZM89.0014 54.8333V52.0609H89.4826V52.8142L89.4356 52.6259C89.5123 52.4341 89.6413 52.2876 89.8226 52.1865C90.004 52.0854 90.2271 52.0348 90.4922 52.0348V52.5213C90.4712 52.5178 90.4503 52.516 90.4294 52.516C90.412 52.516 90.3945 52.516 90.3771 52.516C90.1086 52.516 89.8959 52.5962 89.7389 52.7566C89.582 52.917 89.5036 53.1489 89.5036 53.4523V54.8333H89.0014ZM91.9662 54.8646C91.6873 54.8646 91.471 54.7897 91.3176 54.6397C91.1642 54.4898 91.0875 54.2753 91.0875 53.9963V51.4542H91.5896V53.9754C91.5896 54.1254 91.6262 54.2404 91.6995 54.3206C91.7762 54.4008 91.8843 54.4409 92.0238 54.4409C92.1807 54.4409 92.3115 54.3974 92.4161 54.3102L92.573 54.6711C92.4963 54.7374 92.4039 54.7862 92.2958 54.8176C92.1912 54.8489 92.0813 54.8646 91.9662 54.8646ZM90.6167 52.4742V52.0609H92.3847V52.4742H90.6167ZM92.9709 54.8333V52.0609H93.473V54.8333H92.9709ZM93.2219 51.5274C93.1243 51.5274 93.0423 51.496 92.9761 51.4333C92.9133 51.3705 92.8819 51.2938 92.8819 51.2031C92.8819 51.1089 92.9133 51.0305 92.9761 50.9677C93.0423 50.9049 93.1243 50.8736 93.2219 50.8736C93.3196 50.8736 93.3998 50.9049 93.4626 50.9677C93.5288 51.027 93.5619 51.102 93.5619 51.1926C93.5619 51.2868 93.5306 51.367 93.4678 51.4333C93.405 51.496 93.3231 51.5274 93.2219 51.5274ZM97.6906 52.0348C97.9137 52.0348 98.1108 52.0784 98.2816 52.1656C98.4525 52.2527 98.585 52.3853 98.6792 52.5631C98.7768 52.7409 98.8256 52.9659 98.8256 53.2379V54.8333H98.3235V53.2954C98.3235 53.0269 98.2607 52.8246 98.1352 52.6886C98.0096 52.5526 97.8335 52.4846 97.6069 52.4846C97.4395 52.4846 97.293 52.5195 97.1675 52.5893C97.042 52.659 96.9443 52.7619 96.8746 52.8979C96.8083 53.0339 96.7752 53.203 96.7752 53.4053V54.8333H96.273V53.2954C96.273 53.0269 96.2103 52.8246 96.0847 52.6886C95.9627 52.5526 95.7866 52.4846 95.5564 52.4846C95.3925 52.4846 95.2478 52.5195 95.1223 52.5893C94.9967 52.659 94.8991 52.7619 94.8293 52.8979C94.7596 53.0339 94.7247 53.203 94.7247 53.4053V54.8333H94.2226V52.0609H94.7038V52.7985L94.6253 52.6102C94.7125 52.4288 94.8468 52.2876 95.0281 52.1865C95.2094 52.0854 95.4204 52.0348 95.661 52.0348C95.9261 52.0348 96.1545 52.101 96.3463 52.2336C96.5381 52.3626 96.6636 52.5596 96.7229 52.8246L96.5189 52.7409C96.6026 52.5282 96.749 52.3574 96.9583 52.2283C97.1675 52.0993 97.4116 52.0348 97.6906 52.0348ZM100.775 54.8646C100.478 54.8646 100.217 54.8036 99.9902 54.6816C99.767 54.5595 99.5927 54.3921 99.4671 54.1794C99.3451 53.9667 99.2841 53.7226 99.2841 53.4471C99.2841 53.1716 99.3434 52.9275 99.4619 52.7148C99.584 52.5021 99.7496 52.3364 99.9588 52.2179C100.172 52.0958 100.41 52.0348 100.675 52.0348C100.944 52.0348 101.181 52.0941 101.387 52.2126C101.593 52.3312 101.753 52.4986 101.868 52.7148C101.987 52.9275 102.046 53.1768 102.046 53.4628C102.046 53.4837 102.044 53.5081 102.041 53.536C102.041 53.5639 102.039 53.5901 102.035 53.6145H99.6764V53.2536H101.774L101.57 53.3791C101.573 53.2013 101.537 53.0426 101.46 52.9031C101.383 52.7636 101.277 52.6555 101.141 52.5788C101.008 52.4986 100.853 52.4585 100.675 52.4585C100.501 52.4585 100.346 52.4986 100.21 52.5788C100.074 52.6555 99.9676 52.7654 99.8908 52.9083C99.8141 53.0478 99.7758 53.2082 99.7758 53.3896V53.4733C99.7758 53.6581 99.8176 53.8237 99.9013 53.9702C99.9885 54.1131 100.109 54.2247 100.262 54.3049C100.416 54.3851 100.592 54.4253 100.791 54.4253C100.954 54.4253 101.103 54.3974 101.235 54.3416C101.371 54.2858 101.49 54.2021 101.591 54.0905L101.868 54.4148C101.743 54.5613 101.586 54.6728 101.397 54.7496C101.212 54.8263 101.005 54.8646 100.775 54.8646Z" fill="#DD524D"/>
</g>
<defs>
<filter id="filter0_dd_1115_5385" x="0.784505" y="0.858918" width="207.333" height="79.641" filterUnits="userSpaceOnUse" color-interpolation-filters="sRGB">
<feFlood flood-opacity="0" result="BackgroundImageFix"/>
<feColorMatrix in="SourceAlpha" type="matrix" values="0 0 0 0 0 0 0 0 0 0 0 0 0 0 0 0 0 0 127 0" result="hardAlpha"/>
<feMorphology radius="0.435897" operator="erode" in="SourceAlpha" result="effect1_dropShadow_1115_5385"/>
<feOffset/>
<feGaussianBlur stdDeviation="0.653846"/>
<feComposite in2="hardAlpha" operator="out"/>
<feColorMatrix type="matrix" values="0 0 0 0 0.0627451 0 0 0 0 0.0980392 0 0 0 0 0.156863 0 0 0 0.04 0"/>
<feBlend mode="normal" in2="BackgroundImageFix" result="effect1_dropShadow_1115_5385"/>
<feColorMatrix in="SourceAlpha" type="matrix" values="0 0 0 0 0 0 0 0 0 0 0 0 0 0 0 0 0 0 127 0" result="hardAlpha"/>
<feMorphology radius="3.92308" operator="erode" in="SourceAlpha" result="effect2_dropShadow_1115_5385"/>
<feOffset dy="6.10256"/>
<feGaussianBlur stdDeviation="4.79487"/>
<feComposite in2="hardAlpha" operator="out"/>
<feColorMatrix type="matrix" values="0 0 0 0 0.0627451 0 0 0 0 0.0980392 0 0 0 0 0.156863 0 0 0 0.14 0"/>
<feBlend mode="normal" in2="effect1_dropShadow_1115_5385" result="effect2_dropShadow_1115_5385"/>
<feBlend mode="normal" in="SourceGraphic" in2="effect2_dropShadow_1115_5385" result="shape"/>
</filter>
<clipPath id="clip0_1115_5385">
<rect width="10.4615" height="10.4615" fill="white" transform="translate(159.015 8.70508)"/>
</clipPath>
</defs>
</svg>
