<svg xmlns="http://www.w3.org/2000/svg" width="22" height="26" viewBox="0 0 22 26" fill="none">
  <path d="M15.706 18.8823H7.4707" stroke="#3D3D3D" stroke-width="1.7" stroke-linecap="round" stroke-linejoin="round"/>
  <path d="M15.7052 14.1768H12.1758" stroke="#3D3D3D" stroke-width="1.7" stroke-linecap="round" stroke-linejoin="round"/>
  <path d="M21 15.353C21 19.7897 21 22.0082 19.5355 23.3864C18.0711 24.7648 15.714 24.7648 11 24.7648H10.0909C6.2542 24.7648 4.33584 24.7648 3.00361 23.8262C2.62191 23.5572 2.28304 23.2383 1.99729 22.879C1 21.6251 1 19.8196 1 16.2086V13.2139C1 9.72788 1 7.98483 1.55169 6.5927C2.4386 4.35467 4.31428 2.58933 6.69219 1.75459C8.17133 1.23535 10.0233 1.23535 13.7273 1.23535C15.8439 1.23535 16.9021 1.23535 17.7473 1.53206C19.1061 2.00906 20.1779 3.01782 20.6847 4.29669C21 5.0922 21 6.08822 21 8.08027V15.353Z" stroke="#3D3D3D" stroke-width="1.7" stroke-linejoin="round"/>
  <path d="M1 13.0001C1 10.8343 2.75574 9.07849 4.92156 9.07849C5.70485 9.07849 6.62828 9.21574 7.38985 9.01168C8.06649 8.83036 8.59501 8.30185 8.77635 7.62519C8.98035 6.86363 8.84318 5.9402 8.84318 5.15692C8.84318 2.99109 10.5989 1.23535 12.7647 1.23535" stroke="#3D3D3D" stroke-width="1.7" stroke-linecap="round" stroke-linejoin="round"/>
</svg>