<svg xmlns="http://www.w3.org/2000/svg" width="22" height="24" viewBox="0 0 22 24" fill="none">
<path d="M5.44531 18.6669V15.8891M5.44531 15.8891V14.2224C5.44531 13.6987 5.44531 13.4368 5.61617 13.274C5.78702 13.1113 6.06201 13.1113 6.61198 13.1113H7.38975C8.19516 13.1113 8.84808 13.7331 8.84808 14.5002C8.84808 15.2673 8.19516 15.8891 7.38975 15.8891H5.44531ZM21.0008 13.1113H19.5425C18.6258 13.1113 18.1676 13.1113 17.8828 13.3825C17.5981 13.6538 17.5981 14.0902 17.5981 14.9632V15.8891M17.5981 15.8891V18.6669M17.5981 15.8891H20.0286M15.1675 15.8891C15.1675 17.4232 13.8616 18.6669 12.2508 18.6669C11.8874 18.6669 11.7056 18.6669 11.5703 18.5924C11.2462 18.4142 11.2786 18.0535 11.2786 17.741V14.0372C11.2786 13.7247 11.2462 13.364 11.5703 13.1858C11.7056 13.1113 11.8874 13.1113 12.2508 13.1113C13.8616 13.1113 15.1675 14.355 15.1675 15.8891Z" stroke="#3D3D3D" stroke-width="1.7" stroke-linecap="round" stroke-linejoin="round"/>
<path d="M14.3333 23.1113H9.58587C5.96229 23.1113 4.1505 23.1113 2.89229 22.2249C2.5318 21.9709 2.21175 21.6697 1.94189 21.3303C1 20.1461 1 18.4409 1 15.0306V12.2022C1 8.90986 1 7.26365 1.52104 5.94887C2.35867 3.83517 4.13015 2.16791 6.37594 1.37955C7.7729 0.88916 9.52198 0.88916 13.0202 0.88916C15.0192 0.88916 16.0186 0.88916 16.8168 1.16938C18.1002 1.61988 19.1124 2.5726 19.5911 3.78042C19.8888 4.53173 19.8888 5.47241 19.8888 7.35379V9.77802" stroke="#3D3D3D" stroke-width="1.7" stroke-linecap="round" stroke-linejoin="round"/>
<path d="M1 12.0002C1 9.9548 2.6582 8.29655 4.70369 8.29655C5.44345 8.29655 6.31559 8.42617 7.03484 8.23345C7.67389 8.06221 8.17305 7.56305 8.34429 6.92399C8.53701 6.20475 8.40739 5.33261 8.40739 4.59285C8.40739 2.54736 10.0656 0.88916 12.1111 0.88916" stroke="#3D3D3D" stroke-width="1.7" stroke-linecap="round" stroke-linejoin="round"/>
</svg>