<svg xmlns="http://www.w3.org/2000/svg" width="22" height="22" viewBox="0 0 22 22" fill="none">
  <path d="M6.26254 7.84198C7.13457 7.84198 7.84149 7.13506 7.84149 6.26303C7.84149 5.391 7.13457 4.68408 6.26254 4.68408C5.39051 4.68408 4.68359 5.391 4.68359 6.26303C4.68359 7.13506 5.39051 7.84198 6.26254 7.84198Z" stroke="#3D3D3D" stroke-width="1.7" stroke-linecap="round" stroke-linejoin="round"/>
  <path d="M1 11C1 6.28596 1 3.92894 2.46446 2.46446C3.92894 1 6.28596 1 11 1C15.714 1 18.0711 1 19.5356 2.46446C21 3.92894 21 6.28596 21 11C21 15.714 21 18.0711 19.5356 19.5356C18.0711 21 15.714 21 11 21C6.28596 21 3.92894 21 2.46446 19.5356C1 18.0711 1 15.714 1 11Z" stroke="#3D3D3D" stroke-width="1.7"/>
  <path d="M3.63086 20.4736C8.23345 14.9737 13.3931 7.71997 20.9966 12.6236" stroke="#3D3D3D" stroke-width="1.7"/>
</svg>