<svg xmlns="http://www.w3.org/2000/svg" width="18" height="17" viewBox="0 0 18 17" fill="none">
  <path d="M8.20017 0.5C4.95606 0.50584 3.25726 0.585485 2.17161 1.67115C1 2.84274 1 4.72842 1 8.49972C1 12.2711 1 14.1568 2.17161 15.3283C3.34321 16.5 5.22888 16.5 9.00026 16.5C12.7715 16.5 14.6572 16.5 15.8289 15.3283C16.9145 14.2427 16.9941 12.5439 17 9.29981" stroke="#3D3D3D" stroke-linecap="round" stroke-linejoin="round"/>
  <path d="M16.9998 3.18914L16.1113 3.18689C12.7899 3.17849 11.1292 3.1743 9.96173 4.01347C9.57373 4.29234 9.23328 4.63195 8.95346 5.01921C8.11133 6.18457 8.11133 7.84524 8.11133 11.1667M16.9998 3.18914C17.0057 3.04458 16.9541 2.89916 16.8447 2.76962C16.1646 1.96387 14.3967 0.5 14.3967 0.5M16.9998 3.18914C16.9943 3.31877 16.9426 3.44769 16.8446 3.56383C16.1643 4.36942 14.3967 5.83333 14.3967 5.83333" stroke="#3D3D3D" stroke-linecap="round" stroke-linejoin="round"/>
</svg>