<svg xmlns="http://www.w3.org/2000/svg" width="22" height="26" viewBox="0 0 22 26" fill="none">
  <path d="M21 14.7648V11.2354C21 6.81349 21 4.60256 19.7614 3.12648C19.5633 2.89039 19.3449 2.67205 19.1088 2.47394C17.6328 1.23535 15.4219 1.23535 11 1.23535C6.57814 1.23535 4.36721 1.23535 2.89113 2.47394C2.65504 2.67205 2.43669 2.89039 2.23859 3.12648C1 4.60256 1 6.81349 1 11.2354V14.7648C1 19.1866 1 21.3976 2.23859 22.8736C2.43669 23.1097 2.65504 23.3281 2.89113 23.5262C4.36721 24.7648 6.57814 24.7648 11 24.7648C15.4219 24.7648 17.6328 24.7648 19.1088 23.5262C19.3449 23.3281 19.5633 23.1097 19.7614 22.8736C21 21.3976 21 19.1866 21 14.7648Z" stroke="#3D3D3D" stroke-width="1.7" stroke-linecap="round"/>
  <path d="M15.1181 16.5293C15.1181 18.8034 13.2746 20.6469 11.0005 20.6469C8.72634 20.6469 6.88281 18.8034 6.88281 16.5293C6.88281 14.2552 8.72634 12.4116 11.0005 12.4116C13.2746 12.4116 15.1181 14.2552 15.1181 16.5293Z" stroke="#3D3D3D" stroke-width="1.7"/>
  <path d="M12.7638 7.11773C12.7638 8.09236 11.9737 8.88244 10.9991 8.88244C10.0245 8.88244 9.23438 8.09236 9.23438 7.11773C9.23438 6.14311 10.0245 5.35303 10.9991 5.35303C11.9737 5.35303 12.7638 6.14311 12.7638 7.11773Z" stroke="#3D3D3D" stroke-width="1.7"/>
</svg>