<svg xmlns="http://www.w3.org/2000/svg" width="22" height="18" viewBox="0 0 22 18" fill="none">
  <path d="M1 8C1 4.70017 1 3.05025 2.02513 2.02513C3.05025 1 4.70017 1 8 1H9C12.2998 1 13.9497 1 14.9749 2.02513C16 3.05025 16 4.70017 16 8V10C16 13.2998 16 14.9497 14.9749 15.9749C13.9497 17 12.2998 17 9 17H8C4.70017 17 3.05025 17 2.02513 15.9749C1 14.9497 1 13.2998 1 10V8Z" stroke="#3D3D3D" stroke-width="1.7"/>
  <path d="M16 5.90585L16.1259 5.80196C18.2417 4.05623 19.2996 3.18336 20.1498 3.60482C21 4.02628 21 5.42355 21 8.2181V9.7819C21 12.5765 21 13.9737 20.1498 14.3952C19.2996 14.8166 18.2417 13.9438 16.1259 12.198L16 12.0941" stroke="#3D3D3D" stroke-width="1.7" stroke-linecap="round"/>
  <path d="M10.5 8C11.3284 8 12 7.32843 12 6.5C12 5.67157 11.3284 5 10.5 5C9.67157 5 9 5.67157 9 6.5C9 7.32843 9.67157 8 10.5 8Z" stroke="#3D3D3D" stroke-width="1.7"/>
</svg>