<svg width="20" height="20" viewBox="0 0 20 20" fill="none" xmlns="http://www.w3.org/2000/svg">
<g id="Group 11">
<path id="Ellipse 6" d="M10 0C8.68678 -1.566e-08 7.38642 0.258658 6.17317 0.761205C4.95991 1.26375 3.85752 2.00035 2.92893 2.92893C2.00035 3.85752 1.26375 4.95991 0.761205 6.17317C0.258658 7.38642 -4.17426e-08 8.68678 0 10C4.17426e-08 11.3132 0.258658 12.6136 0.761205 13.8268C1.26375 15.0401 2.00035 16.1425 2.92893 17.0711C3.85752 17.9997 4.95991 18.7362 6.17317 19.2388C7.38642 19.7413 8.68678 20 10 20L10 10V0Z" fill="#034592"/>
<path id="Vector 11" d="M2.909 5.09094L9.81809 11.6364L7.09081 14.3637" stroke="white"/>
<path id="Vector 12" d="M10.1819 11.2727L14.9092 6.54547" stroke="#034592"/>
</g>
</svg>
