<svg width="16" height="16" viewBox="0 0 16 16" fill="none" xmlns="http://www.w3.org/2000/svg">
<g id="user-group">
<path id="Vector" d="M11.3333 7.00002C12.2538 7.00002 13 6.25383 13 5.33335C13 4.41288 12.2538 3.66669 11.3333 3.66669M14.6666 12C14.6666 10.1591 13.1742 8.66669 11.3333 8.66669" stroke="#7B7C7C"/>
<path id="Vector_2" d="M4.66663 7.00002C3.74616 7.00002 2.99997 6.25383 2.99997 5.33335C2.99997 4.41288 3.74616 3.66669 4.66663 3.66669M1.33331 12C1.33331 10.1591 2.8257 8.66669 4.66665 8.66669" stroke="#7B7C7C"/>
<path id="Vector_3" d="M10.3334 5.00002C10.3334 6.28869 9.28869 7.33335 8.00002 7.33335C6.71135 7.33335 5.66669 6.28869 5.66669 5.00002C5.66669 3.71135 6.71135 2.66669 8.00002 2.66669C9.28869 2.66669 10.3334 3.71135 10.3334 5.00002Z" stroke="#7B7C7C"/>
<path id="Vector_4" d="M3.33331 13.3333H12.6666C12.6666 11.1242 10.5773 9.33331 7.99998 9.33331C5.42265 9.33331 3.33331 11.1242 3.33331 13.3333Z" stroke="#7B7C7C"/>
</g>
</svg>
