<svg width="18" height="18" viewBox="0 0 18 18" fill="none" xmlns="http://www.w3.org/2000/svg">
<path id="primary" d="M11.6667 9C11.6667 9.52742 11.5103 10.043 11.2173 10.4815C10.9242 10.9201 10.5078 11.2618 10.0205 11.4637C9.53322 11.6655 8.99704 11.7183 8.47976 11.6154C7.96248 11.5125 7.48732 11.2586 7.11438 10.8856C6.74144 10.5127 6.48747 10.0375 6.38457 9.52024C6.28168 9.00296 6.33449 8.46678 6.53632 7.97951C6.73815 7.49224 7.07995 7.07577 7.51848 6.78275C7.95701 6.48973 8.47258 6.33333 9 6.33333C9.70724 6.33333 10.3855 6.61428 10.8856 7.11438C11.3857 7.61448 11.6667 8.29276 11.6667 9ZM16.1111 7.22222H15.5867C15.4029 7.22149 15.2239 7.16383 15.0743 7.05718C14.9246 6.95053 14.8117 6.80012 14.7511 6.62667C14.672 6.46018 14.6466 6.27321 14.6785 6.09167C14.7103 5.91012 14.7979 5.74296 14.9289 5.61333L15.2933 5.24889C15.3766 5.16626 15.4428 5.06794 15.4879 4.95962C15.533 4.8513 15.5563 4.73512 15.5563 4.61778C15.5563 4.50043 15.533 4.38425 15.4879 4.27593C15.4428 4.16761 15.3766 4.0693 15.2933 3.98667L14.0311 2.71556C13.9485 2.63224 13.8502 2.56611 13.7418 2.52099C13.6335 2.47586 13.5173 2.45262 13.4 2.45262C13.2827 2.45262 13.1665 2.47586 13.0582 2.52099C12.9498 2.56611 12.8515 2.63224 12.7689 2.71556L12.4044 3.08C12.2748 3.21104 12.1077 3.29854 11.9261 3.33039C11.7446 3.36224 11.5576 3.33687 11.3911 3.25778C11.2129 3.19967 11.0576 3.08671 10.9475 2.93505C10.8373 2.78338 10.7779 2.60078 10.7778 2.41333V1.88889C10.7778 1.65314 10.6841 1.42705 10.5174 1.26035C10.3507 1.09365 10.1246 1 9.88889 1H8.11111C7.87536 1 7.64927 1.09365 7.48257 1.26035C7.31587 1.42705 7.22222 1.65314 7.22222 1.88889V2.41333C7.22149 2.59708 7.16383 2.77609 7.05718 2.92572C6.95053 3.07535 6.80012 3.18825 6.62667 3.24889C6.46018 3.32798 6.27321 3.35335 6.09167 3.3215C5.91012 3.28965 5.74296 3.20215 5.61333 3.07111L5.24889 2.70667C5.16626 2.62335 5.06794 2.55722 4.95962 2.5121C4.8513 2.46697 4.73512 2.44373 4.61778 2.44373C4.50043 2.44373 4.38425 2.46697 4.27593 2.5121C4.16761 2.55722 4.0693 2.62335 3.98667 2.70667L2.71556 3.96889C2.63224 4.05152 2.56611 4.14983 2.52099 4.25815C2.47586 4.36647 2.45262 4.48266 2.45262 4.6C2.45262 4.71734 2.47586 4.83353 2.52099 4.94185C2.56611 5.05017 2.63224 5.14848 2.71556 5.23111L3.08 5.59556C3.21104 5.72518 3.29854 5.89234 3.33039 6.07389C3.36224 6.25544 3.33687 6.4424 3.25778 6.60889C3.19714 6.78235 3.08424 6.93275 2.93461 7.0394C2.78498 7.14605 2.60597 7.20371 2.42222 7.20444H1.88889C1.65314 7.20444 1.42705 7.29809 1.26035 7.46479C1.09365 7.63149 1 7.85758 1 8.09333V9.87111C1 10.1069 1.09365 10.333 1.26035 10.4997C1.42705 10.6663 1.65314 10.76 1.88889 10.76H2.41333C2.59708 10.7607 2.77609 10.8184 2.92572 10.925C3.07535 11.0317 3.18825 11.1821 3.24889 11.3556C3.32798 11.522 3.35335 11.709 3.3215 11.8906C3.28965 12.0721 3.20215 12.2393 3.07111 12.3689L2.70667 12.7333C2.62335 12.816 2.55722 12.9143 2.5121 13.0226C2.46697 13.1309 2.44373 13.2471 2.44373 13.3644C2.44373 13.4818 2.46697 13.598 2.5121 13.7063C2.55722 13.8146 2.62335 13.9129 2.70667 13.9956L3.96 15.2489C4.04263 15.3322 4.14095 15.3983 4.24927 15.4435C4.35758 15.4886 4.47377 15.5118 4.59111 15.5118C4.70845 15.5118 4.82464 15.4886 4.93296 15.4435C5.04128 15.3983 5.13959 15.3322 5.22222 15.2489L5.58667 14.8844C5.71629 14.7534 5.88345 14.6659 6.065 14.6341C6.24655 14.6022 6.43351 14.6276 6.6 14.7067C6.77346 14.7673 6.92386 14.8802 7.03051 15.0298C7.13716 15.1795 7.19482 15.3585 7.19556 15.5422V16.1111C7.19556 16.3469 7.28921 16.573 7.45591 16.7397C7.6226 16.9064 7.8487 17 8.08444 17H9.86222C10.098 17 10.3241 16.9064 10.4908 16.7397C10.6575 16.573 10.7511 16.3469 10.7511 16.1111V15.5867C10.7518 15.4029 10.8095 15.2239 10.9162 15.0743C11.0228 14.9246 11.1732 14.8117 11.3467 14.7511C11.5132 14.672 11.7001 14.6466 11.8817 14.6785C12.0632 14.7103 12.2304 14.7979 12.36 14.9289L12.7244 15.2933C12.8071 15.3766 12.9054 15.4428 13.0137 15.4879C13.122 15.533 13.2382 15.5563 13.3556 15.5563C13.4729 15.5563 13.5891 15.533 13.6974 15.4879C13.8057 15.4428 13.904 15.3766 13.9867 15.2933L15.24 14.04C15.3233 13.9574 15.3894 13.8591 15.4346 13.7507C15.4797 13.6424 15.5029 13.5262 15.5029 13.4089C15.5029 13.2915 15.4797 13.1754 15.4346 13.067C15.3894 12.9587 15.3233 12.8604 15.24 12.7778L14.8756 12.4133C14.7445 12.2837 14.657 12.1165 14.6252 11.935C14.5933 11.7535 14.6187 11.5665 14.6978 11.4C14.7584 11.2265 14.8713 11.0761 15.0209 10.9695C15.1706 10.8628 15.3496 10.8052 15.5333 10.8044H16.1111C16.3469 10.8044 16.573 10.7108 16.7397 10.5441C16.9064 10.3774 17 10.1513 17 9.91556V8.11111C17 7.87536 16.9064 7.64927 16.7397 7.48257C16.573 7.31587 16.3469 7.22222 16.1111 7.22222Z" stroke="#7B7C7C" stroke-linecap="round" stroke-linejoin="round"/>
</svg>
