<svg width="20" height="20" viewBox="0 0 20 20" fill="none" xmlns="http://www.w3.org/2000/svg">
<path d="M10 10.8333V12.4999H12.5" fill="black" fill-opacity="0.5"/>
<path d="M10 10.8333V12.4999H12.5" stroke="black" stroke-opacity="0.5" stroke-width="1.5" stroke-linecap="round" stroke-linejoin="round"/>
<path d="M2.5 7.5V16.6667C2.5 16.8877 2.5878 17.0996 2.74408 17.2559C2.90036 17.4122 3.11232 17.5 3.33333 17.5H16.6667C16.8877 17.5 17.0996 17.4122 17.2559 17.2559C17.4122 17.0996 17.5 16.8877 17.5 16.6667V7.5M2.5 7.5H17.5M2.5 7.5V4.16667C2.5 3.94565 2.5878 3.73369 2.74408 3.57741C2.90036 3.42113 3.11232 3.33333 3.33333 3.33333H16.6667C16.8877 3.33333 17.0996 3.42113 17.2559 3.57741C17.4122 3.73369 17.5 3.94565 17.5 4.16667V7.5M13.3333 2.5V5M6.66667 2.5V5M7.5 14.1667V10.8333M12.5 10.8333V14.1667" stroke="black" stroke-opacity="0.5" stroke-width="1.5" stroke-linecap="round" stroke-linejoin="round"/>
</svg>
