<svg width="18" height="19" viewBox="0 0 18 19" fill="none" xmlns="http://www.w3.org/2000/svg">
<path d="M3.96967 11.187C3.67678 11.4799 3.67678 11.9547 3.96967 12.2476C4.26256 12.5405 4.73744 12.5405 5.03033 12.2476L7.55083 9.72713L8.5256 10.5232C8.8319 10.7733 9.27979 10.7427 9.54914 10.4531L12.0021 7.81615L12.9528 8.83025C13.2361 9.13243 13.7108 9.14774 14.013 8.86445C14.3151 8.58115 14.3305 8.10652 14.0472 7.80434L12.5472 6.20434C12.405 6.05273 12.2064 5.96689 11.9985 5.96729C11.7907 5.9677 11.5924 6.05431 11.4509 6.20646L8.92978 8.91662L7.9744 8.13639C7.67616 7.89283 7.24194 7.91469 6.96967 8.18696L3.96967 11.187Z" fill="#636363"/>
<path fill-rule="evenodd" clip-rule="evenodd" d="M3.75 16.2173C2.09315 16.2173 0.75 14.8741 0.75 13.2173V5.71729C0.75 4.06043 2.09315 2.71729 3.75 2.71729H14.25C15.9069 2.71729 17.25 4.06043 17.25 5.71728V13.2173C17.25 14.8741 15.9069 16.2173 14.25 16.2173H3.75ZM2.25 13.2173C2.25 14.0457 2.92157 14.7173 3.75 14.7173H14.25C15.0784 14.7173 15.75 14.0457 15.75 13.2173V5.71728C15.75 4.88886 15.0784 4.21729 14.25 4.21729H3.75C2.92157 4.21729 2.25 4.88886 2.25 5.71729V13.2173Z" fill="#636363"/>
</svg>
