<svg width="128" height="99" viewBox="0 0 128 99" fill="none" xmlns="http://www.w3.org/2000/svg">
<g filter="url(#filter0_dd_856_12509)">
<rect x="13" y="2" width="101.2" height="69.7333" rx="8" fill="#FDFDFF" shape-rendering="crispEdges"/>
<rect x="13.1917" y="2.19167" width="100.817" height="69.35" rx="7.80833" stroke="#E9EBF8" stroke-width="0.383333" shape-rendering="crispEdges"/>
<path d="M19.9383 15.1333V9.76663H22.0313C22.5015 9.76663 22.9027 9.84075 23.235 9.98897C23.5672 10.1372 23.8227 10.3519 24.0016 10.633C24.1805 10.9141 24.27 11.2489 24.27 11.6373C24.27 12.0257 24.1805 12.3605 24.0016 12.6416C23.8227 12.9176 23.5672 13.1297 23.235 13.278C22.9027 13.4262 22.5015 13.5003 22.0313 13.5003H20.36L20.705 13.1476V15.1333H19.9383ZM23.5263 15.1333L22.1616 13.186H22.982L24.362 15.1333H23.5263ZM20.705 13.2243L20.36 12.8486H22.0083C22.499 12.8486 22.8695 12.7439 23.12 12.5343C23.3755 12.3196 23.5033 12.0206 23.5033 11.6373C23.5033 11.254 23.3755 10.9575 23.12 10.748C22.8695 10.5384 22.499 10.4336 22.0083 10.4336H20.36L20.705 10.0503V13.2243ZM26.8043 15.1793C26.4567 15.1793 26.1501 15.1154 25.8843 14.9876C25.6236 14.8599 25.4192 14.6656 25.2709 14.405C25.1278 14.1392 25.0563 13.807 25.0563 13.4083V11.07H25.7923V13.324C25.7923 13.7226 25.8868 14.0216 26.0759 14.221C26.2702 14.4203 26.5411 14.52 26.8886 14.52C27.1442 14.52 27.3665 14.4689 27.5556 14.3666C27.7447 14.2593 27.8904 14.106 27.9926 13.9066C28.0948 13.7022 28.1459 13.4569 28.1459 13.1706V11.07H28.8819V15.1333H28.1843V14.037L28.2993 14.3283C28.1664 14.5992 27.9671 14.8087 27.7013 14.957C27.4355 15.1052 27.1365 15.1793 26.8043 15.1793ZM32.1461 11.0316C32.4783 11.0316 32.7696 11.0955 33.0201 11.2233C33.2756 11.3511 33.475 11.5453 33.6181 11.806C33.7612 12.0666 33.8328 12.3963 33.8328 12.795V15.1333H33.0968V12.8793C33.0968 12.4857 32.9996 12.1893 32.8054 11.99C32.6163 11.7906 32.348 11.691 32.0004 11.691C31.7398 11.691 31.5123 11.7421 31.3181 11.8443C31.1239 11.9465 30.9731 12.0973 30.8658 12.2966C30.7635 12.496 30.7124 12.7439 30.7124 13.0403V15.1333H29.9764V11.07H30.6818V12.1663L30.5668 11.875C30.6996 11.6092 30.9041 11.4022 31.1801 11.254C31.4561 11.1057 31.7781 11.0316 32.1461 11.0316ZM37.0578 11.0316C37.3901 11.0316 37.6814 11.0955 37.9318 11.2233C38.1874 11.3511 38.3867 11.5453 38.5298 11.806C38.673 12.0666 38.7445 12.3963 38.7445 12.795V15.1333H38.0085V12.8793C38.0085 12.4857 37.9114 12.1893 37.7172 11.99C37.5281 11.7906 37.2597 11.691 36.9122 11.691C36.6515 11.691 36.4241 11.7421 36.2298 11.8443C36.0356 11.9465 35.8848 12.0973 35.7775 12.2966C35.6753 12.496 35.6242 12.7439 35.6242 13.0403V15.1333H34.8882V11.07H35.5935V12.1663L35.4785 11.875C35.6114 11.6092 35.8158 11.4022 36.0918 11.254C36.3678 11.1057 36.6898 11.0316 37.0578 11.0316ZM39.7999 15.1333V11.07H40.5359V15.1333H39.7999ZM40.1679 10.288C40.0248 10.288 39.9047 10.242 39.8076 10.15C39.7156 10.058 39.6696 9.94552 39.6696 9.81263C39.6696 9.67463 39.7156 9.55963 39.8076 9.46763C39.9047 9.37563 40.0248 9.32963 40.1679 9.32963C40.311 9.32963 40.4286 9.37563 40.5206 9.46763C40.6177 9.55452 40.6663 9.66441 40.6663 9.7973C40.6663 9.9353 40.6203 10.0529 40.5283 10.15C40.4363 10.242 40.3162 10.288 40.1679 10.288ZM43.8042 11.0316C44.1364 11.0316 44.4278 11.0955 44.6782 11.2233C44.9338 11.3511 45.1331 11.5453 45.2762 11.806C45.4193 12.0666 45.4909 12.3963 45.4909 12.795V15.1333H44.7549V12.8793C44.7549 12.4857 44.6578 12.1893 44.4635 11.99C44.2744 11.7906 44.0061 11.691 43.6585 11.691C43.3979 11.691 43.1704 11.7421 42.9762 11.8443C42.782 11.9465 42.6312 12.0973 42.5239 12.2966C42.4217 12.496 42.3705 12.7439 42.3705 13.0403V15.1333H41.6345V11.07H42.3399V12.1663L42.2249 11.875C42.3578 11.6092 42.5622 11.4022 42.8382 11.254C43.1142 11.1057 43.4362 11.0316 43.8042 11.0316ZM48.325 16.6666C47.9519 16.6666 47.589 16.613 47.2363 16.5056C46.8887 16.4034 46.6051 16.2552 46.3853 16.061L46.738 15.4936C46.9271 15.6572 47.1596 15.785 47.4356 15.877C47.7116 15.9741 48.0004 16.0226 48.302 16.0226C48.7824 16.0226 49.1351 15.9102 49.36 15.6853C49.5849 15.4604 49.6973 15.118 49.6973 14.658V13.7993L49.774 12.9943L49.7356 12.1816V11.07H50.4333V14.5813C50.4333 15.2969 50.2544 15.8233 49.8966 16.1606C49.5389 16.498 49.015 16.6666 48.325 16.6666ZM48.233 14.9646C47.8394 14.9646 47.4867 14.8829 47.175 14.7193C46.8683 14.5506 46.623 14.3181 46.439 14.0216C46.2601 13.7252 46.1706 13.3827 46.1706 12.9943C46.1706 12.6007 46.2601 12.2583 46.439 11.967C46.623 11.6705 46.8683 11.4405 47.175 11.277C47.4867 11.1134 47.8394 11.0316 48.233 11.0316C48.5805 11.0316 48.8974 11.1032 49.1836 11.2463C49.4699 11.3843 49.6973 11.599 49.866 11.8903C50.0397 12.1816 50.1266 12.5496 50.1266 12.9943C50.1266 13.4339 50.0397 13.7993 49.866 14.0906C49.6973 14.382 49.4699 14.6017 49.1836 14.75C48.8974 14.8931 48.5805 14.9646 48.233 14.9646ZM48.3173 14.3206C48.5882 14.3206 48.8284 14.2644 49.038 14.152C49.2475 14.0395 49.4111 13.8836 49.5286 13.6843C49.6513 13.485 49.7126 13.255 49.7126 12.9943C49.7126 12.7336 49.6513 12.5036 49.5286 12.3043C49.4111 12.105 49.2475 11.9516 49.038 11.8443C48.8284 11.7319 48.5882 11.6756 48.3173 11.6756C48.0464 11.6756 47.8036 11.7319 47.589 11.8443C47.3794 11.9516 47.2133 12.105 47.0906 12.3043C46.9731 12.5036 46.9143 12.7336 46.9143 12.9943C46.9143 13.255 46.9731 13.485 47.0906 13.6843C47.2133 13.8836 47.3794 14.0395 47.589 14.152C47.8036 14.2644 48.0464 14.3206 48.3173 14.3206Z" fill="#034592"/>
<path d="M20.2603 28.2V20.6866H23.4266C24.2281 20.6866 24.9329 20.844 25.5411 21.1589C26.1565 21.4737 26.6323 21.9138 26.9686 22.4791C27.3121 23.0444 27.4838 23.6991 27.4838 24.4433C27.4838 25.1875 27.3121 25.8422 26.9686 26.4075C26.6323 26.9728 26.1565 27.4128 25.5411 27.7277C24.9329 28.0425 24.2281 28.2 23.4266 28.2H20.2603ZM21.3336 27.2662H23.3622C23.9848 27.2662 24.5214 27.1481 24.9722 26.912C25.4302 26.6758 25.7844 26.3467 26.0348 25.9245C26.2853 25.4952 26.4105 25.0014 26.4105 24.4433C26.4105 23.878 26.2853 23.3843 26.0348 22.9621C25.7844 22.5399 25.4302 22.2108 24.9722 21.9746C24.5214 21.7385 23.9848 21.6204 23.3622 21.6204H21.3336V27.2662ZM31.0813 28.2644C30.4731 28.2644 29.9365 28.1391 29.4713 27.8887C29.0134 27.6382 28.6556 27.2948 28.398 26.8583C28.1476 26.4218 28.0223 25.9209 28.0223 25.3556C28.0223 24.7903 28.144 24.2894 28.3873 23.853C28.6377 23.4165 28.9776 23.0766 29.4069 22.8333C29.8434 22.5828 30.3336 22.4576 30.8774 22.4576C31.4284 22.4576 31.915 22.5793 32.3371 22.8226C32.7593 23.0658 33.0885 23.4093 33.3246 23.853C33.5679 24.2894 33.6895 24.8011 33.6895 25.3878C33.6895 25.4308 33.686 25.4808 33.6788 25.5381C33.6788 25.5953 33.6752 25.649 33.6681 25.6991H28.8273V24.9585H33.1314L32.7128 25.2161C32.72 24.8512 32.6448 24.5256 32.4874 24.2394C32.33 23.9531 32.1117 23.7313 31.8327 23.5739C31.5608 23.4093 31.2423 23.327 30.8774 23.327C30.5196 23.327 30.2012 23.4093 29.9221 23.5739C29.6431 23.7313 29.4248 23.9567 29.2674 24.2501C29.11 24.5363 29.0313 24.8655 29.0313 25.2376V25.4093C29.0313 25.7885 29.1171 26.1284 29.2889 26.429C29.4678 26.7223 29.7146 26.9513 30.0295 27.1159C30.3443 27.2805 30.7057 27.3628 31.1135 27.3628C31.4499 27.3628 31.754 27.3055 32.0259 27.191C32.3049 27.0765 32.5482 26.9048 32.7557 26.6758L33.3246 27.3413C33.067 27.6418 32.745 27.8708 32.3586 28.0282C31.9794 28.1856 31.5536 28.2644 31.0813 28.2644ZM36.3225 28.2644C35.8502 28.2644 35.3994 28.2 34.9701 28.0712C34.5479 27.9424 34.2152 27.7849 33.9719 27.5989L34.4012 26.7832C34.6445 26.9477 34.945 27.0873 35.3028 27.2018C35.6606 27.3162 36.0255 27.3735 36.3976 27.3735C36.877 27.3735 37.2205 27.3055 37.428 27.1696C37.6427 27.0336 37.75 26.844 37.75 26.6007C37.75 26.4218 37.6856 26.2823 37.5568 26.1821C37.428 26.0819 37.2563 26.0068 37.0416 25.9567C36.8341 25.9066 36.6015 25.8637 36.3439 25.8279C36.0863 25.785 35.8287 25.7349 35.5711 25.6776C35.3135 25.6132 35.0774 25.5274 34.8627 25.42C34.6481 25.3055 34.4763 25.1517 34.3475 24.9585C34.2187 24.7581 34.1543 24.4934 34.1543 24.1642C34.1543 23.8208 34.2509 23.5202 34.4441 23.2626C34.6373 23.005 34.9093 22.8082 35.2599 22.6723C35.6177 22.5292 36.0398 22.4576 36.5264 22.4576C36.8985 22.4576 37.2742 22.5041 37.6534 22.5972C38.0398 22.683 38.3547 22.8082 38.5979 22.9728L38.1579 23.7886C37.9003 23.6168 37.6319 23.4988 37.3529 23.4344C37.0738 23.37 36.7947 23.3378 36.5157 23.3378C36.0649 23.3378 35.7286 23.4129 35.5067 23.5632C35.2849 23.7063 35.174 23.8923 35.174 24.1213C35.174 24.3145 35.2384 24.4648 35.3672 24.5721C35.5032 24.6723 35.6749 24.751 35.8824 24.8082C36.0971 24.8655 36.3332 24.9156 36.5908 24.9585C36.8484 24.9943 37.106 25.0444 37.3636 25.1088C37.6212 25.166 37.8538 25.2483 38.0613 25.3556C38.276 25.463 38.4477 25.6132 38.5765 25.8064C38.7124 25.9996 38.7804 26.2572 38.7804 26.5792C38.7804 26.9227 38.6802 27.2196 38.4799 27.4701C38.2795 27.7205 37.9969 27.9173 37.6319 28.0604C37.267 28.1964 36.8305 28.2644 36.3225 28.2644ZM39.6388 28.2V22.5113H40.6692V28.2H39.6388ZM40.154 21.4165C39.9537 21.4165 39.7855 21.3521 39.6496 21.2233C39.5208 21.0945 39.4564 20.9371 39.4564 20.751C39.4564 20.5578 39.5208 20.3968 39.6496 20.268C39.7855 20.1392 39.9537 20.0748 40.154 20.0748C40.3544 20.0748 40.519 20.1392 40.6478 20.268C40.7837 20.3897 40.8517 20.5435 40.8517 20.7296C40.8517 20.9228 40.7873 21.0873 40.6585 21.2233C40.5297 21.3521 40.3615 21.4165 40.154 21.4165ZM44.6974 30.3466C44.1751 30.3466 43.667 30.2715 43.1733 30.1212C42.6867 29.9781 42.2896 29.7706 41.9819 29.4987L42.4756 28.7044C42.7404 28.9334 43.066 29.1123 43.4524 29.2411C43.8388 29.377 44.243 29.445 44.6652 29.445C45.3378 29.445 45.8316 29.2876 46.1464 28.9728C46.4613 28.6579 46.6187 28.1785 46.6187 27.5345V26.3324L46.726 25.2054L46.6724 24.0676V22.5113H47.6491V27.4272C47.6491 28.4289 47.3986 29.166 46.8978 29.6382C46.3969 30.1105 45.6634 30.3466 44.6974 30.3466ZM44.5686 27.9638C44.0176 27.9638 43.5239 27.8493 43.0874 27.6204C42.6581 27.3842 42.3146 27.0586 42.057 26.6436C41.8066 26.2286 41.6814 25.7492 41.6814 25.2054C41.6814 24.6544 41.8066 24.175 42.057 23.7671C42.3146 23.3521 42.6581 23.0301 43.0874 22.8011C43.5239 22.5721 44.0176 22.4576 44.5686 22.4576C45.0552 22.4576 45.4988 22.5578 45.8996 22.7582C46.3003 22.9514 46.6187 23.2519 46.8548 23.6598C47.0981 24.0676 47.2198 24.5828 47.2198 25.2054C47.2198 25.8207 47.0981 26.3324 46.8548 26.7402C46.6187 27.1481 46.3003 27.4558 45.8996 27.6633C45.4988 27.8636 45.0552 27.9638 44.5686 27.9638ZM44.6867 27.0622C45.0659 27.0622 45.4022 26.9835 45.6956 26.8261C45.989 26.6687 46.218 26.4504 46.3826 26.1714C46.5543 25.8923 46.6402 25.5703 46.6402 25.2054C46.6402 24.8404 46.5543 24.5184 46.3826 24.2394C46.218 23.9603 45.989 23.7456 45.6956 23.5954C45.4022 23.4379 45.0659 23.3592 44.6867 23.3592C44.3074 23.3592 43.9676 23.4379 43.667 23.5954C43.3736 23.7456 43.1411 23.9603 42.9694 24.2394C42.8048 24.5184 42.7225 24.8404 42.7225 25.2054C42.7225 25.5703 42.8048 25.8923 42.9694 26.1714C43.1411 26.4504 43.3736 26.6687 43.667 26.8261C43.9676 26.9835 44.3074 27.0622 44.6867 27.0622ZM52.2261 22.4576C52.6912 22.4576 53.0991 22.5471 53.4497 22.726C53.8075 22.9048 54.0865 23.1768 54.2869 23.5417C54.4873 23.9066 54.5874 24.3682 54.5874 24.9263V28.2H53.557V25.0444C53.557 24.4934 53.4211 24.0784 53.1492 23.7993C52.8844 23.5202 52.5087 23.3807 52.0222 23.3807C51.6572 23.3807 51.3388 23.4522 51.0669 23.5954C50.795 23.7385 50.5839 23.9496 50.4336 24.2286C50.2905 24.5077 50.219 24.8547 50.219 25.2698V28.2H49.1886V22.5113H50.176V24.0462L50.015 23.6383C50.2011 23.2662 50.4873 22.9764 50.8737 22.7689C51.2601 22.5614 51.7109 22.4576 52.2261 22.4576ZM60.4716 28.2644C59.8992 28.2644 59.4556 28.1105 59.1407 27.8028C58.8259 27.4951 58.6684 27.0551 58.6684 26.4826V21.2662H59.6988V26.4397C59.6988 26.7474 59.774 26.9835 59.9242 27.1481C60.0817 27.3127 60.3035 27.395 60.5897 27.395C60.9117 27.395 61.18 27.3055 61.3947 27.1266L61.7167 27.8672C61.5593 28.0032 61.3697 28.1034 61.1478 28.1678C60.9332 28.2322 60.7078 28.2644 60.4716 28.2644ZM57.7024 23.3592V22.5113H61.3303V23.3592H57.7024ZM66.0644 28.2V26.9978L66.0107 26.7724V24.7224C66.0107 24.2859 65.8819 23.9496 65.6243 23.7134C65.3739 23.4701 64.9946 23.3485 64.4866 23.3485C64.1503 23.3485 63.8211 23.4057 63.4991 23.5202C63.1771 23.6276 62.9052 23.7742 62.6834 23.9603L62.254 23.1875C62.5474 22.9514 62.898 22.7725 63.3059 22.6508C63.7209 22.522 64.1538 22.4576 64.6046 22.4576C65.3846 22.4576 65.9857 22.6472 66.4078 23.0265C66.83 23.4057 67.0411 23.9853 67.0411 24.7653V28.2H66.0644ZM64.1968 28.2644C63.7746 28.2644 63.4025 28.1928 63.0805 28.0497C62.7657 27.9066 62.5224 27.7098 62.3506 27.4594C62.1789 27.2018 62.093 26.912 62.093 26.59C62.093 26.2823 62.1646 26.0032 62.3077 25.7528C62.458 25.5023 62.6977 25.302 63.0268 25.1517C63.3632 25.0014 63.814 24.9263 64.3792 24.9263H66.1824V25.6669H64.4222C63.907 25.6669 63.5599 25.7528 63.381 25.9245C63.2022 26.0962 63.1127 26.3037 63.1127 26.547C63.1127 26.8261 63.2236 27.0515 63.4454 27.2232C63.6673 27.3878 63.975 27.4701 64.3685 27.4701C64.7549 27.4701 65.0912 27.3842 65.3774 27.2125C65.6708 27.0408 65.8819 26.7903 66.0107 26.4612L66.2146 27.1696C66.0787 27.5059 65.839 27.7742 65.4955 27.9746C65.152 28.1678 64.7191 28.2644 64.1968 28.2644ZM70.1501 28.2644C69.6778 28.2644 69.227 28.2 68.7977 28.0712C68.3755 27.9424 68.0428 27.7849 67.7995 27.5989L68.2288 26.7832C68.4721 26.9477 68.7726 27.0873 69.1304 27.2018C69.4882 27.3162 69.8531 27.3735 70.2252 27.3735C70.7046 27.3735 71.0481 27.3055 71.2556 27.1696C71.4703 27.0336 71.5776 26.844 71.5776 26.6007C71.5776 26.4218 71.5132 26.2823 71.3844 26.1821C71.2556 26.0819 71.0839 26.0068 70.8692 25.9567C70.6617 25.9066 70.4292 25.8637 70.1716 25.8279C69.914 25.785 69.6564 25.7349 69.3988 25.6776C69.1412 25.6132 68.905 25.5274 68.6904 25.42C68.4757 25.3055 68.304 25.1517 68.1752 24.9585C68.0464 24.7581 67.982 24.4934 67.982 24.1642C67.982 23.8208 68.0786 23.5202 68.2718 23.2626C68.465 23.005 68.7369 22.8082 69.0875 22.6723C69.4453 22.5292 69.8674 22.4576 70.354 22.4576C70.7261 22.4576 71.1018 22.5041 71.481 22.5972C71.8674 22.683 72.1823 22.8082 72.4256 22.9728L71.9855 23.7886C71.7279 23.6168 71.4596 23.4988 71.1805 23.4344C70.9014 23.37 70.6224 23.3378 70.3433 23.3378C69.8925 23.3378 69.5562 23.4129 69.3344 23.5632C69.1125 23.7063 69.0016 23.8923 69.0016 24.1213C69.0016 24.3145 69.066 24.4648 69.1948 24.5721C69.3308 24.6723 69.5025 24.751 69.71 24.8082C69.9247 24.8655 70.1608 24.9156 70.4184 24.9585C70.676 24.9943 70.9336 25.0444 71.1912 25.1088C71.4488 25.166 71.6814 25.2483 71.8889 25.3556C72.1036 25.463 72.2753 25.6132 72.4041 25.8064C72.54 25.9996 72.608 26.2572 72.608 26.5792C72.608 26.9227 72.5078 27.2196 72.3075 27.4701C72.1071 27.7205 71.8245 27.9173 71.4596 28.0604C71.0946 28.1964 70.6581 28.2644 70.1501 28.2644ZM74.3036 26.8261L74.3251 25.5059L77.5988 22.5113H78.8438L76.3322 24.98L75.7741 25.4522L74.3036 26.8261ZM73.4664 28.2V20.2358H74.4968V28.2H73.4664ZM77.8134 28.2L75.5809 25.4308L76.2464 24.6043L79.08 28.2H77.8134ZM84.5837 28.2644C84.0041 28.2644 83.4853 28.1391 83.0273 27.8887C82.5765 27.6382 82.2223 27.2948 81.9647 26.8583C81.7071 26.4218 81.5783 25.9209 81.5783 25.3556C81.5783 24.7903 81.7071 24.2894 81.9647 23.853C82.2223 23.4165 82.5765 23.0766 83.0273 22.8333C83.4853 22.5828 84.0041 22.4576 84.5837 22.4576C85.0989 22.4576 85.5568 22.5614 85.9575 22.7689C86.3654 22.9692 86.6802 23.2698 86.9021 23.6705L86.1185 24.175C85.9325 23.8959 85.7035 23.692 85.4316 23.5632C85.1668 23.4272 84.8806 23.3592 84.5729 23.3592C84.2008 23.3592 83.8681 23.4415 83.5747 23.6061C83.2813 23.7707 83.0488 24.0032 82.8771 24.3038C82.7053 24.5971 82.6195 24.9478 82.6195 25.3556C82.6195 25.7635 82.7053 26.1177 82.8771 26.4182C83.0488 26.7188 83.2813 26.9513 83.5747 27.1159C83.8681 27.2805 84.2008 27.3628 84.5729 27.3628C84.8806 27.3628 85.1668 27.2984 85.4316 27.1696C85.7035 27.0336 85.9325 26.8261 86.1185 26.547L86.9021 27.0408C86.6802 27.4343 86.3654 27.7384 85.9575 27.9531C85.5568 28.1606 85.0989 28.2644 84.5837 28.2644ZM90.1594 28.2644C89.5869 28.2644 89.0789 28.1391 88.6352 27.8887C88.1916 27.6382 87.841 27.2948 87.5834 26.8583C87.3258 26.4146 87.197 25.9138 87.197 25.3556C87.197 24.7903 87.3258 24.2894 87.5834 23.853C87.841 23.4165 88.1916 23.0766 88.6352 22.8333C89.0789 22.5828 89.5869 22.4576 90.1594 22.4576C90.7247 22.4576 91.2291 22.5828 91.6728 22.8333C92.1236 23.0766 92.4742 23.4165 92.7246 23.853C92.9822 24.2823 93.111 24.7832 93.111 25.3556C93.111 25.9209 92.9822 26.4218 92.7246 26.8583C92.4742 27.2948 92.1236 27.6382 91.6728 27.8887C91.2291 28.1391 90.7247 28.2644 90.1594 28.2644ZM90.1594 27.3628C90.5243 27.3628 90.8499 27.2805 91.1361 27.1159C91.4295 26.9513 91.6585 26.7188 91.823 26.4182C91.9876 26.1105 92.0699 25.7563 92.0699 25.3556C92.0699 24.9478 91.9876 24.5971 91.823 24.3038C91.6585 24.0032 91.4295 23.7707 91.1361 23.6061C90.8499 23.4415 90.5243 23.3592 90.1594 23.3592C89.7944 23.3592 89.4689 23.4415 89.1826 23.6061C88.8964 23.7707 88.6674 24.0032 88.4957 24.3038C88.324 24.5971 88.2381 24.9478 88.2381 25.3556C88.2381 25.7563 88.324 26.1105 88.4957 26.4182C88.6674 26.7188 88.8964 26.9513 89.1826 27.1159C89.4689 27.2805 89.7944 27.3628 90.1594 27.3628ZM101.223 22.4576C101.681 22.4576 102.085 22.5471 102.436 22.726C102.786 22.9048 103.058 23.1768 103.252 23.5417C103.452 23.9066 103.552 24.3682 103.552 24.9263V28.2H102.522V25.0444C102.522 24.4934 102.393 24.0784 102.135 23.7993C101.878 23.5202 101.516 23.3807 101.051 23.3807C100.708 23.3807 100.407 23.4522 100.15 23.5954C99.892 23.7385 99.6916 23.9496 99.5485 24.2286C99.4126 24.5077 99.3446 24.8547 99.3446 25.2698V28.2H98.3142V25.0444C98.3142 24.4934 98.1854 24.0784 97.9278 23.7993C97.6773 23.5202 97.316 23.3807 96.8437 23.3807C96.5074 23.3807 96.2105 23.4522 95.9529 23.5954C95.6953 23.7385 95.4949 23.9496 95.3518 24.2286C95.2087 24.5077 95.1371 24.8547 95.1371 25.2698V28.2H94.1067V22.5113H95.0942V24.0247L94.9332 23.6383C95.1121 23.2662 95.3876 22.9764 95.7597 22.7689C96.1317 22.5614 96.5647 22.4576 97.0584 22.4576C97.6022 22.4576 98.0709 22.5936 98.4645 22.8655C98.858 23.1302 99.1156 23.5345 99.2373 24.0784L98.8187 23.9066C98.9904 23.4701 99.2909 23.1195 99.7203 22.8548C100.15 22.59 100.65 22.4576 101.223 22.4576ZM105.266 28.2644C105.065 28.2644 104.893 28.1964 104.75 28.0604C104.607 27.9173 104.536 27.7384 104.536 27.5238C104.536 27.3091 104.607 27.1338 104.75 26.9978C104.893 26.8619 105.065 26.7939 105.266 26.7939C105.459 26.7939 105.623 26.8619 105.759 26.9978C105.902 27.1338 105.974 27.3091 105.974 27.5238C105.974 27.7384 105.902 27.9173 105.759 28.0604C105.623 28.1964 105.459 28.2644 105.266 28.2644ZM107.756 28.2644C107.555 28.2644 107.384 28.1964 107.24 28.0604C107.097 27.9173 107.026 27.7384 107.026 27.5238C107.026 27.3091 107.097 27.1338 107.24 26.9978C107.384 26.8619 107.555 26.7939 107.756 26.7939C107.949 26.7939 108.113 26.8619 108.249 26.9978C108.393 27.1338 108.464 27.3091 108.464 27.5238C108.464 27.7384 108.393 27.9173 108.249 28.0604C108.113 28.1964 107.949 28.2644 107.756 28.2644ZM110.246 28.2644C110.045 28.2644 109.874 28.1964 109.731 28.0604C109.587 27.9173 109.516 27.7384 109.516 27.5238C109.516 27.3091 109.587 27.1338 109.731 26.9978C109.874 26.8619 110.045 26.7939 110.246 26.7939C110.439 26.7939 110.604 26.8619 110.74 26.9978C110.883 27.1338 110.954 27.3091 110.954 27.5238C110.954 27.7384 110.883 27.9173 110.74 28.0604C110.604 28.1964 110.439 28.2644 110.246 28.2644Z" fill="#1E1E1E"/>
<path d="M20.056 50.4667V44.2291L20.2676 44.4499H18.4828V44.0267H20.5252V50.4667H20.056ZM22.1954 46.4095C22.0911 46.4095 21.9991 46.3727 21.9194 46.2991C21.8458 46.2193 21.809 46.1243 21.809 46.0139C21.809 45.9035 21.8458 45.8115 21.9194 45.7379C21.9991 45.6643 22.0911 45.6275 22.1954 45.6275C22.2997 45.6275 22.3886 45.6643 22.4622 45.7379C22.5419 45.8115 22.5818 45.9035 22.5818 46.0139C22.5818 46.1243 22.5419 46.2193 22.4622 46.2991C22.3886 46.3727 22.2997 46.4095 22.1954 46.4095ZM22.1954 50.5035C22.0911 50.5035 21.9991 50.4667 21.9194 50.3931C21.8458 50.3133 21.809 50.2183 21.809 50.1079C21.809 49.9975 21.8458 49.9055 21.9194 49.8319C21.9991 49.7583 22.0911 49.7215 22.1954 49.7215C22.2997 49.7215 22.3886 49.7583 22.4622 49.8319C22.5419 49.9055 22.5818 49.9975 22.5818 50.1079C22.5818 50.2183 22.5419 50.3133 22.4622 50.3931C22.3886 50.4667 22.2997 50.5035 22.1954 50.5035ZM25.1412 50.5127C24.6689 50.5127 24.2273 50.4329 23.8164 50.2735C23.4116 50.114 23.0957 49.9055 22.8688 49.6479L23.108 49.2891C23.3042 49.516 23.5802 49.7061 23.936 49.8595C24.2978 50.0067 24.6996 50.0803 25.1412 50.0803C25.7177 50.0803 26.1562 49.9515 26.4568 49.6939C26.7634 49.4363 26.9168 49.0897 26.9168 48.6543C26.9168 48.2249 26.7634 47.8815 26.4568 47.6239C26.1562 47.3601 25.684 47.2283 25.04 47.2283H24.6352V46.8879L26.6868 44.2659L26.7512 44.4499H23.108V44.0267H27.1468V44.3579L25.1044 46.9799L24.902 46.8327H25.1044C25.871 46.8327 26.4445 47.0013 26.8248 47.3387C27.205 47.676 27.3952 48.1145 27.3952 48.6543C27.3952 49.01 27.3093 49.3289 27.1376 49.6111C26.972 49.8932 26.7205 50.114 26.3832 50.2735C26.052 50.4329 25.638 50.5127 25.1412 50.5127ZM30.5381 50.5127C30.0474 50.5127 29.6119 50.3808 29.2317 50.1171C28.8514 49.8533 28.5539 49.4792 28.3393 48.9947C28.1246 48.504 28.0173 47.9213 28.0173 47.2467C28.0173 46.572 28.1246 45.9924 28.3393 45.5079C28.5539 45.0172 28.8514 44.64 29.2317 44.3763C29.6119 44.1125 30.0474 43.9807 30.5381 43.9807C31.0349 43.9807 31.4703 44.1125 31.8445 44.3763C32.2247 44.64 32.5222 45.0172 32.7369 45.5079C32.9515 45.9924 33.0589 46.572 33.0589 47.2467C33.0589 47.9213 32.9515 48.504 32.7369 48.9947C32.5222 49.4792 32.2247 49.8533 31.8445 50.1171C31.4703 50.3808 31.0349 50.5127 30.5381 50.5127ZM30.5381 50.0803C30.949 50.0803 31.3078 49.9699 31.6145 49.7491C31.9211 49.5221 32.1603 49.1971 32.3321 48.7739C32.5038 48.3507 32.5897 47.8416 32.5897 47.2467C32.5897 46.6456 32.5038 46.1365 32.3321 45.7195C32.1603 45.2963 31.9211 44.9743 31.6145 44.7535C31.3078 44.5265 30.949 44.4131 30.5381 44.4131C30.1333 44.4131 29.7745 44.5265 29.4617 44.7535C29.155 44.9743 28.9158 45.2963 28.7441 45.7195C28.5723 46.1365 28.4865 46.6456 28.4865 47.2467C28.4865 47.8416 28.5723 48.3507 28.7441 48.7739C28.9158 49.1971 29.155 49.5221 29.4617 49.7491C29.7745 49.9699 30.1333 50.0803 30.5381 50.0803ZM35.4681 50.4973C35.19 50.4973 34.9385 50.434 34.7137 50.3072C34.4888 50.1764 34.3089 49.9903 34.1739 49.7491C34.0431 49.5037 33.9777 49.2053 33.9777 48.8536C33.9777 48.502 34.0431 48.2055 34.1739 47.9643C34.3048 47.7189 34.4826 47.5329 34.7075 47.4061C34.9324 47.2794 35.1859 47.216 35.4681 47.216C35.7747 47.216 36.0487 47.2855 36.2899 47.4245C36.5353 47.5595 36.7274 47.7517 36.8665 48.0011C37.0055 48.2464 37.075 48.5306 37.075 48.8536C37.075 49.1807 37.0055 49.4669 36.8665 49.7123C36.7274 49.9576 36.5353 50.1498 36.2899 50.2888C36.0487 50.4278 35.7747 50.4973 35.4681 50.4973ZM33.8059 51.6565V47.2467H34.223V48.2157L34.1801 48.8597L34.2414 49.5099V51.6565H33.8059ZM35.4374 50.1109C35.6664 50.1109 35.8708 50.0598 36.0507 49.9576C36.2306 49.8513 36.3737 49.7041 36.4801 49.516C36.5864 49.3238 36.6395 49.103 36.6395 48.8536C36.6395 48.6042 36.5864 48.3854 36.4801 48.1973C36.3737 48.0093 36.2306 47.8621 36.0507 47.7557C35.8708 47.6494 35.6664 47.5963 35.4374 47.5963C35.2084 47.5963 35.0019 47.6494 34.8179 47.7557C34.638 47.8621 34.4949 48.0093 34.3886 48.1973C34.2864 48.3854 34.2353 48.6042 34.2353 48.8536C34.2353 49.103 34.2864 49.3238 34.3886 49.516C34.4949 49.7041 34.638 49.8513 34.8179 49.9576C35.0019 50.0598 35.2084 50.1109 35.4374 50.1109ZM41.7408 47.216C42.0025 47.216 42.2295 47.2671 42.4216 47.3693C42.6179 47.4675 42.7692 47.6188 42.8755 47.8232C42.9859 48.0277 43.0411 48.2853 43.0411 48.596V50.4667H42.6056V48.6389C42.6056 48.2996 42.5239 48.044 42.3603 47.8723C42.2008 47.6965 41.9739 47.6085 41.6795 47.6085C41.4587 47.6085 41.2665 47.6556 41.103 47.7496C40.9435 47.8396 40.8188 47.9725 40.7288 48.1483C40.643 48.32 40.6 48.5285 40.6 48.7739V50.4667H40.1646V48.6389C40.1646 48.2996 40.0828 48.044 39.9192 47.8723C39.7557 47.6965 39.5267 47.6085 39.2323 47.6085C39.0156 47.6085 38.8255 47.6556 38.6619 47.7496C38.4983 47.8396 38.3716 47.9725 38.2816 48.1483C38.1958 48.32 38.1528 48.5285 38.1528 48.7739V50.4667H37.7174V47.2467H38.1344V48.1176L38.067 47.9643C38.1651 47.7312 38.3225 47.5493 38.5392 47.4184C38.76 47.2835 39.0197 47.216 39.3182 47.216C39.633 47.216 39.9008 47.2957 40.1216 47.4552C40.3424 47.6106 40.4855 47.8457 40.551 48.1605L40.3792 48.0931C40.4733 47.8314 40.6389 47.6208 40.876 47.4613C41.1173 47.2978 41.4055 47.216 41.7408 47.216Z" fill="#1E1E1E"/>
<path d="M24.2844 64.6766C23.8652 64.6766 23.464 64.6179 23.0807 64.5003C22.6974 64.3776 22.3932 64.2218 22.1684 64.0326L22.5134 63.2583C22.728 63.427 22.9938 63.5675 23.3107 63.68C23.6276 63.7924 23.9521 63.8486 24.2844 63.8486C24.5655 63.8486 24.7929 63.818 24.9667 63.7566C25.1405 63.6953 25.2682 63.6135 25.35 63.5113C25.4318 63.404 25.4727 63.2839 25.4727 63.151C25.4727 62.9874 25.4139 62.8571 25.2964 62.76C25.1788 62.6578 25.0255 62.5785 24.8364 62.5223C24.6524 62.461 24.4454 62.4048 24.2154 62.3536C23.9905 62.3025 23.763 62.2438 23.533 62.1773C23.3081 62.1058 23.1011 62.0163 22.912 61.909C22.728 61.7965 22.5772 61.6483 22.4597 61.4643C22.3421 61.2803 22.2834 61.0452 22.2834 60.759C22.2834 60.4676 22.36 60.2019 22.5134 59.9616C22.6718 59.7163 22.9095 59.5221 23.2264 59.379C23.5484 59.2308 23.9547 59.1566 24.4454 59.1566C24.7674 59.1566 25.0868 59.1975 25.4037 59.2793C25.7206 59.3611 25.9966 59.4786 26.2317 59.632L25.9174 60.4063C25.6771 60.2632 25.4292 60.1584 25.1737 60.092C24.9181 60.0204 24.6728 59.9846 24.4377 59.9846C24.1617 59.9846 23.9368 60.0179 23.763 60.0843C23.5944 60.1508 23.4691 60.2376 23.3874 60.345C23.3107 60.4523 23.2724 60.575 23.2724 60.713C23.2724 60.8765 23.3286 61.0094 23.441 61.1116C23.5586 61.2088 23.7094 61.2854 23.8934 61.3416C24.0825 61.3979 24.292 61.4541 24.522 61.5103C24.752 61.5614 24.9795 61.6202 25.2044 61.6866C25.4344 61.7531 25.6414 61.84 25.8254 61.9473C26.0145 62.0546 26.1652 62.2003 26.2777 62.3843C26.3952 62.5683 26.454 62.8009 26.454 63.082C26.454 63.3682 26.3748 63.634 26.2164 63.8793C26.063 64.1195 25.8254 64.3138 25.5034 64.462C25.1814 64.6051 24.775 64.6766 24.2844 64.6766ZM28.5846 64.6536C28.1349 64.6536 27.7873 64.5386 27.542 64.3086C27.2966 64.0735 27.174 63.7285 27.174 63.2736V59.6013H28.1323V63.2506C28.1323 63.4449 28.1809 63.5956 28.278 63.703C28.3802 63.8103 28.5207 63.864 28.6996 63.864C28.9143 63.864 29.0932 63.8078 29.2363 63.6953L29.5046 64.3776C29.3922 64.4696 29.2542 64.5386 29.0906 64.5846C28.9271 64.6306 28.7584 64.6536 28.5846 64.6536ZM26.4993 61.3033V60.5366H29.2286V61.3033H26.4993ZM32.5087 64.6V63.772L32.455 63.5956V62.1466C32.455 61.8655 32.3707 61.6483 32.202 61.495C32.0333 61.3365 31.7778 61.2573 31.4353 61.2573C31.2053 61.2573 30.9779 61.2931 30.753 61.3646C30.5332 61.4362 30.3467 61.5359 30.1933 61.6636L29.8177 60.966C30.0374 60.7973 30.2981 60.6721 30.5997 60.5903C30.9063 60.5034 31.2232 60.46 31.5503 60.46C32.1432 60.46 32.6007 60.6031 32.9227 60.8893C33.2498 61.1704 33.4133 61.6074 33.4133 62.2003V64.6H32.5087ZM31.2207 64.6536C30.914 64.6536 30.6457 64.6025 30.4157 64.5003C30.1857 64.393 30.0068 64.2473 29.879 64.0633C29.7563 63.8742 29.695 63.6621 29.695 63.427C29.695 63.197 29.7487 62.99 29.856 62.806C29.9684 62.622 30.1499 62.4763 30.4003 62.369C30.6508 62.2616 30.983 62.208 31.397 62.208H32.5853V62.8443H31.466C31.1389 62.8443 30.9191 62.898 30.8067 63.0053C30.6942 63.1075 30.638 63.2353 30.638 63.3886C30.638 63.5624 30.707 63.7004 30.845 63.8026C30.983 63.9049 31.1747 63.956 31.42 63.956C31.6551 63.956 31.8647 63.9023 32.0487 63.795C32.2378 63.6876 32.3732 63.5292 32.455 63.3196L32.616 63.8946C32.524 64.1349 32.3579 64.3214 32.1177 64.4543C31.8825 64.5872 31.5835 64.6536 31.2207 64.6536ZM34.3366 64.6V60.506H35.2489V61.633L35.1416 61.3033C35.2642 61.0273 35.4559 60.8178 35.7166 60.6746C35.9823 60.5315 36.312 60.46 36.7056 60.46V61.3723C36.6647 61.3621 36.6263 61.357 36.5906 61.357C36.5548 61.3519 36.519 61.3493 36.4832 61.3493C36.1203 61.3493 35.8316 61.4566 35.6169 61.6713C35.4022 61.8809 35.2949 62.1952 35.2949 62.6143V64.6H34.3366ZM38.9026 64.6536C38.4528 64.6536 38.1053 64.5386 37.8599 64.3086C37.6146 64.0735 37.4919 63.7285 37.4919 63.2736V59.6013H38.4503V63.2506C38.4503 63.4449 38.4988 63.5956 38.5959 63.703C38.6981 63.8103 38.8387 63.864 39.0176 63.864C39.2323 63.864 39.4111 63.8078 39.5543 63.6953L39.8226 64.3776C39.7101 64.4696 39.5721 64.5386 39.4086 64.5846C39.245 64.6306 39.0764 64.6536 38.9026 64.6536ZM36.8173 61.3033V60.5366H39.5466V61.3033H36.8173Z" fill="#3D89DF"/>
<path d="M47.6801 50.4667L50.5137 44.2475L50.6793 44.4499H46.5669L46.8061 44.2291V45.6827H46.3461V44.0267H50.9645V44.3579L48.1953 50.4667H47.6801ZM51.7513 46.4095C51.6471 46.4095 51.5551 46.3727 51.4753 46.2991C51.4017 46.2193 51.3649 46.1243 51.3649 46.0139C51.3649 45.9035 51.4017 45.8115 51.4753 45.7379C51.5551 45.6643 51.6471 45.6275 51.7513 45.6275C51.8556 45.6275 51.9445 45.6643 52.0181 45.7379C52.0979 45.8115 52.1377 45.9035 52.1377 46.0139C52.1377 46.1243 52.0979 46.2193 52.0181 46.2991C51.9445 46.3727 51.8556 46.4095 51.7513 46.4095ZM51.7513 50.5035C51.6471 50.5035 51.5551 50.4667 51.4753 50.3931C51.4017 50.3133 51.3649 50.2183 51.3649 50.1079C51.3649 49.9975 51.4017 49.9055 51.4753 49.8319C51.5551 49.7583 51.6471 49.7215 51.7513 49.7215C51.8556 49.7215 51.9445 49.7583 52.0181 49.8319C52.0979 49.9055 52.1377 49.9975 52.1377 50.1079C52.1377 50.2183 52.0979 50.3133 52.0181 50.3931C51.9445 50.4667 51.8556 50.5035 51.7513 50.5035ZM55.3319 50.5127C54.8413 50.5127 54.4058 50.3808 54.0255 50.1171C53.6453 49.8533 53.3478 49.4792 53.1331 48.9947C52.9185 48.504 52.8111 47.9213 52.8111 47.2467C52.8111 46.572 52.9185 45.9924 53.1331 45.5079C53.3478 45.0172 53.6453 44.64 54.0255 44.3763C54.4058 44.1125 54.8413 43.9807 55.3319 43.9807C55.8287 43.9807 56.2642 44.1125 56.6383 44.3763C57.0186 44.64 57.3161 45.0172 57.5307 45.5079C57.7454 45.9924 57.8527 46.572 57.8527 47.2467C57.8527 47.9213 57.7454 48.504 57.5307 48.9947C57.3161 49.4792 57.0186 49.8533 56.6383 50.1171C56.2642 50.3808 55.8287 50.5127 55.3319 50.5127ZM55.3319 50.0803C55.7429 50.0803 56.1017 49.9699 56.4083 49.7491C56.715 49.5221 56.9542 49.1971 57.1259 48.7739C57.2977 48.3507 57.3835 47.8416 57.3835 47.2467C57.3835 46.6456 57.2977 46.1365 57.1259 45.7195C56.9542 45.2963 56.715 44.9743 56.4083 44.7535C56.1017 44.5265 55.7429 44.4131 55.3319 44.4131C54.9271 44.4131 54.5683 44.5265 54.2555 44.7535C53.9489 44.9743 53.7097 45.2963 53.5379 45.7195C53.3662 46.1365 53.2803 46.6456 53.2803 47.2467C53.2803 47.8416 53.3662 48.3507 53.5379 48.7739C53.7097 49.1971 53.9489 49.5221 54.2555 49.7491C54.5683 49.9699 54.9271 50.0803 55.3319 50.0803ZM61.0194 50.5127C60.5287 50.5127 60.0933 50.3808 59.713 50.1171C59.3327 49.8533 59.0353 49.4792 58.8206 48.9947C58.6059 48.504 58.4986 47.9213 58.4986 47.2467C58.4986 46.572 58.6059 45.9924 58.8206 45.5079C59.0353 45.0172 59.3327 44.64 59.713 44.3763C60.0933 44.1125 60.5287 43.9807 61.0194 43.9807C61.5162 43.9807 61.9517 44.1125 62.3258 44.3763C62.7061 44.64 63.0035 45.0172 63.2182 45.5079C63.4329 45.9924 63.5402 46.572 63.5402 47.2467C63.5402 47.9213 63.4329 48.504 63.2182 48.9947C63.0035 49.4792 62.7061 49.8533 62.3258 50.1171C61.9517 50.3808 61.5162 50.5127 61.0194 50.5127ZM61.0194 50.0803C61.4303 50.0803 61.7891 49.9699 62.0958 49.7491C62.4025 49.5221 62.6417 49.1971 62.8134 48.7739C62.9851 48.3507 63.071 47.8416 63.071 47.2467C63.071 46.6456 62.9851 46.1365 62.8134 45.7195C62.6417 45.2963 62.4025 44.9743 62.0958 44.7535C61.7891 44.5265 61.4303 44.4131 61.0194 44.4131C60.6146 44.4131 60.2558 44.5265 59.943 44.7535C59.6363 44.9743 59.3971 45.2963 59.2254 45.7195C59.0537 46.1365 58.9678 46.6456 58.9678 47.2467C58.9678 47.8416 59.0537 48.3507 59.2254 48.7739C59.3971 49.1971 59.6363 49.5221 59.943 49.7491C60.2558 49.9699 60.6146 50.0803 61.0194 50.0803ZM65.9494 50.4973C65.6714 50.4973 65.4199 50.434 65.195 50.3072C64.9701 50.1764 64.7902 49.9903 64.6553 49.7491C64.5244 49.5037 64.459 49.2053 64.459 48.8536C64.459 48.502 64.5244 48.2055 64.6553 47.9643C64.7861 47.7189 64.964 47.5329 65.1889 47.4061C65.4138 47.2794 65.6673 47.216 65.9494 47.216C66.2561 47.216 66.53 47.2855 66.7713 47.4245C67.0166 47.5595 67.2088 47.7517 67.3478 48.0011C67.4868 48.2464 67.5563 48.5306 67.5563 48.8536C67.5563 49.1807 67.4868 49.4669 67.3478 49.7123C67.2088 49.9576 67.0166 50.1498 66.7713 50.2888C66.53 50.4278 66.2561 50.4973 65.9494 50.4973ZM64.2873 51.6565V47.2467H64.7043V48.2157L64.6614 48.8597L64.7227 49.5099V51.6565H64.2873ZM65.9187 50.1109C66.1477 50.1109 66.3522 50.0598 66.5321 49.9576C66.712 49.8513 66.8551 49.7041 66.9614 49.516C67.0677 49.3238 67.1209 49.103 67.1209 48.8536C67.1209 48.6042 67.0677 48.3854 66.9614 48.1973C66.8551 48.0093 66.712 47.8621 66.5321 47.7557C66.3522 47.6494 66.1477 47.5963 65.9187 47.5963C65.6898 47.5963 65.4833 47.6494 65.2993 47.7557C65.1194 47.8621 64.9763 48.0093 64.8699 48.1973C64.7677 48.3854 64.7166 48.6042 64.7166 48.8536C64.7166 49.103 64.7677 49.3238 64.8699 49.516C64.9763 49.7041 65.1194 49.8513 65.2993 49.9576C65.4833 50.0598 65.6898 50.1109 65.9187 50.1109ZM72.2222 47.216C72.4839 47.216 72.7108 47.2671 72.903 47.3693C73.0992 47.4675 73.2505 47.6188 73.3568 47.8232C73.4672 48.0277 73.5224 48.2853 73.5224 48.596V50.4667H73.087V48.6389C73.087 48.2996 73.0052 48.044 72.8416 47.8723C72.6822 47.6965 72.4552 47.6085 72.1608 47.6085C71.94 47.6085 71.7479 47.6556 71.5843 47.7496C71.4248 47.8396 71.3001 47.9725 71.2102 48.1483C71.1243 48.32 71.0814 48.5285 71.0814 48.7739V50.4667H70.6459V48.6389C70.6459 48.2996 70.5641 48.044 70.4006 47.8723C70.237 47.6965 70.008 47.6085 69.7136 47.6085C69.4969 47.6085 69.3068 47.6556 69.1432 47.7496C68.9797 47.8396 68.8529 47.9725 68.763 48.1483C68.6771 48.32 68.6342 48.5285 68.6342 48.7739V50.4667H68.1987V47.2467H68.6158V48.1176L68.5483 47.9643C68.6464 47.7312 68.8039 47.5493 69.0206 47.4184C69.2414 47.2835 69.501 47.216 69.7995 47.216C70.1144 47.216 70.3822 47.2957 70.603 47.4552C70.8238 47.6106 70.9669 47.8457 71.0323 48.1605L70.8606 48.0931C70.9546 47.8314 71.1202 47.6208 71.3574 47.4613C71.5986 47.2978 71.8869 47.216 72.2222 47.216Z" fill="#1E1E1E"/>
<path d="M50.6663 61.702H53.342V62.5453H50.6663V61.702ZM50.7507 64.6H49.754V59.2333H53.6717V60.069H50.7507V64.6ZM54.2368 64.6V60.506H55.1952V64.6H54.2368ZM54.7198 59.8313C54.5409 59.8313 54.3927 59.7751 54.2752 59.6626C54.1627 59.5502 54.1065 59.4148 54.1065 59.2563C54.1065 59.0928 54.1627 58.9573 54.2752 58.85C54.3927 58.7375 54.5409 58.6813 54.7198 58.6813C54.8987 58.6813 55.0444 58.735 55.1568 58.8423C55.2744 58.9445 55.3332 59.0749 55.3332 59.2333C55.3332 59.402 55.2769 59.5451 55.1645 59.6626C55.0521 59.7751 54.9038 59.8313 54.7198 59.8313ZM58.4693 60.46C58.7964 60.46 59.0878 60.5239 59.3433 60.6516C59.604 60.7794 59.8084 60.9762 59.9566 61.242C60.1049 61.5026 60.179 61.84 60.179 62.254V64.6H59.2206V62.3766C59.2206 62.0138 59.1338 61.7429 58.96 61.564C58.7913 61.3851 58.5536 61.2956 58.247 61.2956C58.0221 61.2956 57.8228 61.3416 57.649 61.4336C57.4752 61.5256 57.3398 61.6636 57.2426 61.8476C57.1506 62.0265 57.1046 62.254 57.1046 62.53V64.6H56.1463V60.506H57.0586V61.61L56.8976 61.2726C57.0408 61.012 57.2478 60.8126 57.5186 60.6746C57.7946 60.5315 58.1115 60.46 58.4693 60.46ZM61.088 64.6V60.506H62.0464V64.6H61.088ZM61.571 59.8313C61.3921 59.8313 61.2439 59.7751 61.1264 59.6626C61.0139 59.5502 60.9577 59.4148 60.9577 59.2563C60.9577 59.0928 61.0139 58.9573 61.1264 58.85C61.2439 58.7375 61.3921 58.6813 61.571 58.6813C61.7499 58.6813 61.8956 58.735 62.008 58.8423C62.1256 58.9445 62.1844 59.0749 62.1844 59.2333C62.1844 59.402 62.1281 59.5451 62.0157 59.6626C61.9032 59.7751 61.755 59.8313 61.571 59.8313ZM64.2625 64.6536C63.9201 64.6536 63.5904 64.6102 63.2735 64.5233C62.9617 64.4313 62.7138 64.3214 62.5298 64.1936L62.8978 63.4653C63.0818 63.5829 63.3016 63.68 63.5572 63.7566C63.8127 63.8333 64.0683 63.8716 64.3238 63.8716C64.6254 63.8716 64.8426 63.8308 64.9755 63.749C65.1135 63.6672 65.1825 63.5573 65.1825 63.4193C65.1825 63.3069 65.1365 63.2225 65.0445 63.1663C64.9525 63.105 64.8324 63.059 64.6842 63.0283C64.5359 62.9976 64.3698 62.9695 64.1858 62.944C64.0069 62.9184 63.8255 62.8852 63.6415 62.8443C63.4626 62.7983 63.2991 62.7344 63.1508 62.6526C63.0026 62.5658 62.8825 62.4508 62.7905 62.3076C62.6985 62.1645 62.6525 61.9754 62.6525 61.7403C62.6525 61.4796 62.7266 61.2548 62.8748 61.0656C63.0231 60.8714 63.2301 60.7232 63.4958 60.621C63.7667 60.5136 64.0862 60.46 64.4542 60.46C64.7302 60.46 65.0087 60.4906 65.2898 60.552C65.5709 60.6133 65.8035 60.7002 65.9875 60.8126L65.6195 61.541C65.4253 61.4234 65.2285 61.3442 65.0292 61.3033C64.8349 61.2573 64.6407 61.2343 64.4465 61.2343C64.1552 61.2343 63.9379 61.2778 63.7948 61.3646C63.6568 61.4515 63.5878 61.5614 63.5878 61.6943C63.5878 61.817 63.6338 61.909 63.7258 61.9703C63.8178 62.0316 63.9379 62.0802 64.0862 62.116C64.2344 62.1518 64.3979 62.1824 64.5768 62.208C64.7608 62.2284 64.9423 62.2616 65.1212 62.3076C65.3001 62.3536 65.4636 62.4175 65.6118 62.4993C65.7652 62.576 65.8878 62.6859 65.9798 62.829C66.0718 62.9721 66.1178 63.1586 66.1178 63.3886C66.1178 63.6442 66.0412 63.8665 65.8878 64.0556C65.7396 64.2448 65.5275 64.393 65.2515 64.5003C64.9755 64.6025 64.6458 64.6536 64.2625 64.6536ZM68.9595 60.46C69.2866 60.46 69.5779 60.5239 69.8335 60.6516C70.0941 60.7794 70.2986 60.9762 70.4468 61.242C70.595 61.5026 70.6691 61.84 70.6691 62.254V64.6H69.7108V62.3766C69.7108 62.0138 69.6239 61.7429 69.4501 61.564C69.2815 61.3851 69.0438 61.2956 68.7371 61.2956C68.5122 61.2956 68.3129 61.3416 68.1391 61.4336C67.9654 61.5256 67.8299 61.6636 67.7328 61.8476C67.6408 62.0265 67.5948 62.254 67.5948 62.53V64.6H66.6365V58.9113H67.5948V61.61L67.3878 61.2726C67.5309 61.012 67.7379 60.8126 68.0088 60.6746C68.2848 60.5315 68.6017 60.46 68.9595 60.46Z" fill="#3D89DF"/>
<path d="M84.775 50.5035C84.2905 50.5035 83.8581 50.3716 83.4778 50.1079C83.1037 49.838 82.8123 49.4608 82.6038 48.9763C82.3953 48.4856 82.291 47.9091 82.291 47.2467C82.291 46.5843 82.3953 46.0108 82.6038 45.5263C82.8123 45.0356 83.1037 44.6584 83.4778 44.3947C83.8581 44.1248 84.2905 43.9899 84.775 43.9899C85.2718 43.9899 85.7042 44.1248 86.0722 44.3947C86.4463 44.6584 86.7377 45.0356 86.9462 45.5263C87.1547 46.0108 87.259 46.5843 87.259 47.2467C87.259 47.9091 87.1547 48.4856 86.9462 48.9763C86.7377 49.4608 86.4463 49.838 86.0722 50.1079C85.7042 50.3716 85.2718 50.5035 84.775 50.5035ZM84.775 50.2183C85.2105 50.2183 85.5907 50.0987 85.9158 49.8595C86.2409 49.6203 86.4954 49.2799 86.6794 48.8383C86.8634 48.3905 86.9554 47.86 86.9554 47.2467C86.9554 46.6272 86.8634 46.0967 86.6794 45.6551C86.4954 45.2135 86.2409 44.8731 85.9158 44.6339C85.5907 44.3947 85.2105 44.2751 84.775 44.2751C84.3457 44.2751 83.9654 44.3947 83.6342 44.6339C83.3091 44.8731 83.0546 45.2135 82.8706 45.6551C82.6927 46.0967 82.6038 46.6272 82.6038 47.2467C82.6038 47.86 82.6927 48.3905 82.8706 48.8383C83.0546 49.2799 83.3091 49.6203 83.6342 49.8595C83.9654 50.0987 84.3457 50.2183 84.775 50.2183ZM88.2113 50.4943C88.1315 50.4943 88.061 50.4667 87.9997 50.4115C87.9383 50.3501 87.9077 50.2765 87.9077 50.1907C87.9077 50.1048 87.9383 50.0343 87.9997 49.9791C88.061 49.9177 88.1315 49.8871 88.2113 49.8871C88.2971 49.8871 88.3677 49.9177 88.4229 49.9791C88.4842 50.0343 88.5149 50.1048 88.5149 50.1907C88.5149 50.2765 88.4842 50.3501 88.4229 50.4115C88.3677 50.4667 88.2971 50.4943 88.2113 50.4943ZM91.6398 50.5035C91.1552 50.5035 90.7228 50.3716 90.3426 50.1079C89.9684 49.838 89.6771 49.4608 89.4686 48.9763C89.26 48.4856 89.1558 47.9091 89.1558 47.2467C89.1558 46.5843 89.26 46.0108 89.4686 45.5263C89.6771 45.0356 89.9684 44.6584 90.3426 44.3947C90.7228 44.1248 91.1552 43.9899 91.6398 43.9899C92.1366 43.9899 92.569 44.1248 92.937 44.3947C93.3111 44.6584 93.6024 45.0356 93.811 45.5263C94.0195 46.0108 94.1238 46.5843 94.1238 47.2467C94.1238 47.9091 94.0195 48.4856 93.811 48.9763C93.6024 49.4608 93.3111 49.838 92.937 50.1079C92.569 50.3716 92.1366 50.5035 91.6398 50.5035ZM91.6398 50.2183C92.0752 50.2183 92.4555 50.0987 92.7806 49.8595C93.1056 49.6203 93.3602 49.2799 93.5442 48.8383C93.7282 48.3905 93.8202 47.86 93.8202 47.2467C93.8202 46.6272 93.7282 46.0967 93.5442 45.6551C93.3602 45.2135 93.1056 44.8731 92.7806 44.6339C92.4555 44.3947 92.0752 44.2751 91.6398 44.2751C91.2104 44.2751 90.8302 44.3947 90.499 44.6339C90.1739 44.8731 89.9194 45.2135 89.7354 45.6551C89.5575 46.0967 89.4686 46.6272 89.4686 47.2467C89.4686 47.86 89.5575 48.3905 89.7354 48.8383C89.9194 49.2799 90.1739 49.6203 90.499 49.8595C90.8302 50.0987 91.2104 50.2183 91.6398 50.2183ZM97.3003 50.5035C96.8158 50.5035 96.3834 50.3716 96.0031 50.1079C95.629 49.838 95.3376 49.4608 95.1291 48.9763C94.9206 48.4856 94.8163 47.9091 94.8163 47.2467C94.8163 46.5843 94.9206 46.0108 95.1291 45.5263C95.3376 45.0356 95.629 44.6584 96.0031 44.3947C96.3834 44.1248 96.8158 43.9899 97.3003 43.9899C97.7971 43.9899 98.2295 44.1248 98.5975 44.3947C98.9716 44.6584 99.263 45.0356 99.4715 45.5263C99.68 46.0108 99.7843 46.5843 99.7843 47.2467C99.7843 47.9091 99.68 48.4856 99.4715 48.9763C99.263 49.4608 98.9716 49.838 98.5975 50.1079C98.2295 50.3716 97.7971 50.5035 97.3003 50.5035ZM97.3003 50.2183C97.7358 50.2183 98.116 50.0987 98.4411 49.8595C98.7662 49.6203 99.0207 49.2799 99.2047 48.8383C99.3887 48.3905 99.4807 47.86 99.4807 47.2467C99.4807 46.6272 99.3887 46.0967 99.2047 45.6551C99.0207 45.2135 98.7662 44.8731 98.4411 44.6339C98.116 44.3947 97.7358 44.2751 97.3003 44.2751C96.871 44.2751 96.4907 44.3947 96.1595 44.6339C95.8344 44.8731 95.5799 45.2135 95.3959 45.6551C95.218 46.0967 95.1291 46.6272 95.1291 47.2467C95.1291 47.86 95.218 48.3905 95.3959 48.8383C95.5799 49.2799 95.8344 49.6203 96.1595 49.8595C96.4907 50.0987 96.871 50.2183 97.3003 50.2183ZM104.583 47.216C104.845 47.216 105.072 47.2671 105.264 47.3693C105.46 47.4675 105.611 47.6188 105.718 47.8232C105.828 48.0277 105.883 48.2853 105.883 48.596V50.4667H105.448V48.6389C105.448 48.2996 105.366 48.044 105.203 47.8723C105.043 47.6965 104.816 47.6085 104.522 47.6085C104.301 47.6085 104.109 47.6556 103.945 47.7496C103.786 47.8396 103.661 47.9725 103.571 48.1483C103.485 48.32 103.442 48.5285 103.442 48.7739V50.4667H103.007V48.6389C103.007 48.2996 102.925 48.044 102.761 47.8723C102.598 47.6965 102.369 47.6085 102.075 47.6085C101.858 47.6085 101.668 47.6556 101.504 47.7496C101.341 47.8396 101.214 47.9725 101.124 48.1483C101.038 48.32 100.995 48.5285 100.995 48.7739V50.4667H100.56V47.2467H100.977V48.1176L100.909 47.9643C101.007 47.7312 101.165 47.5493 101.381 47.4184C101.602 47.2835 101.862 47.216 102.16 47.216C102.475 47.216 102.743 47.2957 102.964 47.4552C103.185 47.6106 103.328 47.8457 103.393 48.1605L103.221 48.0931C103.316 47.8314 103.481 47.6208 103.718 47.4613C103.96 47.2978 104.248 47.216 104.583 47.216Z" fill="#DD524D"/>
<path d="M80.2046 64.646C79.7957 64.646 79.4328 64.5565 79.1159 64.3776C78.799 64.1988 78.5486 63.9534 78.3646 63.6416C78.1806 63.3248 78.0886 62.967 78.0886 62.5683C78.0886 62.1645 78.1806 61.8068 78.3646 61.495C78.5486 61.1832 78.799 60.9404 79.1159 60.7666C79.4328 60.5878 79.7957 60.4983 80.2046 60.4983C80.6084 60.4983 80.9687 60.5878 81.2856 60.7666C81.6076 60.9404 81.858 61.1832 82.0369 61.495C82.2209 61.8016 82.3129 62.1594 82.3129 62.5683C82.3129 62.9721 82.2209 63.3299 82.0369 63.6416C81.858 63.9534 81.6076 64.1988 81.2856 64.3776C80.9687 64.5565 80.6084 64.646 80.2046 64.646ZM80.2046 64.002C80.4653 64.002 80.6978 63.9432 80.9023 63.8256C81.1118 63.7081 81.2754 63.542 81.3929 63.3273C81.5105 63.1075 81.5693 62.8545 81.5693 62.5683C81.5693 62.277 81.5105 62.0265 81.3929 61.817C81.2754 61.6023 81.1118 61.4362 80.9023 61.3186C80.6978 61.2011 80.4653 61.1423 80.2046 61.1423C79.9439 61.1423 79.7114 61.2011 79.5069 61.3186C79.3025 61.4362 79.1389 61.6023 79.0163 61.817C78.8936 62.0265 78.8323 62.277 78.8323 62.5683C78.8323 62.8545 78.8936 63.1075 79.0163 63.3273C79.1389 63.542 79.3025 63.7081 79.5069 63.8256C79.7114 63.9432 79.9439 64.002 80.2046 64.002ZM83.9775 64.6L82.1988 60.5366H82.9655L84.5448 64.2166H84.1768L85.7868 60.5366H86.5075L84.7288 64.6H83.9775ZM88.5847 64.646C88.1503 64.646 87.767 64.5565 87.4347 64.3776C87.1076 64.1988 86.8521 63.9534 86.6681 63.6416C86.4892 63.3299 86.3997 62.9721 86.3997 62.5683C86.3997 62.1645 86.4866 61.8068 86.6604 61.495C86.8393 61.1832 87.0821 60.9404 87.3887 60.7666C87.7005 60.5878 88.0506 60.4983 88.4391 60.4983C88.8326 60.4983 89.1802 60.5852 89.4817 60.759C89.7833 60.9328 90.0184 61.1781 90.1871 61.495C90.3609 61.8068 90.4477 62.1722 90.4477 62.5913C90.4477 62.622 90.4452 62.6578 90.4401 62.6986C90.4401 62.7395 90.4375 62.7779 90.4324 62.8136H86.9747V62.2846H90.0491L89.7501 62.4686C89.7552 62.208 89.7015 61.9754 89.5891 61.771C89.4766 61.5665 89.3207 61.4081 89.1214 61.2956C88.9272 61.1781 88.6997 61.1193 88.4391 61.1193C88.1835 61.1193 87.9561 61.1781 87.7567 61.2956C87.5574 61.4081 87.4015 61.5691 87.2891 61.7786C87.1766 61.9831 87.1204 62.2182 87.1204 62.484V62.6066C87.1204 62.8775 87.1817 63.1203 87.3044 63.335C87.4322 63.5445 87.6085 63.7081 87.8334 63.8256C88.0583 63.9432 88.3164 64.002 88.6077 64.002C88.848 64.002 89.0652 63.9611 89.2594 63.8793C89.4587 63.7975 89.6325 63.6749 89.7807 63.5113L90.1871 63.9866C90.0031 64.2013 89.7731 64.3649 89.4971 64.4773C89.2262 64.5898 88.9221 64.646 88.5847 64.646ZM91.1631 64.6V60.5366H91.8684V61.6406L91.7994 61.3646C91.9119 61.0835 92.101 60.8689 92.3667 60.7206C92.6325 60.5724 92.9596 60.4983 93.3481 60.4983V61.2113C93.3174 61.2062 93.2867 61.2036 93.2561 61.2036C93.2305 61.2036 93.205 61.2036 93.1794 61.2036C92.7859 61.2036 92.4741 61.3212 92.2441 61.5563C92.0141 61.7914 91.8991 62.1313 91.8991 62.576V64.6H91.1631ZM95.5086 64.646C95.0997 64.646 94.7828 64.5361 94.5579 64.3163C94.333 64.0965 94.2206 63.7822 94.2206 63.3733V59.6473H94.9566V63.3426C94.9566 63.5624 95.0103 63.7311 95.1176 63.8486C95.23 63.9662 95.3885 64.025 95.5929 64.025C95.8229 64.025 96.0146 63.9611 96.1679 63.8333L96.3979 64.3623C96.2855 64.4594 96.15 64.531 95.9916 64.577C95.8383 64.623 95.6773 64.646 95.5086 64.646ZM93.5306 61.1423V60.5366H96.1219V61.1423H93.5306ZM96.9811 64.6V60.5366H97.7171V64.6H96.9811ZM97.3491 59.7546C97.206 59.7546 97.0858 59.7086 96.9887 59.6166C96.8967 59.5246 96.8507 59.4122 96.8507 59.2793C96.8507 59.1413 96.8967 59.0263 96.9887 58.9343C97.0858 58.8423 97.206 58.7963 97.3491 58.7963C97.4922 58.7963 97.6097 58.8423 97.7017 58.9343C97.7988 59.0212 97.8474 59.1311 97.8474 59.264C97.8474 59.402 97.8014 59.5195 97.7094 59.6166C97.6174 59.7086 97.4973 59.7546 97.3491 59.7546ZM103.899 60.4983C104.226 60.4983 104.515 60.5622 104.765 60.69C105.015 60.8178 105.21 61.012 105.348 61.2726C105.491 61.5333 105.562 61.863 105.562 62.2616V64.6H104.826V62.346C104.826 61.9524 104.734 61.656 104.55 61.4566C104.366 61.2573 104.108 61.1576 103.776 61.1576C103.531 61.1576 103.316 61.2088 103.132 61.311C102.948 61.4132 102.805 61.564 102.703 61.7633C102.606 61.9626 102.557 62.2105 102.557 62.507V64.6H101.821V62.346C101.821 61.9524 101.729 61.656 101.545 61.4566C101.366 61.2573 101.108 61.1576 100.771 61.1576C100.53 61.1576 100.318 61.2088 100.134 61.311C99.9503 61.4132 99.8072 61.564 99.705 61.7633C99.6028 61.9626 99.5517 62.2105 99.5517 62.507V64.6H98.8157V60.5366H99.521V61.6176L99.406 61.3416C99.5338 61.0759 99.7306 60.8689 99.9963 60.7206C100.262 60.5724 100.571 60.4983 100.924 60.4983C101.312 60.4983 101.647 60.5954 101.928 60.7896C102.209 60.9788 102.393 61.2675 102.48 61.656L102.181 61.5333C102.304 61.2215 102.519 60.9711 102.825 60.782C103.132 60.5929 103.49 60.4983 103.899 60.4983ZM108.419 64.646C107.985 64.646 107.601 64.5565 107.269 64.3776C106.942 64.1988 106.687 63.9534 106.503 63.6416C106.324 63.3299 106.234 62.9721 106.234 62.5683C106.234 62.1645 106.321 61.8068 106.495 61.495C106.674 61.1832 106.917 60.9404 107.223 60.7666C107.535 60.5878 107.885 60.4983 108.274 60.4983C108.667 60.4983 109.015 60.5852 109.316 60.759C109.618 60.9328 109.853 61.1781 110.022 61.495C110.195 61.8068 110.282 62.1722 110.282 62.5913C110.282 62.622 110.28 62.6578 110.275 62.6986C110.275 62.7395 110.272 62.7779 110.267 62.8136H106.809V62.2846H109.884L109.585 62.4686C109.59 62.208 109.536 61.9754 109.424 61.771C109.311 61.5665 109.155 61.4081 108.956 61.2956C108.762 61.1781 108.534 61.1193 108.274 61.1193C108.018 61.1193 107.791 61.1781 107.591 61.2956C107.392 61.4081 107.236 61.5691 107.124 61.7786C107.011 61.9831 106.955 62.2182 106.955 62.484V62.6066C106.955 62.8775 107.016 63.1203 107.139 63.335C107.267 63.5445 107.443 63.7081 107.668 63.8256C107.893 63.9432 108.151 64.002 108.442 64.002C108.682 64.002 108.9 63.9611 109.094 63.8793C109.293 63.7975 109.467 63.6749 109.615 63.5113L110.022 63.9866C109.838 64.2013 109.608 64.3649 109.332 64.4773C109.061 64.5898 108.757 64.646 108.419 64.646Z" fill="#DD524D"/>
</g>
<defs>
<filter id="filter0_dd_856_12509" x="0" y="0" width="127.2" height="98.7333" filterUnits="userSpaceOnUse" color-interpolation-filters="sRGB">
<feFlood flood-opacity="0" result="BackgroundImageFix"/>
<feColorMatrix in="SourceAlpha" type="matrix" values="0 0 0 0 0 0 0 0 0 0 0 0 0 0 0 0 0 0 127 0" result="hardAlpha"/>
<feMorphology radius="1" operator="erode" in="SourceAlpha" result="effect1_dropShadow_856_12509"/>
<feOffset/>
<feGaussianBlur stdDeviation="1.5"/>
<feComposite in2="hardAlpha" operator="out"/>
<feColorMatrix type="matrix" values="0 0 0 0 0.0627451 0 0 0 0 0.0980392 0 0 0 0 0.156863 0 0 0 0.04 0"/>
<feBlend mode="normal" in2="BackgroundImageFix" result="effect1_dropShadow_856_12509"/>
<feColorMatrix in="SourceAlpha" type="matrix" values="0 0 0 0 0 0 0 0 0 0 0 0 0 0 0 0 0 0 127 0" result="hardAlpha"/>
<feMorphology radius="9" operator="erode" in="SourceAlpha" result="effect2_dropShadow_856_12509"/>
<feOffset dy="14"/>
<feGaussianBlur stdDeviation="11"/>
<feComposite in2="hardAlpha" operator="out"/>
<feColorMatrix type="matrix" values="0 0 0 0 0.0627451 0 0 0 0 0.0980392 0 0 0 0 0.156863 0 0 0 0.14 0"/>
<feBlend mode="normal" in2="effect1_dropShadow_856_12509" result="effect2_dropShadow_856_12509"/>
<feBlend mode="normal" in="SourceGraphic" in2="effect2_dropShadow_856_12509" result="shape"/>
</filter>
</defs>
</svg>
